<svg width="24" height="24" viewBox="0 0 24 24" fill="none" xmlns="http://www.w3.org/2000/svg">
<path d="M13.3687 1.09031C13.1297 1.17938 12.9094 1.38094 12.7969 1.61531C12.7125 1.78875 12.6984 1.89188 12.7125 2.12625C12.7359 2.49656 12.8906 2.74969 13.2047 2.93719L13.4297 3.06844L16.4437 3.09188L19.4531 3.11531L15.1359 7.42781C12.1734 10.3856 10.7906 11.8013 10.7297 11.9278C10.5609 12.2841 10.6406 12.7575 10.9125 13.0481C11.1984 13.3528 11.6906 13.4419 12.0937 13.2591C12.2578 13.1888 13.2703 12.1997 16.6031 8.86688L20.9015 4.57313L20.9156 7.56844L20.9297 10.5684L21.0609 10.7934C21.3187 11.2294 21.8531 11.4122 22.3359 11.2247C22.5797 11.1356 22.8562 10.8403 22.9219 10.5966C22.95 10.4888 22.9687 8.82469 22.9687 6.13406V1.845L22.8422 1.58719C22.7437 1.39969 22.6547 1.30125 22.4812 1.19344L22.2515 1.05281L17.8875 1.04344C14.6109 1.03875 13.4859 1.04813 13.3687 1.09031Z" fill="#8B8B8B"/>
<path d="M3.0082 4.57734C1.52227 4.89609 0.359766 6.07734 0.0738281 7.57265C-0.0246094 8.08827 -0.0246094 19.4086 0.0738281 19.9242C0.317578 21.1992 1.23633 22.3008 2.42695 22.7508C3.11602 23.0086 2.96133 23.0039 9.26602 23.0039C14.1363 23.0039 15.1535 22.9945 15.4441 22.9383C16.977 22.643 18.191 21.4102 18.4535 19.8773C18.5191 19.5117 18.5238 18.7055 18.5145 13.5539C18.5051 10.2211 18.4816 7.61484 18.4582 7.56796C18.4254 7.49296 17.9145 7.98046 15.0832 10.8023C11.2301 14.6461 11.5348 14.4023 10.6488 14.4023C10.2457 14.4023 10.1098 14.3789 9.88945 14.2945C9.37383 14.0883 8.92383 13.6383 8.72227 13.1273C8.6332 12.907 8.61445 12.7664 8.60977 12.3586C8.60977 11.8805 8.61445 11.857 8.79258 11.4914C8.96602 11.1258 9.02227 11.0695 12.2566 7.85859C15.1207 5.01796 15.5285 4.5914 15.4488 4.5539C15.3973 4.53046 12.9504 4.50702 9.3832 4.50234C3.77227 4.49296 3.3832 4.49765 3.0082 4.57734Z" fill="#8B8B8B"/>
</svg>
