<svg width="21" height="21" viewBox="0 0 21 21" fill="none" xmlns="http://www.w3.org/2000/svg">
<g clip-path="url(#clip0_763_53196)">
<path d="M16.4501 13.2476L13.3817 11.3084L13.3733 11.3029C13.2135 11.2057 13.032 11.1499 12.8452 11.1405C12.6584 11.1311 12.4722 11.1684 12.3035 11.2491C12.2836 11.2584 12.2643 11.2689 12.2457 11.2805L10.3446 12.482C9.34606 11.8069 8.39561 10.5484 8.02611 9.41432L9.71891 7.90175C9.73532 7.88634 9.75104 7.87084 9.76626 7.85384C9.8888 7.71464 9.97502 7.5473 10.0173 7.36672C10.0595 7.18614 10.0564 6.99792 10.0084 6.81881L10.0096 6.81046L9.0068 3.3148C8.94286 3.08066 8.80491 2.87347 8.61354 2.72417C8.42217 2.57488 8.18765 2.49147 7.94499 2.48641C6.98408 2.47536 6.05201 2.81446 5.32285 3.44039C4.59369 4.06632 4.11732 4.93628 3.9827 5.88777C3.1907 11.4141 7.04257 16.5547 12.5689 17.3467C13.5199 17.4848 14.4887 17.2719 15.2942 16.7479C16.0997 16.2239 16.6869 15.4246 16.9462 14.4992C17.0096 14.265 16.9955 14.0166 16.9061 13.791C16.8166 13.5654 16.6567 13.3748 16.4501 13.2476ZM12.7285 16.2331C10.3669 15.892 8.23697 14.628 6.80614 12.7185C5.3753 10.8089 4.76039 8.40975 5.09632 6.04737C5.1911 5.36733 5.53018 4.74504 6.05023 4.29672C6.57027 3.8484 7.23573 3.6047 7.92231 3.61114C7.92164 3.61387 7.92124 3.61667 7.92111 3.61949L8.91393 7.10022L7.22849 8.61598C7.21148 8.63069 7.19565 8.64671 7.18114 8.66389C7.05336 8.8096 6.9654 8.98585 6.92577 9.17555C6.88613 9.36525 6.89618 9.56198 6.95493 9.74666C7.40068 11.1267 8.51531 12.6027 9.72867 13.4194C9.89079 13.5271 10.0781 13.5908 10.2722 13.6044C10.4663 13.6181 10.6607 13.5811 10.8363 13.4972C10.8559 13.4877 10.8749 13.4771 10.8934 13.4656L12.7922 12.2645L15.8535 14.1984C15.8535 14.1984 15.8591 14.1992 15.8612 14.1995C15.6755 14.8614 15.255 15.4329 14.6784 15.8072C14.1019 16.1815 13.4087 16.3329 12.7285 16.2331Z" fill="#2196F3"/>
</g>
<defs>
<clipPath id="clip0_763_53196">
<rect width="18" height="18" fill="white" transform="translate(2.55347) rotate(8.15573)"/>
</clipPath>
</defs>
</svg>
