<svg width="16" height="17" viewBox="0 0 16 17" fill="none" xmlns="http://www.w3.org/2000/svg">
<path d="M12.5404 12.6934C12.5858 12.7399 12.6217 12.795 12.6462 12.8557C12.6708 12.9164 12.6834 12.9815 12.6834 13.0472C12.6834 13.1129 12.6708 13.1779 12.6462 13.2386C12.6217 13.2993 12.5858 13.3544 12.5404 13.4009C12.4951 13.4474 12.4413 13.4842 12.3821 13.5093C12.3229 13.5345 12.2594 13.5474 12.1953 13.5474C12.1312 13.5474 12.0678 13.5345 12.0085 13.5093C11.9493 13.4842 11.8955 13.4474 11.8502 13.4009L7.80508 9.25403L3.75996 13.4009C3.66842 13.4947 3.54428 13.5474 3.41483 13.5474C3.28539 13.5474 3.16124 13.4947 3.06971 13.4009C2.97818 13.3071 2.92676 13.1798 2.92676 13.0472C2.92676 12.9145 2.97818 12.7872 3.06971 12.6934L7.11544 8.54715L3.06971 4.4009C2.97818 4.30708 2.92676 4.17983 2.92676 4.04715C2.92676 3.91447 2.97818 3.78722 3.06971 3.6934C3.16124 3.59958 3.28539 3.54688 3.41483 3.54688C3.54428 3.54688 3.66842 3.59958 3.75996 3.6934L7.80508 7.84028L11.8502 3.6934C11.9417 3.59958 12.0659 3.54687 12.1953 3.54688C12.3248 3.54688 12.4489 3.59958 12.5404 3.6934C12.632 3.78722 12.6834 3.91447 12.6834 4.04715C12.6834 4.17983 12.632 4.30708 12.5404 4.4009L8.49471 8.54715L12.5404 12.6934Z" fill="#8B8B8B"/>
</svg>
