<svg width="16" height="16" viewBox="0 0 16 16" fill="none" xmlns="http://www.w3.org/2000/svg">
<circle cx="8" cy="8" r="8" fill="white"/>
<path d="M7.51098 11.3311L7.51041 11.3306C6.31389 10.2456 5.35298 9.37211 4.68653 8.55675C4.02448 7.74677 3.69492 7.04313 3.69492 6.30449C3.69492 5.0995 4.63246 4.16563 5.83379 4.16563C6.51607 4.16563 7.17754 4.48531 7.60751 4.98629L7.91105 5.33995L8.21458 4.98629C8.64455 4.48531 9.30602 4.16563 9.9883 4.16563C11.1896 4.16563 12.1272 5.0995 12.1272 6.30449C12.1272 7.04313 11.7976 7.74677 11.1356 8.55675C10.4691 9.37211 9.50821 10.2456 8.31169 11.3306L8.31111 11.3311L7.91105 11.6953L7.51098 11.3311Z" stroke="#B5B5B5" stroke-width="0.8"/>
</svg>
