<svg width="25" height="24" viewBox="0 0 25 24" fill="none" xmlns="http://www.w3.org/2000/svg">
<g clip-path="url(#clip0_763_52102)">
<path d="M12.3618 0.435937C11.893 0.567187 11.4571 0.9375 11.2227 1.39219C11.1571 1.52344 11.0587 1.64531 10.9837 1.67812C10.904 1.71562 10.5712 1.73437 9.9993 1.73437H9.13211L8.98211 1.87031L8.82742 2.00625L8.81336 2.9625C8.79461 4.05 8.82274 4.22344 9.05242 4.35937C9.19774 4.44844 9.31492 4.45312 12.8352 4.45312C16.3555 4.45312 16.4727 4.44844 16.618 4.35937C16.8477 4.22344 16.8759 4.05 16.8571 2.9625L16.843 2.00625L16.6884 1.87031L16.5384 1.73437H15.6712C15.1134 1.73437 14.7665 1.71562 14.6868 1.67812C14.6212 1.65 14.4993 1.50469 14.4055 1.33594C14.2087 0.984375 13.8946 0.684375 13.5571 0.529687C13.243 0.389062 12.6899 0.342187 12.3618 0.435937Z" fill="#8B8B8B"/>
<path d="M4.48656 2.41406C4.24281 2.49375 3.98031 2.72343 3.86781 2.96718C3.79281 3.12187 3.78812 3.85312 3.7975 13.0453L3.81156 22.9594L3.95219 23.1656C4.04594 23.2969 4.18187 23.4094 4.34594 23.4984L4.60375 23.625H12.835H21.0662L21.3241 23.4984C21.4881 23.4094 21.6241 23.2969 21.7178 23.1656L21.8584 22.9594L21.8725 13.0453C21.8819 1.99218 21.9147 2.98594 21.5631 2.64375C21.2725 2.3625 21.1272 2.34375 19.2709 2.34375H17.6162V2.88281V3.42187H18.8256C19.51 3.42187 20.1053 3.44531 20.2037 3.46875C20.4147 3.52968 20.6397 3.70781 20.7475 3.90937C20.8225 4.04531 20.8272 4.64062 20.8272 12.9844V21.9141L20.7194 22.1016C20.6584 22.2047 20.5366 22.3453 20.4428 22.4062L20.2694 22.5234H12.835H5.40062L5.22719 22.4062C5.13344 22.3453 5.01156 22.2047 4.95062 22.1016L4.84281 21.9141V12.9844C4.84281 4.64062 4.8475 4.04531 4.9225 3.90937C5.03031 3.70781 5.25531 3.52968 5.46625 3.46875C5.56469 3.44531 6.16 3.42187 6.84906 3.42187H8.05375V2.88281V2.34375L6.38031 2.34843C5.07719 2.34843 4.65531 2.36718 4.48656 2.41406Z" fill="#8B8B8B"/>
<path d="M5.6251 4.22812C5.58291 4.27031 5.56885 6.27656 5.56885 12.9656C5.56885 17.7422 5.58291 21.6797 5.59697 21.7219C5.6251 21.7922 6.30479 21.7969 12.8345 21.7969C19.3642 21.7969 20.0438 21.7922 20.072 21.7219C20.086 21.6797 20.1001 17.7422 20.1001 12.9656C20.1001 6.27656 20.086 4.27031 20.0438 4.22812C20.0017 4.18594 19.6595 4.17188 18.7876 4.17188H17.5923L17.5126 4.39687C17.4142 4.67344 17.1563 4.95 16.8704 5.08125C16.6548 5.17969 16.6267 5.17969 12.8345 5.17969C9.04229 5.17969 9.01416 5.17969 8.79854 5.08125C8.5126 4.95 8.25479 4.67344 8.15635 4.39687L8.07666 4.17188H6.88135C6.00947 4.17188 5.66729 4.18594 5.6251 4.22812ZM9.45947 6.67969C9.5251 6.7125 9.63291 6.80156 9.70322 6.87656C10.2001 7.40156 9.83447 8.29219 9.11729 8.30625C9.00479 8.30625 8.86416 8.29219 8.79854 8.27344C8.4751 8.175 8.19385 7.79531 8.19385 7.45312C8.19385 7.11094 8.49854 6.69375 8.79385 6.62812C8.86416 6.61406 8.94385 6.59531 8.96729 6.58594C9.04229 6.5625 9.33291 6.61875 9.45947 6.67969ZM17.8454 6.98906C17.9251 7.01719 18.0142 7.07812 18.0376 7.125C18.1126 7.27031 18.0892 7.49531 17.9907 7.59375C17.897 7.6875 17.836 7.6875 15.0423 7.6875C12.3235 7.6875 12.1829 7.68281 12.0798 7.59844C11.8735 7.42969 11.9767 7.02187 12.2438 6.97031C12.4876 6.92344 17.7001 6.9375 17.8454 6.98906ZM9.62354 8.52656C10.1626 8.71875 10.6126 9.20156 10.7298 9.72656C10.8235 10.1484 10.9126 10.125 9.05635 10.125C7.49541 10.125 7.44385 10.1203 7.39697 10.0312C7.29385 9.83906 7.50947 9.31875 7.83291 8.96719C8.27354 8.48906 9.00479 8.31094 9.62354 8.52656ZM17.9626 9.14531C18.0563 9.22031 18.0845 9.28125 18.0845 9.42187C18.0845 9.5625 18.0563 9.62344 17.9626 9.69844C17.8407 9.79688 17.7985 9.79688 15.0282 9.79688H12.2157L12.0798 9.66094C11.9345 9.51094 11.9157 9.42656 12.0001 9.26719C12.1173 9.04687 12.0423 9.05156 15.0188 9.04687C17.7985 9.04687 17.8407 9.04687 17.9626 9.14531ZM9.45479 11.6156C9.82979 11.8031 10.0173 12.2672 9.88604 12.6703C9.81104 12.8859 9.51572 13.1531 9.27197 13.2188C8.52666 13.4203 7.9126 12.5484 8.34854 11.9016C8.57822 11.5641 9.09385 11.4281 9.45479 11.6156ZM17.9907 12C18.1126 12.1219 18.1126 12.375 17.9954 12.5203L17.9063 12.6328H15.0376H12.1688L12.0517 12.4969C11.9157 12.3328 11.9298 12.1219 12.0892 11.9859C12.1829 11.9109 12.3938 11.9062 15.0423 11.9062C17.836 11.9062 17.897 11.9062 17.9907 12ZM9.77354 13.5187C10.2704 13.7437 10.6735 14.2547 10.7532 14.7656C10.8048 15.0891 10.786 15.0937 9.05166 15.0937C7.60322 15.0937 7.53291 15.0891 7.44385 15C7.33604 14.8922 7.3501 14.7281 7.51416 14.3625C7.70635 13.9266 8.1001 13.5797 8.58291 13.425C8.89697 13.3219 9.42666 13.3641 9.77354 13.5187ZM17.9626 14.0672C18.122 14.1937 18.1313 14.4516 17.9813 14.6109L17.8829 14.7187H15.0563C13.5048 14.7187 12.197 14.7047 12.1548 14.6906C12.0704 14.6578 11.9438 14.4328 11.9438 14.3203C11.9438 14.2781 12.0048 14.1797 12.0798 14.1047L12.2157 13.9687H15.0282C17.7985 13.9687 17.8407 13.9687 17.9626 14.0672ZM9.42666 16.5281C9.6376 16.6359 9.73604 16.7344 9.83916 16.9312C10.097 17.4375 9.76416 18.075 9.19697 18.1687C8.64854 18.2531 8.12822 17.7328 8.2126 17.1937C8.30166 16.6312 8.93916 16.2844 9.42666 16.5281ZM17.9767 16.9312C18.1313 17.0766 18.1267 17.3531 17.9626 17.4797C17.8407 17.5781 17.7985 17.5781 15.0282 17.5781H12.2157L12.0798 17.4422C12.0048 17.3672 11.9438 17.2687 11.9438 17.2266C11.9438 17.1234 12.0704 16.8891 12.1407 16.8609C12.1735 16.8469 13.4767 16.8328 15.0329 16.8328L17.8688 16.8281L17.9767 16.9312ZM9.76416 18.4406C10.2423 18.6562 10.6735 19.2 10.7532 19.6687C10.8095 20.0203 10.8376 20.0156 9.06572 20.0156C7.6126 20.0156 7.5001 20.0109 7.4251 19.9312C7.33604 19.8281 7.35947 19.65 7.5001 19.3125C7.86104 18.4687 8.9251 18.0562 9.76416 18.4406ZM17.9954 19.0266C18.1173 19.1766 18.1126 19.425 17.9813 19.5469C17.8829 19.6406 17.8313 19.6406 15.0376 19.6406C11.9204 19.6406 12.0329 19.65 11.9673 19.3594C11.9298 19.1906 12.0329 19.0031 12.1923 18.9375C12.2485 18.9141 13.5329 18.9 15.0985 18.9047L17.9063 18.9141L17.9954 19.0266Z" fill="#8B8B8B"/>
</g>
<defs>
<clipPath id="clip0_763_52102">
<rect width="24" height="24" fill="white" transform="translate(0.833984)"/>
</clipPath>
</defs>
</svg>
