<svg width="18" height="18" viewBox="0 0 18 18" fill="none" xmlns="http://www.w3.org/2000/svg">
<path d="M9.84448 9.00091C9.84448 9.16779 9.795 9.33092 9.70228 9.46967C9.60957 9.60842 9.4778 9.71657 9.32362 9.78043C9.16945 9.84429 8.9998 9.861 8.83612 9.82845C8.67245 9.79589 8.52211 9.71553 8.40411 9.59753C8.28611 9.47953 8.20575 9.32919 8.17319 9.16551C8.14064 9.00184 8.15735 8.83219 8.22121 8.67802C8.28507 8.52384 8.39322 8.39207 8.53197 8.29936C8.67072 8.20664 8.83385 8.15716 9.00073 8.15716C9.22451 8.15716 9.43912 8.24605 9.59735 8.40429C9.75559 8.56252 9.84448 8.77713 9.84448 9.00091ZM5.90698 8.15716C5.7401 8.15716 5.57697 8.20664 5.43822 8.29936C5.29947 8.39207 5.19132 8.52384 5.12746 8.67802C5.0636 8.83219 5.04689 9.00184 5.07944 9.16551C5.112 9.32919 5.19236 9.47953 5.31036 9.59753C5.42836 9.71553 5.5787 9.79589 5.74237 9.82845C5.90605 9.861 6.0757 9.84429 6.22987 9.78043C6.38405 9.71657 6.51582 9.60842 6.60854 9.46967C6.70125 9.33092 6.75073 9.16779 6.75073 9.00091C6.75073 8.77713 6.66184 8.56252 6.5036 8.40429C6.34537 8.24605 6.13076 8.15716 5.90698 8.15716ZM12.0945 8.15716C11.9276 8.15716 11.7645 8.20664 11.6257 8.29936C11.487 8.39207 11.3788 8.52384 11.315 8.67802C11.2511 8.83219 11.2344 9.00184 11.2669 9.16551C11.2995 9.32919 11.3799 9.47953 11.4979 9.59753C11.6159 9.71553 11.7662 9.79589 11.9299 9.82845C12.0935 9.861 12.2632 9.84429 12.4174 9.78043C12.5715 9.71657 12.7033 9.60842 12.796 9.46967C12.8887 9.33092 12.9382 9.16779 12.9382 9.00091C12.9382 8.77713 12.8493 8.56252 12.6911 8.40429C12.5329 8.24605 12.3183 8.15716 12.0945 8.15716ZM16.3132 9.00091C16.3135 10.2634 15.9869 11.5044 15.3653 12.6033C14.7436 13.7021 13.848 14.6212 12.7658 15.2713C11.6835 15.9213 10.4513 16.28 9.18927 16.3126C7.9272 16.3451 6.67821 16.0504 5.56386 15.457L3.16972 16.255C2.9715 16.3212 2.75878 16.3307 2.55542 16.2828C2.35205 16.2348 2.16607 16.1311 2.01832 15.9833C1.87056 15.8356 1.76688 15.6496 1.71889 15.4462C1.67089 15.2429 1.68049 15.0301 1.74659 14.8319L2.54464 12.4378C2.02302 11.4571 1.73168 10.3704 1.69273 9.26034C1.65378 8.15024 1.86824 7.04585 2.31983 6.031C2.77142 5.01616 3.44828 4.11753 4.29902 3.40332C5.14976 2.68912 6.15203 2.17812 7.22975 1.9091C8.30747 1.64008 9.43231 1.62012 10.5189 1.85074C11.6055 2.08135 12.6252 2.55647 13.5008 3.24004C14.3763 3.92361 15.0846 4.79766 15.572 5.79585C16.0593 6.79403 16.3128 7.89012 16.3132 9.00091ZM15.1882 9.00091C15.188 8.05178 14.9693 7.11543 14.5493 6.26431C14.1292 5.41318 13.519 4.6701 12.7658 4.09256C12.0126 3.51501 11.1367 3.11847 10.2057 2.93363C9.27477 2.74879 8.31377 2.7806 7.39707 3.02659C6.48037 3.27259 5.63255 3.72617 4.9192 4.35226C4.20585 4.97835 3.6461 5.76015 3.28324 6.63719C2.92039 7.51422 2.76417 8.46298 2.82666 9.41005C2.88915 10.3571 3.16868 11.2771 3.64362 12.0989C3.68349 12.1679 3.70824 12.2445 3.71624 12.3238C3.72424 12.4031 3.7153 12.4832 3.69003 12.5587L2.81323 15.1884L5.44292 14.3116C5.5002 14.2921 5.5603 14.2821 5.62081 14.2821C5.7196 14.2823 5.81661 14.3084 5.90206 14.358C6.8427 14.9023 7.91009 15.1891 8.99682 15.1898C10.0836 15.1905 11.1513 14.905 12.0926 14.3619C13.034 13.8189 13.8157 13.0375 14.3591 12.0964C14.9025 11.1553 15.1885 10.0876 15.1882 9.00091Z" fill="#2196F3"/>
</svg>
