<svg width="25" height="24" viewBox="0 0 25 24" fill="none" xmlns="http://www.w3.org/2000/svg">
<g clip-path="url(#clip0_763_52362)">
<path d="M5.63398 0C2.97478 0 0.833984 2.1408 0.833984 4.8V19.2C0.833984 21.8592 2.97478 24 5.63398 24H20.034C22.6932 24 24.834 21.8592 24.834 19.2V4.8C24.834 2.1408 22.6932 0 20.034 0H5.63398ZM11.288 3.27234C12.3144 3.27234 13.2988 3.68007 14.0245 4.40584C14.7503 5.13161 15.158 6.11596 15.158 7.14234C15.158 8.16873 14.7503 9.15308 14.0245 9.87885C13.2988 10.6046 12.3144 11.0123 11.288 11.0123C10.2617 11.0123 9.27731 10.6046 8.55154 9.87885C7.82578 9.15308 7.41805 8.16873 7.41805 7.14234C7.41805 6.11596 7.82578 5.13161 8.55154 4.40584C9.27731 3.68007 10.2617 3.27234 11.288 3.27234ZM17.2796 7.71187C17.4917 7.70051 17.7159 7.77776 17.9138 7.98141L19.0163 9.08391L19.0168 9.08437L19.0173 9.08391L20.1198 7.98141C20.9116 7.16681 22.1226 8.37734 21.308 9.16922L20.2051 10.2717L20.2046 10.2722L21.308 11.3752C21.6404 11.6984 21.6478 12.2298 21.3249 12.5625C20.9952 12.9024 20.4499 12.9029 20.1198 12.5634L19.0168 11.46L17.9138 12.5634C17.5837 12.9028 17.0384 12.9023 16.7087 12.5625C16.3858 12.2298 16.3932 11.6984 16.7255 11.3752L17.829 10.2722L17.8285 10.2717L16.7255 9.16922C16.3182 8.77328 16.4178 8.27279 16.7176 7.97297C16.8675 7.82305 17.0675 7.72324 17.2796 7.71187ZM14.1127 11.2959C16.2836 13.0288 17.9893 14.0974 17.9893 20.7277H4.58727C4.58727 14.2195 6.29203 13.0302 8.46195 11.2964C9.3481 11.6664 10.3122 11.8591 11.2885 11.8612C12.264 11.8586 13.2274 11.6658 14.1127 11.2959Z" fill="#8B8B8B"/>
</g>
<defs>
<clipPath id="clip0_763_52362">
<rect width="24" height="24" fill="white" transform="translate(0.833984)"/>
</clipPath>
</defs>
</svg>
