<svg width="24" height="25" viewBox="0 0 24 25" fill="none" xmlns="http://www.w3.org/2000/svg">
<path d="M4.83815 2.05832C4.57096 2.1427 4.2569 2.4052 4.12096 2.66301L4.01784 2.8552L4.00377 12.5114C3.9944 17.8224 4.00377 22.2614 4.01784 22.3739C4.07409 22.7677 4.42565 22.9224 4.77721 22.7114C4.8569 22.6599 6.29596 21.5255 7.96471 20.1849C10.1303 18.4552 11.0772 17.7286 11.2413 17.663C11.5366 17.5505 12.0428 17.5458 12.3616 17.6583C12.535 17.7193 13.4116 18.3708 15.8256 20.2458C17.8506 21.8208 19.1163 22.7724 19.2241 22.8052C19.435 22.8661 19.6131 22.8052 19.7303 22.6271C19.81 22.5052 19.8147 22.0552 19.8288 12.7739C19.8381 1.98801 19.8616 2.80832 19.5335 2.41926C19.4444 2.31614 19.271 2.1802 19.1444 2.11926L18.9241 2.01145L11.9866 2.00207C6.14127 1.99739 5.01627 2.00207 4.83815 2.05832Z" fill="#8B8B8B"/>
</svg>
