<svg width="16" height="16" viewBox="0 0 16 16" fill="none" xmlns="http://www.w3.org/2000/svg">
<circle cx="8" cy="8" r="8" fill="white"/>
<path d="M7.85959 2.01394C7.70163 2.04652 7.54367 2.13673 7.19766 2.38984C6.65859 2.78829 6.53824 2.82086 5.92896 2.7532C5.47012 2.70058 5.16924 2.7106 5.02633 2.78328C4.87087 2.86597 4.74551 3.02385 4.61011 3.31454C4.28416 4.00619 4.26661 4.04378 4.15127 4.15905C4.06853 4.23924 3.9557 4.31192 3.76766 4.39963C3.61972 4.46729 3.39657 4.57254 3.27121 4.63268C3.01295 4.75297 2.8575 4.88077 2.77727 5.03113C2.70455 5.17397 2.69453 5.47469 2.74718 5.93328C2.81738 6.54724 2.78479 6.65751 2.36607 7.22887C2.06519 7.63985 2 7.77767 2 8.00321C2 8.22875 2.06519 8.36658 2.36607 8.77756C2.78479 9.34892 2.81738 9.45918 2.74718 10.0731C2.69453 10.5317 2.70455 10.8325 2.77727 10.9753C2.8575 11.1282 3.01546 11.2535 3.28374 11.3788C4.00084 11.7146 4.03845 11.7371 4.15378 11.8499C4.23402 11.9326 4.30673 12.0453 4.39448 12.2333C4.46218 12.3811 4.56749 12.6042 4.62766 12.7295C4.74801 12.9876 4.87589 13.143 5.02633 13.2231C5.16924 13.2958 5.47012 13.3058 5.92896 13.2532C6.54325 13.1831 6.65357 13.2156 7.22524 13.6341C7.63644 13.9348 7.77434 14 8 14C8.22566 14 8.36356 13.9348 8.77476 13.6341C9.34643 13.2156 9.45675 13.1831 10.071 13.2532C10.5299 13.3058 10.8308 13.2958 10.9737 13.2231C11.1291 13.1405 11.2545 12.9826 11.3899 12.6919C11.7158 12.0002 11.7334 11.9626 11.8487 11.8474C11.9315 11.7672 12.0443 11.6945 12.2323 11.6068C12.3803 11.5391 12.6034 11.4339 12.7288 11.3737C12.987 11.2535 13.1425 11.1257 13.2227 10.9753C13.2954 10.8325 13.3055 10.5317 13.2528 10.0731C13.1826 9.45918 13.2152 9.34892 13.6339 8.77756C13.9348 8.36658 14 8.22875 14 8.00071C14 7.77767 13.9173 7.60727 13.6164 7.2013C13.2202 6.66502 13.1851 6.54474 13.2528 5.93328C13.3055 5.47469 13.2954 5.17397 13.2227 5.03113C13.1425 4.88077 12.987 4.75297 12.7288 4.63268C12.6034 4.57254 12.3803 4.46729 12.2323 4.39963C11.8788 4.23423 11.771 4.12648 11.6055 3.77313C11.5378 3.62528 11.4325 3.40225 11.3723 3.27695C11.252 3.01884 11.1241 2.86347 10.9737 2.78328C10.8308 2.7106 10.5299 2.70058 10.071 2.7532C9.45926 2.82086 9.3389 2.78578 8.80234 2.38984C8.34601 2.05153 8.12035 1.96132 7.85959 2.01394ZM10.4998 6.08865C10.8232 6.24151 10.9636 6.64748 10.8007 6.96323C10.753 7.05596 10.3669 7.45691 9.27372 8.5445C8.46887 9.34641 7.77183 10.023 7.7242 10.0481C7.59382 10.1157 7.29294 10.1132 7.16005 10.0406C7.00961 9.96038 5.23193 8.1661 5.17927 8.0408C5.1542 7.98567 5.13414 7.8729 5.13414 7.7902C5.13163 7.4118 5.41496 7.12612 5.79106 7.12612C6.06686 7.12863 6.11199 7.1587 6.81655 7.86037L7.44839 8.49188L8.63435 7.30906C9.28374 6.66001 9.85541 6.1087 9.90054 6.08614C10.0936 5.99092 10.2917 5.99092 10.4998 6.08865Z" fill="#17A2B8"/>
</svg>
