<svg width="24" height="24" viewBox="0 0 24 24" fill="none" xmlns="http://www.w3.org/2000/svg">
<path d="M20.8781 11.9539C20.852 11.8893 20.2192 10.3535 18.8125 8.81435C16.9381 6.76354 14.5706 5.67969 11.9648 5.67969C9.35906 5.67969 6.99159 6.76354 5.11719 8.81435C3.71046 10.3535 3.0747 11.8918 3.05154 11.9539C3.01756 12.0375 3 12.128 3 12.2196C3 12.3111 3.01756 12.4016 3.05154 12.4852C3.07769 12.5498 3.71046 14.0848 5.11719 15.624C6.99159 17.674 9.35906 18.7578 11.9648 18.7578C14.5706 18.7578 16.9381 17.674 18.8125 15.624C20.2192 14.0848 20.852 12.5498 20.8781 12.4852C20.9121 12.4016 20.9297 12.3111 20.9297 12.2196C20.9297 12.128 20.9121 12.0375 20.8781 11.9539ZM11.9648 15.4883C11.3738 15.4883 10.7961 15.2965 10.3046 14.9373C9.81322 14.578 9.4302 14.0674 9.20402 13.4699C8.97785 12.8725 8.91867 12.2151 9.03397 11.5809C9.14928 10.9467 9.43388 10.3641 9.8518 9.90684C10.2697 9.44959 10.8022 9.1382 11.3819 9.01204C11.9615 8.88589 12.5624 8.95063 13.1084 9.1981C13.6544 9.44556 14.1211 9.86462 14.4495 10.4023C14.7779 10.94 14.9531 11.5721 14.9531 12.2188C14.9531 13.0859 14.6383 13.9175 14.0779 14.5307C13.5175 15.1438 12.7574 15.4883 11.9648 15.4883Z" fill="#2196F3"/>
</svg>
