<svg width="16" height="16" viewBox="0 0 16 16" fill="none" xmlns="http://www.w3.org/2000/svg">
<circle cx="8" cy="8" r="8" fill="white"/>
<path d="M8.08809 1.71964C8.02047 1.75344 7.78664 1.92248 7.56972 2.09433C7.35279 2.26336 7.13023 2.43803 7.07388 2.48029L6.97246 2.55636L6.36957 2.47184C6.03996 2.42676 5.70471 2.38732 5.62864 2.38732C5.45961 2.38732 5.26804 2.47466 5.1807 2.59016C5.1469 2.63524 5.00603 2.95358 4.86517 3.29729L4.61162 3.92271L3.9862 4.17908C3.63968 4.31713 3.32133 4.4608 3.27625 4.49461C3.16356 4.57631 3.07623 4.7707 3.07623 4.93973C3.07623 5.0158 3.11567 5.34823 3.16075 5.68067L3.24526 6.28355L3.1692 6.38497C3.12694 6.44132 2.95227 6.66388 2.78324 6.88081C2.417 7.34565 2.34375 7.47524 2.34375 7.65555C2.34375 7.83585 2.417 7.96544 2.78324 8.43028C2.95227 8.64721 3.12694 8.86977 3.1692 8.92612L3.24526 9.02754L3.16075 9.63043C3.11567 9.96286 3.07623 10.2953 3.07623 10.3714C3.07623 10.5404 3.16356 10.7348 3.27625 10.8165C3.32133 10.8503 3.63968 10.994 3.9862 11.132L4.61162 11.3884L4.86517 12.0138C5.00603 12.3575 5.1469 12.6759 5.1807 12.7209C5.26804 12.8364 5.45961 12.9238 5.62864 12.9238C5.70471 12.9238 6.03996 12.8843 6.36957 12.8393L6.97246 12.7547L7.07388 12.8308C7.13023 12.8731 7.35279 13.0477 7.56972 13.2168C8.03456 13.583 8.16415 13.6562 8.34445 13.6562C8.53039 13.6562 8.65435 13.583 9.18962 13.1661C9.44599 12.966 9.66855 12.7914 9.68546 12.7773C9.70518 12.7632 9.97281 12.7885 10.3193 12.8393C10.6518 12.8843 10.9842 12.9238 11.0603 12.9238C11.2321 12.9238 11.4209 12.8364 11.5054 12.7181C11.542 12.6702 11.6857 12.3519 11.8237 12.011L12.0773 11.3884L12.6999 11.1348C13.0408 10.994 13.3591 10.8531 13.407 10.8165C13.5253 10.732 13.6127 10.5432 13.6127 10.3714C13.6127 10.2953 13.5732 9.96286 13.5282 9.63043C13.4775 9.28391 13.4521 9.01627 13.4662 8.99655C13.4803 8.97964 13.6549 8.75708 13.855 8.50072C14.2719 7.96544 14.3452 7.84148 14.3452 7.65555C14.3452 7.46961 14.2719 7.34565 13.855 6.81038C13.6549 6.55401 13.4803 6.33145 13.4662 6.31454C13.4521 6.29482 13.4775 6.02719 13.5282 5.68067C13.5732 5.34823 13.6127 5.0158 13.6127 4.93973C13.6127 4.7707 13.5253 4.57631 13.4098 4.49179C13.3648 4.45799 13.0464 4.31431 12.7027 4.17626L12.0773 3.92271L11.8237 3.29729C11.6857 2.95358 11.542 2.63524 11.5082 2.59016C11.4237 2.47466 11.2293 2.38732 11.0603 2.38732C10.9842 2.38732 10.6518 2.42676 10.3193 2.47184C9.97281 2.52255 9.70518 2.5479 9.68546 2.53382C9.66855 2.51973 9.44599 2.34506 9.18962 2.14504C8.93326 1.94502 8.66844 1.75344 8.60082 1.71964C8.43742 1.63512 8.25149 1.63512 8.08809 1.71964ZM7.3387 5.84125C7.3866 5.8666 7.63451 6.09198 7.88806 6.3399L8.34445 6.79347L8.80366 6.3399C9.36711 5.78209 9.46289 5.72574 9.7587 5.79899C10.1334 5.88632 10.3306 6.31173 10.1559 6.65543C10.1306 6.7005 9.90802 6.9456 9.6601 7.19634L9.20653 7.65555L9.6601 8.11194C9.90802 8.36549 10.1306 8.61059 10.1559 8.65566C10.3306 8.99937 10.1334 9.42477 9.7587 9.5121C9.46289 9.58535 9.36711 9.52901 8.80366 8.97119L8.34445 8.51762L7.88806 8.97119C7.3218 9.52901 7.22601 9.58535 6.9302 9.5121C6.55551 9.42477 6.35831 8.99937 6.53297 8.65566C6.55833 8.61059 6.78089 8.36549 7.02881 8.11194L7.48238 7.65555L7.02881 7.19634C6.45973 6.62162 6.4062 6.52302 6.49635 6.21312C6.59777 5.85815 7.00909 5.67503 7.3387 5.84125Z" fill="#FF3B3C"/>
</svg>
