<svg width="24" height="24" viewBox="0 0 24 24" fill="none" xmlns="http://www.w3.org/2000/svg">
<path d="M9.36189 9.1572C9.36189 9.1572 6.20189 9.5072 4.09389 9.7412C3.90389 9.7642 3.73589 9.8912 3.67289 10.0842C3.60989 10.2772 3.67289 10.4782 3.81289 10.6052C5.37889 12.0342 7.73189 14.1742 7.73189 14.1742C7.72989 14.1742 7.08589 17.2872 6.65789 19.3642C6.62189 19.5522 6.68989 19.7512 6.85389 19.8702C7.01689 19.9892 7.22689 19.9912 7.39189 19.8982C9.23589 18.8502 11.9979 17.2742 11.9979 17.2742C11.9979 17.2742 14.7609 18.8502 16.6019 19.8992C16.7699 19.9912 16.9799 19.9892 17.1429 19.8702C17.3069 19.7512 17.3749 19.5522 17.3379 19.3652C16.9099 17.2872 16.2669 14.1742 16.2669 14.1742C16.2669 14.1742 18.6199 12.0342 20.1859 10.6082C20.3259 10.4772 20.3879 10.2762 20.3259 10.0842C20.2639 9.8922 20.0959 9.7652 19.9059 9.7432C17.7979 9.5072 14.6369 9.1572 14.6369 9.1572C14.6369 9.1572 13.3269 6.2592 12.4539 4.3272C12.3719 4.1542 12.1999 4.0332 11.9979 4.0332C11.7959 4.0332 11.6229 4.1552 11.5449 4.3272C10.6709 6.2592 9.36189 9.1572 9.36189 9.1572Z" fill="#FFCC01"/>
</svg>
