<svg width="75" height="67" viewBox="0 0 75 67" fill="none" xmlns="http://www.w3.org/2000/svg">
<rect x="0.5" y="0.5" width="73.1509" height="65.065" rx="7" fill="white"/>
<rect x="0.5" y="0.5" width="73.1509" height="65.065" rx="7" stroke="#68BCFF"/>
<path d="M50.9264 23.6653C50.9264 32.2793 43.9434 39.2623 35.3294 39.2623C26.7154 39.2623 19.7324 32.2793 19.7324 23.6653C19.7324 15.0514 26.7154 8.06836 35.3294 8.06836C43.9434 8.06836 50.9264 15.0514 50.9264 23.6653ZM22.0849 23.6653C22.0849 30.9801 28.0146 36.9099 35.3294 36.9099C42.6441 36.9099 48.5739 30.9801 48.5739 23.6653C48.5739 16.3506 42.6441 10.4208 35.3294 10.4208C28.0146 10.4208 22.0849 16.3506 22.0849 23.6653Z" fill="#68BCFF"/>
<circle cx="35.4057" cy="9.04735" r="1.76415" fill="#FFFEFD"/>
<path d="M38.4527 9.04716C38.4527 10.7301 37.0885 12.0943 35.4056 12.0943C33.7227 12.0943 32.3584 10.7301 32.3584 9.04716C32.3584 7.36426 33.7227 6 35.4056 6C37.0885 6 38.4527 7.36426 38.4527 9.04716ZM33.9081 9.04716C33.9081 9.87418 34.5785 10.5446 35.4056 10.5446C36.2326 10.5446 36.903 9.87418 36.903 9.04716C36.903 8.22014 36.2326 7.54971 35.4056 7.54971C34.5785 7.54971 33.9081 8.22014 33.9081 9.04716Z" fill="#68BCFF"/>
<circle cx="35.4057" cy="37.5181" r="1.76415" fill="#FFFEFD"/>
<path d="M38.4527 37.5179C38.4527 39.2008 37.0885 40.565 35.4056 40.565C33.7227 40.565 32.3584 39.2008 32.3584 37.5179C32.3584 35.835 33.7227 34.4707 35.4056 34.4707C37.0885 34.4707 38.4527 35.835 38.4527 37.5179ZM33.9081 37.5179C33.9081 38.3449 34.5785 39.0153 35.4056 39.0153C36.2326 39.0153 36.903 38.3449 36.903 37.5179C36.903 36.6908 36.2326 36.0204 35.4056 36.0204C34.5785 36.0204 33.9081 36.6908 33.9081 37.5179Z" fill="#68BCFF"/>
<circle cx="50.2622" cy="23.4087" r="1.76415" fill="#FFFEFD"/>
<path d="M53.0943 23.0472C53.0943 24.7301 51.7301 26.0943 50.0472 26.0943C48.3643 26.0943 47 24.7301 47 23.0472C47 21.3643 48.3643 20 50.0472 20C51.7301 20 53.0943 21.3643 53.0943 23.0472ZM48.5497 23.0472C48.5497 23.8742 49.2201 24.5446 50.0472 24.5446C50.8742 24.5446 51.5446 23.8742 51.5446 23.0472C51.5446 22.2201 50.8742 21.5497 50.0472 21.5497C49.2201 21.5497 48.5497 22.2201 48.5497 23.0472Z" fill="#68BCFF"/>
<circle cx="21.0473" cy="23.6548" r="1.76415" fill="#FFFEFD"/>
<path d="M24.0943 23.4065C24.0943 25.0894 22.7301 26.4537 21.0472 26.4537C19.3643 26.4537 18 25.0894 18 23.4065C18 21.7236 19.3643 20.3594 21.0472 20.3594C22.7301 20.3594 24.0943 21.7236 24.0943 23.4065ZM19.5497 23.4065C19.5497 24.2336 20.2201 24.904 21.0472 24.904C21.8742 24.904 22.5446 24.2336 22.5446 23.4065C22.5446 22.5795 21.8742 21.9091 21.0472 21.9091C20.2201 21.9091 19.5497 22.5795 19.5497 23.4065Z" fill="#68BCFF"/>
<circle cx="24.7622" cy="13.2563" r="1.76415" fill="#FFFEFD"/>
<path d="M27.8092 13.2561C27.8092 14.939 26.4449 16.3033 24.762 16.3033C23.0791 16.3033 21.7148 14.939 21.7148 13.2561C21.7148 11.5732 23.0791 10.209 24.762 10.209C26.4449 10.209 27.8092 11.5732 27.8092 13.2561ZM23.2645 13.2561C23.2645 14.0832 23.935 14.7536 24.762 14.7536C25.589 14.7536 26.2595 14.0832 26.2595 13.2561C26.2595 12.4291 25.589 11.7587 24.762 11.7587C23.935 11.7587 23.2645 12.4291 23.2645 13.2561Z" fill="#68BCFF"/>
<circle cx="46.3013" cy="33.5571" r="1.76415" fill="#FFFEFD"/>
<path d="M49.3482 33.5569C49.3482 35.2398 47.984 36.6041 46.3011 36.6041C44.6182 36.6041 43.2539 35.2398 43.2539 33.5569C43.2539 31.874 44.6182 30.5098 46.3011 30.5098C47.984 30.5098 49.3482 31.874 49.3482 33.5569ZM44.8036 33.5569C44.8036 34.3839 45.474 35.0544 46.3011 35.0544C47.1281 35.0544 47.7985 34.3839 47.7985 33.5569C47.7985 32.7299 47.1281 32.0595 46.3011 32.0595C45.474 32.0595 44.8036 32.7299 44.8036 33.5569Z" fill="#68BCFF"/>
<circle cx="46.3013" cy="13.2563" r="1.76415" fill="#FFFEFD"/>
<path d="M49.3482 13.2561C49.3482 14.939 47.984 16.3033 46.3011 16.3033C44.6182 16.3033 43.2539 14.939 43.2539 13.2561C43.2539 11.5732 44.6182 10.209 46.3011 10.209C47.984 10.209 49.3482 11.5732 49.3482 13.2561ZM44.8036 13.2561C44.8036 14.0832 45.474 14.7536 46.3011 14.7536C47.1281 14.7536 47.7985 14.0832 47.7985 13.2561C47.7985 12.4291 47.1281 11.7587 46.3011 11.7587C45.474 11.7587 44.8036 12.4291 44.8036 13.2561Z" fill="#68BCFF"/>
<circle cx="24.2641" cy="33.5571" r="1.76415" fill="#FFFEFD"/>
<path d="M27.3111 33.5569C27.3111 35.2398 25.9469 36.6041 24.264 36.6041C22.5811 36.6041 21.2168 35.2398 21.2168 33.5569C21.2168 31.874 22.5811 30.5098 24.264 30.5098C25.9469 30.5098 27.3111 31.874 27.3111 33.5569ZM22.7665 33.5569C22.7665 34.3839 23.4369 35.0544 24.264 35.0544C25.091 35.0544 25.7614 34.3839 25.7614 33.5569C25.7614 32.7299 25.091 32.0595 24.264 32.0595C23.4369 32.0595 22.7665 32.7299 22.7665 33.5569Z" fill="#68BCFF"/>
<path d="M9.225 53.2645H9.6975C9.8875 53.2645 10.045 53.2395 10.17 53.1895C10.295 53.1345 10.4025 53.0495 10.4925 52.9345L13.485 49.147C13.61 48.987 13.74 48.877 13.875 48.817C14.015 48.752 14.19 48.7195 14.4 48.7195H16.14L12.4875 53.227C12.2725 53.502 12.05 53.697 11.82 53.812C11.985 53.872 12.1325 53.957 12.2625 54.067C12.3975 54.172 12.525 54.312 12.645 54.487L16.41 59.5645H14.6325C14.3925 59.5645 14.2125 59.532 14.0925 59.467C13.9775 59.397 13.88 59.297 13.8 59.167L10.7325 55.162C10.6375 55.027 10.5275 54.932 10.4025 54.877C10.2775 54.822 10.0975 54.7945 9.8625 54.7945H9.225V59.5645H7.2075V48.7195H9.225V53.2645ZM20.0466 51.7495C20.6166 51.7495 21.1341 51.842 21.5991 52.027C22.0691 52.212 22.4691 52.4745 22.7991 52.8145C23.1341 53.1545 23.3916 53.5695 23.5716 54.0595C23.7516 54.5495 23.8416 55.097 23.8416 55.702C23.8416 56.312 23.7516 56.862 23.5716 57.352C23.3916 57.842 23.1341 58.2595 22.7991 58.6045C22.4691 58.9495 22.0691 59.2145 21.5991 59.3995C21.1341 59.5845 20.6166 59.677 20.0466 59.677C19.4716 59.677 18.9491 59.5845 18.4791 59.3995C18.0091 59.2145 17.6066 58.9495 17.2716 58.6045C16.9416 58.2595 16.6841 57.842 16.4991 57.352C16.3191 56.862 16.2291 56.312 16.2291 55.702C16.2291 55.097 16.3191 54.5495 16.4991 54.0595C16.6841 53.5695 16.9416 53.1545 17.2716 52.8145C17.6066 52.4745 18.0091 52.212 18.4791 52.027C18.9491 51.842 19.4716 51.7495 20.0466 51.7495ZM20.0466 58.252C20.6866 58.252 21.1591 58.037 21.4641 57.607C21.7741 57.177 21.9291 56.547 21.9291 55.717C21.9291 54.887 21.7741 54.2545 21.4641 53.8195C21.1591 53.3845 20.6866 53.167 20.0466 53.167C19.3966 53.167 18.9141 53.387 18.5991 53.827C18.2891 54.262 18.1341 54.892 18.1341 55.717C18.1341 56.542 18.2891 57.172 18.5991 57.607C18.9141 58.037 19.3966 58.252 20.0466 58.252ZM30.0848 53.8345C29.8748 53.5795 29.6448 53.3995 29.3948 53.2945C29.1498 53.1895 28.8848 53.137 28.5998 53.137C28.3198 53.137 28.0673 53.1895 27.8423 53.2945C27.6173 53.3995 27.4248 53.5595 27.2648 53.7745C27.1048 53.9845 26.9823 54.2545 26.8973 54.5845C26.8123 54.9095 26.7698 55.2945 26.7698 55.7395C26.7698 56.1895 26.8048 56.572 26.8748 56.887C26.9498 57.197 27.0548 57.452 27.1898 57.652C27.3248 57.847 27.4898 57.9895 27.6848 58.0795C27.8798 58.1645 28.0973 58.207 28.3373 58.207C28.7223 58.207 29.0498 58.127 29.3198 57.967C29.5898 57.807 29.8448 57.5795 30.0848 57.2845V53.8345ZM31.9373 48.4195V59.5645H30.8048C30.5598 59.5645 30.4048 59.452 30.3398 59.227L30.1823 58.4845C29.8723 58.8395 29.5148 59.127 29.1098 59.347C28.7098 59.567 28.2423 59.677 27.7073 59.677C27.2873 59.677 26.9023 59.5895 26.5523 59.4145C26.2023 59.2395 25.8998 58.987 25.6448 58.657C25.3948 58.322 25.1998 57.9095 25.0598 57.4195C24.9248 56.9295 24.8573 56.3695 24.8573 55.7395C24.8573 55.1695 24.9348 54.6395 25.0898 54.1495C25.2448 53.6595 25.4673 53.2345 25.7573 52.8745C26.0473 52.5145 26.3948 52.2345 26.7998 52.0345C27.2048 51.8295 27.6598 51.727 28.1648 51.727C28.5948 51.727 28.9623 51.7945 29.2673 51.9295C29.5723 52.0645 29.8448 52.247 30.0848 52.477V48.4195H31.9373ZM40.3956 51.8695V59.5645H39.2631C39.0181 59.5645 38.8631 59.452 38.7981 59.227L38.6706 58.612C38.3556 58.932 38.0081 59.192 37.6281 59.392C37.2481 59.587 36.8006 59.6845 36.2856 59.6845C35.8656 59.6845 35.4931 59.6145 35.1681 59.4745C34.8481 59.3295 34.5781 59.127 34.3581 58.867C34.1381 58.607 33.9706 58.2995 33.8556 57.9445C33.7456 57.5845 33.6906 57.1895 33.6906 56.7595V51.8695H35.5431V56.7595C35.5431 57.2295 35.6506 57.5945 35.8656 57.8545C36.0856 58.1095 36.4131 58.237 36.8481 58.237C37.1681 58.237 37.4681 58.167 37.7481 58.027C38.0281 57.882 38.2931 57.6845 38.5431 57.4345V51.8695H40.3956ZM44.0849 48.4195V54.802H44.4299C44.5549 54.802 44.6524 54.787 44.7224 54.757C44.7974 54.722 44.8724 54.6545 44.9474 54.5545L46.8599 52.192C46.9399 52.087 47.0274 52.007 47.1224 51.952C47.2224 51.897 47.3499 51.8695 47.5049 51.8695H49.1999L46.8074 54.727C46.6374 54.952 46.4524 55.1245 46.2524 55.2445C46.3574 55.3195 46.4499 55.407 46.5299 55.507C46.6149 55.607 46.6949 55.7145 46.7699 55.8295L49.3349 59.5645H47.6624C47.5174 59.5645 47.3924 59.542 47.2874 59.497C47.1824 59.447 47.0949 59.3595 47.0249 59.2345L45.0599 56.317C44.9899 56.202 44.9174 56.127 44.8424 56.092C44.7674 56.057 44.6549 56.0395 44.5049 56.0395H44.0849V59.5645H42.2324V48.4195H44.0849ZM52.0976 48.4195V54.802H52.4426C52.5676 54.802 52.6651 54.787 52.7351 54.757C52.8101 54.722 52.8851 54.6545 52.9601 54.5545L54.8726 52.192C54.9526 52.087 55.0401 52.007 55.1351 51.952C55.2351 51.897 55.3626 51.8695 55.5176 51.8695H57.2126L54.8201 54.727C54.6501 54.952 54.4651 55.1245 54.2651 55.2445C54.3701 55.3195 54.4626 55.407 54.5426 55.507C54.6276 55.607 54.7076 55.7145 54.7826 55.8295L57.3476 59.5645H55.6751C55.5301 59.5645 55.4051 59.542 55.3001 59.497C55.1951 59.447 55.1076 59.3595 55.0376 59.2345L53.0726 56.317C53.0026 56.202 52.9301 56.127 52.8551 56.092C52.7801 56.057 52.6676 56.0395 52.5176 56.0395H52.0976V59.5645H50.2451V48.4195H52.0976ZM64.8878 51.8695V59.5645H63.7553C63.5103 59.5645 63.3553 59.452 63.2903 59.227L63.1628 58.612C62.8478 58.932 62.5003 59.192 62.1203 59.392C61.7403 59.587 61.2928 59.6845 60.7778 59.6845C60.3578 59.6845 59.9853 59.6145 59.6603 59.4745C59.3403 59.3295 59.0703 59.127 58.8503 58.867C58.6303 58.607 58.4628 58.2995 58.3478 57.9445C58.2378 57.5845 58.1828 57.1895 58.1828 56.7595V51.8695H60.0353V56.7595C60.0353 57.2295 60.1428 57.5945 60.3578 57.8545C60.5778 58.1095 60.9053 58.237 61.3403 58.237C61.6603 58.237 61.9603 58.167 62.2403 58.027C62.5203 57.882 62.7853 57.6845 63.0353 57.4345V51.8695H64.8878Z" fill="#68BCFF"/>
</svg>
