<svg width="100" height="100" viewBox="0 0 100 100" fill="none" xmlns="http://www.w3.org/2000/svg">
<g filter="url(#filter0_b_1280_16450)">
<circle cx="50" cy="50" r="50" fill="#07C271" fill-opacity="0.2"/>
</g>
<circle cx="50" cy="50" r="34" fill="#07C271"/>
<g clip-path="url(#clip0_1280_16450)">
<path d="M42.9153 64.8754C41.7799 64.8759 40.6909 64.4246 39.8888 63.621L30.7384 54.4741C29.7539 53.4892 29.7539 51.8927 30.7384 50.9078C31.7233 49.9232 33.3198 49.9232 34.3047 50.9078L42.9153 59.5184L65.6953 36.7384C66.6802 35.7539 68.2767 35.7539 69.2616 36.7384C70.2461 37.7233 70.2461 39.3198 69.2616 40.3047L45.9419 63.621C45.1397 64.4246 44.0507 64.8759 42.9153 64.8754Z" fill="white" fill-opacity="0.95"/>
</g>
<defs>
<filter id="filter0_b_1280_16450" x="-4" y="-4" width="108" height="108" filterUnits="userSpaceOnUse" color-interpolation-filters="sRGB">
<feFlood flood-opacity="0" result="BackgroundImageFix"/>
<feGaussianBlur in="BackgroundImageFix" stdDeviation="2"/>
<feComposite in2="SourceAlpha" operator="in" result="effect1_backgroundBlur_1280_16450"/>
<feBlend mode="normal" in="SourceGraphic" in2="effect1_backgroundBlur_1280_16450" result="shape"/>
</filter>
<clipPath id="clip0_1280_16450">
<rect width="40" height="40" fill="white" transform="translate(30 30)"/>
</clipPath>
</defs>
</svg>
