<svg width="20" height="20" viewBox="0 0 20 20" fill="none" xmlns="http://www.w3.org/2000/svg">
<path d="M11.7969 4.99709L16.875 4.99709C17.0408 4.99709 17.1997 4.93124 17.3169 4.81403C17.4342 4.69682 17.5 4.53785 17.5 4.37209C17.5 4.20633 17.4342 4.04736 17.3169 3.93015C17.1997 3.81294 17.0408 3.74709 16.875 3.74709L11.7969 3.74709C11.6592 3.20933 11.3464 2.73269 10.9079 2.39231C10.4694 2.05194 9.93011 1.86719 9.375 1.86719C8.81989 1.86719 8.28057 2.05194 7.84207 2.39231C7.40356 2.73269 7.09081 3.20933 6.95312 3.74709L3.125 3.74709C2.95924 3.74709 2.80027 3.81294 2.68306 3.93015C2.56585 4.04736 2.5 4.20633 2.5 4.37209C2.5 4.53785 2.56585 4.69682 2.68306 4.81403C2.80027 4.93124 2.95924 4.99709 3.125 4.99709L6.95312 4.99709C7.09081 5.53485 7.40356 6.01149 7.84207 6.35186C8.28057 6.69224 8.81989 6.87699 9.375 6.87699C9.93011 6.87699 10.4694 6.69224 10.9079 6.35186C11.3464 6.01149 11.6592 5.53485 11.7969 4.99709ZM8.125 4.37209C8.125 4.12486 8.19831 3.88319 8.33566 3.67763C8.47301 3.47207 8.66824 3.31185 8.89665 3.21724C9.12505 3.12263 9.37639 3.09788 9.61886 3.14611C9.86134 3.19434 10.0841 3.31339 10.2589 3.48821C10.4337 3.66302 10.5528 3.88575 10.601 4.12823C10.6492 4.3707 10.6245 4.62204 10.5298 4.85044C10.4352 5.07885 10.275 5.27407 10.0695 5.41143C9.8639 5.54878 9.62223 5.62209 9.375 5.62209C9.04348 5.62209 8.72554 5.49039 8.49112 5.25597C8.2567 5.02155 8.125 4.70361 8.125 4.37209ZM15.5469 10.6221L16.875 10.6221C17.0408 10.6221 17.1997 10.5562 17.3169 10.439C17.4342 10.3218 17.5 10.1628 17.5 9.99709C17.5 9.83133 17.4342 9.67236 17.3169 9.55515C17.1997 9.43794 17.0408 9.37209 16.875 9.37209L15.5469 9.37209C15.4092 8.83433 15.0964 8.35769 14.6579 8.01731C14.2194 7.67694 13.6801 7.49219 13.125 7.49219C12.5699 7.49219 12.0306 7.67694 11.5921 8.01731C11.1536 8.35769 10.8408 8.83433 10.7031 9.37209L3.125 9.37209C2.95924 9.37209 2.80027 9.43794 2.68306 9.55515C2.56585 9.67236 2.5 9.83133 2.5 9.99709C2.5 10.1628 2.56585 10.3218 2.68306 10.439C2.80027 10.5562 2.95924 10.6221 3.125 10.6221L10.7031 10.6221C10.8408 11.1598 11.1536 11.6365 11.5921 11.9769C12.0306 12.3172 12.5699 12.502 13.125 12.502C13.6801 12.502 14.2194 12.3172 14.6579 11.9769C15.0964 11.6365 15.4092 11.1598 15.5469 10.6221ZM11.875 9.99709C11.875 9.74986 11.9483 9.50819 12.0857 9.30263C12.223 9.09707 12.4182 8.93685 12.6466 8.84224C12.8751 8.74763 13.1264 8.72288 13.3689 8.77111C13.6113 8.81934 13.8341 8.93839 14.0089 9.11321C14.1837 9.28802 14.3027 9.51075 14.351 9.75323C14.3992 9.9957 14.3745 10.247 14.2798 10.4754C14.1852 10.7039 14.025 10.8991 13.8195 11.0364C13.6139 11.1738 13.3722 11.2471 13.125 11.2471C12.7935 11.2471 12.4755 11.1154 12.2411 10.881C12.0067 10.6466 11.875 10.3286 11.875 9.99709ZM6.875 18.1221C7.42925 18.1216 7.96767 17.9372 8.40593 17.5979C8.84419 17.2586 9.15753 16.7835 9.29687 16.2471L16.875 16.2471C17.0408 16.2471 17.1997 16.1812 17.3169 16.064C17.4342 15.9468 17.5 15.7878 17.5 15.6221C17.5 15.4563 17.4342 15.2974 17.3169 15.1801C17.1997 15.0629 17.0408 14.9971 16.875 14.9971L9.29687 14.9971C9.15919 14.4593 8.84644 13.9827 8.40793 13.6423C7.96942 13.3019 7.43011 13.1172 6.875 13.1172C6.31989 13.1172 5.78057 13.3019 5.34207 13.6423C4.90356 13.9827 4.59081 14.4593 4.45312 14.9971L3.125 14.9971C2.95924 14.9971 2.80027 15.0629 2.68306 15.1801C2.56585 15.2974 2.5 15.4563 2.5 15.6221C2.5 15.7878 2.56585 15.9468 2.68306 16.064C2.80027 16.1812 2.95924 16.2471 3.125 16.2471L4.45312 16.2471C4.59246 16.7835 4.9058 17.2586 5.34406 17.5979C5.78232 17.9372 6.32075 18.1216 6.875 18.1221ZM5.625 15.6221C5.625 15.3749 5.69831 15.1332 5.83566 14.9276C5.97301 14.7221 6.16824 14.5618 6.39664 14.4672C6.62505 14.3726 6.87639 14.3479 7.11886 14.3961C7.36134 14.4443 7.58407 14.5634 7.75888 14.7382C7.9337 14.913 8.05275 15.1357 8.10098 15.3782C8.14921 15.6207 8.12446 15.872 8.02985 16.1004C7.93524 16.3289 7.77502 16.5241 7.56946 16.6614C7.3639 16.7988 7.12223 16.8721 6.875 16.8721C6.54348 16.8721 6.22554 16.7404 5.99112 16.506C5.7567 16.2716 5.625 15.9536 5.625 15.6221Z" fill="#2196F3"/>
</svg>
