<svg width="26" height="26" viewBox="0 0 26 26" fill="none" xmlns="http://www.w3.org/2000/svg">
<path d="M21.4768 16.7816L17.2378 14.4185C17.0454 14.3154 16.8303 14.2619 16.612 14.2628C16.3937 14.2638 16.1791 14.3192 15.9876 14.424C15.9682 14.4342 15.9496 14.4457 15.9319 14.4586L13.4544 16.2182C13.4294 16.2291 13.4021 16.2341 13.3748 16.2327C13.3474 16.2313 13.3208 16.2235 13.297 16.2101C11.8775 15.365 10.4756 13.7047 9.88521 12.1802C9.87539 12.1548 9.87152 12.1274 9.8739 12.1002C9.87628 12.073 9.88484 12.0467 9.89894 12.0233L12.071 9.86063C12.0866 9.84459 12.1013 9.82765 12.1149 9.8099C12.2498 9.63866 12.3399 9.43653 12.3771 9.22176C12.4143 9.00698 12.3974 8.78633 12.3279 8.57972L10.7501 4.00356C10.6613 3.73381 10.4875 3.50012 10.2547 3.33756C10.0218 3.175 9.74254 3.09233 9.45874 3.10198C8.22426 3.15567 7.05157 3.65702 6.15981 4.51235C5.26805 5.36767 4.71824 6.51843 4.61312 7.7496C3.97346 15.0623 9.40222 21.5319 16.7149 22.1715C17.9456 22.2815 19.1742 21.9398 20.1714 21.2101C21.1685 20.4804 21.8659 19.4127 22.1332 18.2064C22.1918 17.9299 22.1596 17.6418 22.0413 17.3851C21.923 17.1284 21.725 16.9167 21.4768 16.7816ZM16.813 21.0508C10.1185 20.4652 5.14826 14.5421 5.73384 7.84763C5.81454 6.88908 6.24148 5.99269 6.93488 5.32596C7.62828 4.65922 8.54071 4.26775 9.50169 4.22468L9.52317 4.22656C9.56075 4.23056 9.59624 4.24581 9.62499 4.27032C9.65375 4.29484 9.67442 4.32747 9.68431 4.36394L11.2701 8.93607C11.2792 8.96152 11.2826 8.98863 11.2803 9.01555C11.2779 9.04247 11.2698 9.06856 11.2564 9.09204L9.08015 11.26C9.06398 11.2754 9.049 11.2921 9.03533 11.3097C8.89549 11.4873 8.80386 11.6979 8.76932 11.9213C8.73478 12.1446 8.7585 12.3731 8.83818 12.5846C9.51822 14.3531 11.079 16.1986 12.7212 17.177C12.9169 17.2918 13.139 17.3538 13.3658 17.3572C13.5926 17.3605 13.8164 17.305 14.0154 17.1961C14.0342 17.1855 14.0531 17.174 14.0711 17.1615L16.5476 15.4018C16.5715 15.3916 16.5972 15.3866 16.6232 15.3872C16.6491 15.3879 16.6746 15.3941 16.6979 15.4055L20.9378 17.7687C20.9725 17.7872 21.0005 17.8161 21.0178 17.8514C21.0352 17.8867 21.041 17.9266 21.0344 17.9654C20.8258 18.9048 20.2823 19.7361 19.5053 20.3039C18.7284 20.8717 17.7714 21.1372 16.813 21.0508Z" fill="url(#paint0_linear_766_55180)"/>
<defs>
<linearGradient id="paint0_linear_766_55180" x1="14.2064" y1="3.50761" x2="12.6053" y2="21.812" gradientUnits="userSpaceOnUse">
<stop stop-color="#2196F3"/>
<stop offset="1" stop-color="#D16AE2"/>
</linearGradient>
</defs>
</svg>
