<svg width="48" height="48" viewBox="0 0 48 48" fill="none" xmlns="http://www.w3.org/2000/svg">
<circle cx="24" cy="24" r="24" fill="#EFF5FC"/>
<path d="M34.7075 17.2925L27.7075 10.2925C27.6146 10.1997 27.5042 10.1261 27.3829 10.0759C27.2615 10.0257 27.1314 9.9999 27 10H15C14.4696 10 13.9609 10.2107 13.5858 10.5858C13.2107 10.9609 13 11.4696 13 12V34C13 34.5304 13.2107 35.0391 13.5858 35.4142C13.9609 35.7893 14.4696 36 15 36H33C33.5304 36 34.0391 35.7893 34.4142 35.4142C34.7893 35.0391 35 34.5304 35 34V18C35.0001 17.8686 34.9743 17.7385 34.9241 17.6172C34.8739 17.4958 34.8003 17.3854 34.7075 17.2925ZM28 13.4138L31.5863 17H28V13.4138ZM33 34H15V12H26V18C26 18.2652 26.1054 18.5196 26.2929 18.7071C26.4804 18.8946 26.7348 19 27 19H33V34Z" fill="#2196F3"/>
</svg>
