<svg width="24" height="24" viewBox="0 0 24 24" fill="none" xmlns="http://www.w3.org/2000/svg">
<g clip-path="url(#clip0_766_55141)">
<path d="M7.80479 1.30312C7.24229 1.5 6.84385 1.85156 6.59542 2.38125L6.44542 2.69531L6.43135 3.73594L6.41729 4.78125H3.84854C2.21729 4.78125 1.18135 4.8 1.00792 4.83281C0.548541 4.91718 0.225103 5.18906 0.0704158 5.62031C0.00947831 5.79844 0.000103316 6.43125 0.000103316 10.4484C0.000103316 15.5391 -0.0139592 15.3094 0.286041 15.6703C0.365728 15.7687 0.511041 15.8906 0.614166 15.9375L0.796978 16.0312V18.8719C0.796978 20.7141 0.815728 21.7781 0.848541 21.9047C0.923541 22.2094 1.17198 22.5141 1.45792 22.6594L1.70635 22.7812H12.0001H22.2939L22.5423 22.6594C22.8282 22.5141 23.0767 22.2094 23.1517 21.9047C23.1845 21.7781 23.2032 20.7141 23.2032 18.8719V16.0312L23.386 15.9375C23.4892 15.8906 23.6345 15.7687 23.7142 15.6703C24.0142 15.3094 24.0001 15.5391 24.0001 10.4484C24.0001 6.43125 23.9907 5.79844 23.9298 5.62031C23.7751 5.18906 23.4517 4.91718 22.9923 4.83281C22.8189 4.8 21.7829 4.78125 20.1517 4.78125H17.5829L17.5689 3.73594L17.5548 2.69062L17.3814 2.33906C17.1657 1.90312 16.8564 1.59843 16.4157 1.39219L16.1017 1.24218L12.0704 1.23281C8.33917 1.22343 8.02042 1.22812 7.80479 1.30312ZM16.0782 2.11406C16.3595 2.24062 16.5376 2.41406 16.6689 2.69531C16.7767 2.91562 16.7814 2.98125 16.7814 3.85312V4.78125H16.3829H15.9845V3.91406C15.9845 3.05156 15.9845 3.04218 15.8673 2.92969L15.7548 2.8125H12.0001H8.24542L8.13292 2.92969C8.01573 3.04218 8.01573 3.05156 8.01573 3.91406V4.78125H7.61729H7.21885V3.85312C7.21885 3.02344 7.23292 2.90625 7.31729 2.71875C7.44385 2.4375 7.61729 2.25937 7.89854 2.12812L8.13292 2.01562H12.0001C15.7876 2.01562 15.872 2.02031 16.0782 2.11406ZM15.1876 4.19531V4.78125H12.0001H8.8126V4.19531V3.60937H12.0001H15.1876V4.19531ZM22.8845 5.62968C23.222 5.71875 23.2032 5.43281 23.2032 10.4531C23.2032 15.4734 23.222 15.1875 22.8845 15.2812C22.7017 15.3328 13.8798 16.5469 13.7017 16.5469C13.5985 16.5469 13.5939 16.5281 13.5939 16.1766C13.5939 15.5859 13.4064 15.2062 12.9892 14.9625C12.7782 14.8406 12.7548 14.8359 12.0001 14.8359C11.2454 14.8359 11.222 14.8406 11.011 14.9625C10.5939 15.2062 10.4064 15.5859 10.4064 16.1766C10.4064 16.5281 10.4017 16.5469 10.3032 16.5469C10.1204 16.5469 1.29854 15.3328 1.11573 15.2812C0.778228 15.1875 0.796978 15.4734 0.796978 10.4531C0.796978 5.475 0.782916 5.71875 1.09229 5.62968C1.3126 5.56875 22.6595 5.56406 22.8845 5.62968ZM12.6751 15.7312L12.797 15.8578V17.1609C12.797 18.5437 12.7829 18.6516 12.5767 18.7453C12.4314 18.8109 11.5689 18.8109 11.4235 18.7453C11.2173 18.6516 11.2032 18.5437 11.2032 17.1609V15.8578L11.3251 15.7312C11.447 15.6141 11.4704 15.6094 12.0001 15.6094C12.5298 15.6094 12.5532 15.6141 12.6751 15.7312ZM6.02354 16.7812C8.29229 17.0906 10.2048 17.3578 10.2751 17.3719L10.4017 17.3953L10.4157 18.0609C10.4298 18.7969 10.4814 18.9609 10.7579 19.2422C11.0532 19.5328 11.1939 19.5703 12.0001 19.5703C12.8064 19.5703 12.947 19.5328 13.2423 19.2422C13.5189 18.9609 13.5704 18.7969 13.5845 18.0609L13.5985 17.3953L13.7251 17.3719C13.7954 17.3578 15.7079 17.0906 17.9767 16.7812C20.2454 16.4719 22.172 16.2047 22.2564 16.1906L22.4064 16.1625V18.9141C22.4064 21.7359 22.4017 21.7875 22.2235 21.9234C22.1157 22.0078 1.88448 22.0078 1.77667 21.9234C1.59854 21.7875 1.59385 21.7359 1.59385 18.9141V16.1625L1.74854 16.1906C1.82823 16.2047 3.75479 16.4719 6.02354 16.7812Z" fill="url(#paint0_linear_766_55141)"/>
</g>
<defs>
<linearGradient id="paint0_linear_766_55141" x1="12.0001" y1="22.7812" x2="12.0001" y2="1.22926" gradientUnits="userSpaceOnUse">
<stop stop-color="#2196F3"/>
<stop offset="1" stop-color="#D16AE2"/>
</linearGradient>
<clipPath id="clip0_766_55141">
<rect width="24" height="24" fill="white"/>
</clipPath>
</defs>
</svg>
