<svg width="24" height="24" viewBox="0 0 24 24" fill="none" xmlns="http://www.w3.org/2000/svg">
<path d="M10.9688 1.29465C8.53125 1.58058 6.49219 2.49465 4.70625 4.10715L4.275 4.5009L4.25625 3.87277C4.24219 3.32434 4.22813 3.2259 4.14375 3.1134C3.96094 2.86496 3.81094 2.78996 3.51562 2.78996C3.22031 2.78996 3.07031 2.86496 2.8875 3.1134C2.79375 3.23996 2.78906 3.29621 2.78906 4.92277C2.78906 6.55402 2.79375 6.60559 2.8875 6.73684C2.93906 6.80715 3.05625 6.91496 3.14062 6.97121C3.29531 7.07902 3.31406 7.07902 4.90781 7.07902C6.30469 7.07902 6.54844 7.06965 6.68438 7.00402C6.91875 6.89152 7.04531 6.68527 7.06875 6.38059C7.09219 6.05246 6.96563 5.84152 6.65625 5.68215C6.47344 5.59309 6.375 5.57902 5.8875 5.57902H5.325L5.65781 5.27434C6.45938 4.54309 7.03125 4.14933 7.94531 3.70402C8.65781 3.35715 9.09375 3.19777 9.79219 3.02433C10.6266 2.81808 10.9031 2.78996 12 2.78996C13.0969 2.78996 13.3734 2.81808 14.2078 3.02433C14.8828 3.19308 15.3328 3.35715 16.0078 3.68058C18.525 4.88527 20.325 7.12121 20.9953 9.86809C21.1359 10.454 21.1922 10.8478 21.2297 11.5603C21.2719 12.3243 21.3375 12.4978 21.6703 12.6618C22.0172 12.84 22.3875 12.7275 22.6359 12.3712C22.7438 12.2165 22.7438 12.1931 22.7203 11.4853C22.6875 10.6462 22.6078 10.1118 22.3828 9.25871C21.9047 7.42121 20.9484 5.76184 19.5938 4.40715C17.9953 2.80871 15.9844 1.77746 13.6875 1.37902C13.2609 1.30871 11.3719 1.24777 10.9688 1.29465Z" fill="#8B8B8B"/>
<path d="M11.1328 5.30185C8.24063 5.69092 5.93906 7.8706 5.35781 10.7675C5.23594 11.3862 5.24531 12.7128 5.38125 13.3222C5.68594 14.7144 6.27188 15.7925 7.2375 16.7628C8.20781 17.7284 9.28594 18.3144 10.6781 18.619C11.3344 18.7644 12.6656 18.7644 13.3219 18.619C14.7141 18.3144 15.7875 17.7331 16.7578 16.7581C17.7328 15.7878 18.3141 14.7097 18.6187 13.3222C18.7547 12.7175 18.7641 11.4378 18.6422 10.805C18.1078 8.0581 16.0688 5.97217 13.3453 5.38623C12.8391 5.27842 11.6391 5.23154 11.1328 5.30185ZM12.4125 8.37685C12.4781 8.42373 12.5766 8.52685 12.6281 8.59717C12.7219 8.71904 12.7266 8.79873 12.7406 9.98467L12.7547 11.2456L13.7578 11.2597C14.6859 11.2737 14.7703 11.2784 14.8922 11.3722C15.3516 11.7144 15.3516 12.2862 14.8922 12.6284C14.7609 12.7222 14.7094 12.7269 13.2422 12.7269C11.7844 12.7269 11.7188 12.7222 11.5969 12.6284C11.5266 12.5769 11.4234 12.4737 11.3719 12.4034C11.2781 12.2815 11.2734 12.2065 11.2594 10.6269C11.25 9.71748 11.2594 8.91123 11.2734 8.82685C11.3063 8.63935 11.5031 8.40029 11.6953 8.31592C11.8828 8.22685 12.2578 8.25967 12.4125 8.37685Z" fill="#8B8B8B"/>
<path d="M1.73433 11.3022C1.58433 11.3631 1.41558 11.5225 1.3312 11.6818C1.19995 11.9303 1.28433 13.3365 1.4812 14.2271C2.10933 17.049 3.7312 19.4209 6.10777 20.9865C9.22495 23.0443 13.3125 23.3115 16.664 21.6803C17.6718 21.1928 18.3843 20.7053 19.2703 19.9131L19.725 19.5053L19.7437 20.1334C19.7578 20.6771 19.7718 20.7756 19.8562 20.8881C20.039 21.1365 20.189 21.2115 20.4843 21.2115C20.7796 21.2115 20.9296 21.1365 21.1125 20.8881C21.2062 20.7615 21.2109 20.7053 21.2109 19.0787C21.2109 17.4475 21.2062 17.3959 21.1125 17.2646C21.0609 17.1943 20.9437 17.0865 20.8593 17.0256C20.7046 16.9225 20.6859 16.9225 19.0921 16.9225C17.6953 16.9225 17.4515 16.9318 17.3156 16.9975C17.0812 17.11 16.9546 17.3162 16.9312 17.6209C16.9078 17.949 17.0343 18.16 17.3437 18.3146C17.5218 18.4084 17.625 18.4225 18.1171 18.4225L18.6796 18.4271L18.4218 18.6615C17.2828 19.6975 16.139 20.3771 14.8593 20.7896C13.7484 21.1459 12.9234 21.2584 11.7 21.2209C10.2796 21.1787 9.25308 20.9303 7.99214 20.3209C6.06089 19.3881 4.57495 17.8975 3.6562 15.9756C3.10777 14.8225 2.84058 13.7537 2.77027 12.4459C2.73745 11.874 2.7187 11.7522 2.62964 11.6068C2.44683 11.3115 2.04839 11.1803 1.73433 11.3022Z" fill="#8B8B8B"/>
</svg>
