<svg width="24" height="24" viewBox="0 0 24 24" fill="none" xmlns="http://www.w3.org/2000/svg">
<path d="M22.4999 8.27085C22.4623 9.57646 21.9254 10.8179 20.9999 11.7396L17.7421 14.9993C17.2676 15.4764 16.7032 15.8546 16.0816 16.1121C15.4599 16.3695 14.7934 16.5012 14.1205 16.4993H14.1159C13.4315 16.4988 12.7542 16.3612 12.124 16.0945C11.4937 15.8279 10.9233 15.4376 10.4464 14.9468C9.96946 14.456 9.59575 13.8746 9.34732 13.237C9.09888 12.5993 8.98076 11.9184 8.99992 11.2343C9.00552 11.0354 9.0899 10.8468 9.23451 10.7101C9.37912 10.5734 9.57211 10.4998 9.77102 10.5054C9.96993 10.511 10.1585 10.5954 10.2952 10.74C10.4319 10.8846 10.5055 11.0776 10.4999 11.2765C10.4863 11.7602 10.5697 12.2417 10.7453 12.6926C10.9209 13.1434 11.1851 13.5546 11.5223 13.9016C11.8594 14.2487 12.2628 14.5246 12.7084 14.7131C13.154 14.9017 13.6329 14.999 14.1168 14.9993C14.5925 15.0005 15.0636 14.9074 15.5031 14.7254C15.9426 14.5434 16.3416 14.2761 16.6771 13.939L19.9349 10.6812C20.6071 10.0005 20.9827 9.08164 20.9797 8.12507C20.9767 7.16851 20.5953 6.25197 19.9189 5.57558C19.2425 4.89918 18.326 4.51786 17.3694 4.51486C16.4129 4.51187 15.494 4.88745 14.8134 5.5596L13.7821 6.59085C13.6403 6.72556 13.4515 6.79956 13.2559 6.79705C13.0604 6.79455 12.8735 6.71575 12.7352 6.57745C12.5969 6.43914 12.5181 6.25229 12.5156 6.05672C12.5131 5.86115 12.5871 5.67233 12.7218 5.53054L13.753 4.49929C14.2288 4.02335 14.7937 3.6458 15.4154 3.38821C16.0371 3.13063 16.7035 2.99805 17.3765 2.99805C18.0495 2.99805 18.7158 3.13063 19.3375 3.38821C19.9593 3.6458 20.5241 4.02335 20.9999 4.49929C21.4927 4.99331 21.8798 5.58245 22.1377 6.23084C22.3956 6.87923 22.5188 7.57332 22.4999 8.27085ZM10.2187 17.4049L9.18742 18.4362C8.85107 18.7748 8.45077 19.0431 8.00978 19.2256C7.5688 19.4081 7.09593 19.5012 6.61867 19.4993C5.90271 19.4987 5.20298 19.2859 4.60789 18.8878C4.01281 18.4897 3.54907 17.9242 3.27528 17.2626C3.00149 16.6011 2.92993 15.8732 3.06965 15.171C3.20936 14.4688 3.55407 13.8238 4.06024 13.3174L7.31242 10.0596C7.82466 9.54466 8.4799 9.19564 9.19304 9.05787C9.90618 8.9201 10.6443 8.99994 11.3115 9.28703C11.9786 9.57412 12.5441 10.0552 12.9343 10.6678C13.3246 11.2803 13.5217 11.9961 13.4999 12.7221C13.4943 12.921 13.568 13.114 13.7047 13.2586C13.8414 13.4032 14.0299 13.4876 14.2288 13.4932C14.4277 13.4988 14.6207 13.4251 14.7653 13.2884C14.9099 13.1517 14.9943 12.9632 14.9999 12.7643C15.0179 12.0678 14.8943 11.375 14.6364 10.7278C14.3786 10.0806 13.9919 9.49254 13.4999 8.99929C12.5392 8.03894 11.2363 7.49945 9.87789 7.49945C8.51946 7.49945 7.21663 8.03894 6.25586 8.99929L2.99992 12.2571C2.28389 12.9728 1.7961 13.8848 1.59818 14.8777C1.40027 15.8706 1.50113 16.8998 1.888 17.8354C2.27488 18.771 2.93041 19.5709 3.77176 20.134C4.61311 20.6972 5.60251 20.9983 6.61492 20.9993C7.28793 21.0012 7.95463 20.8696 8.57644 20.6122C9.19824 20.3547 9.7628 19.9764 10.2374 19.4993L11.2687 18.468C11.39 18.3251 11.4535 18.1418 11.4464 17.9544C11.4393 17.767 11.3623 17.589 11.2305 17.4556C11.0988 17.3222 10.9218 17.243 10.7345 17.2336C10.5472 17.2242 10.3631 17.2853 10.2187 17.4049Z" fill="url(#paint0_linear_766_55184)"/>
<defs>
<linearGradient id="paint0_linear_766_55184" x1="12.0006" y1="2.99805" x2="12.0006" y2="20.9993" gradientUnits="userSpaceOnUse">
<stop stop-color="#2196F3"/>
<stop offset="1" stop-color="#D16AE2"/>
</linearGradient>
</defs>
</svg>
