<svg width="24" height="24" viewBox="0 0 24 24" fill="none" xmlns="http://www.w3.org/2000/svg">
<g clip-path="url(#clip0_766_55150)">
<path d="M11.1105 0.0502529C7.83391 0.429939 5.11985 2.78775 4.29016 5.97525C3.9386 7.32994 3.96204 8.92838 4.34641 10.2643C4.81048 11.8815 5.58391 13.1284 8.1761 16.4284C8.68235 17.0706 9.09485 17.6143 9.09485 17.6284C9.09485 17.6471 8.98704 17.6753 8.8511 17.6893C7.63235 17.8534 5.9636 18.4346 5.1761 18.9737C4.78235 19.2409 4.33235 19.7284 4.18235 20.0471C4.07454 20.2768 4.05579 20.3799 4.05579 20.7174C4.06048 21.2237 4.19173 21.5331 4.58079 21.9409C5.24641 22.644 6.26829 23.1456 7.80579 23.5253C9.14641 23.8581 10.2433 23.9753 12.0245 23.9706C13.487 23.9706 14.2324 23.9143 15.3292 23.7174C17.6495 23.2956 19.337 22.419 19.8199 21.3878C19.923 21.1628 19.9417 21.0503 19.9464 20.7174C19.9464 20.2065 19.8152 19.9018 19.398 19.4659C19.0464 19.1003 18.7417 18.8846 18.1417 18.5846C17.4292 18.2237 16.0136 17.8018 15.1558 17.6893C15.0199 17.6753 14.9074 17.6471 14.9074 17.6284C14.9074 17.6143 15.4277 16.9393 16.0558 16.1284C18.1652 13.4331 18.9011 12.294 19.4355 10.9206C19.7964 9.97369 19.9464 9.12994 19.9417 7.99088C19.9417 7.0065 19.8714 6.50494 19.637 5.70338C18.5402 2.01431 14.9167 -0.385685 11.1105 0.0502529ZM13.3839 1.07681C15.8495 1.59713 17.8511 3.35025 18.648 5.694C18.9245 6.50025 19.0042 7.0065 19.0042 7.96744C19.0089 9.27525 18.798 10.1471 18.1933 11.3659C17.612 12.5424 17.1667 13.1799 14.9167 16.0721C14.1058 17.1128 13.1261 18.3878 12.7417 18.9081C12.3574 19.4237 12.0245 19.8503 12.0011 19.8503C11.9824 19.8503 11.5839 19.3393 11.1199 18.7206C10.6558 18.0971 9.77454 16.9487 9.16048 16.1659C6.9761 13.3768 6.32454 12.4487 5.79016 11.3706C5.44798 10.6768 5.25579 10.1331 5.10579 9.42057C4.9511 8.70338 4.9511 7.31588 5.10579 6.60807C5.57454 4.41432 6.88704 2.69869 8.86048 1.69088C9.5636 1.32994 10.3183 1.10025 11.1574 0.983065C11.6542 0.912752 12.8495 0.964315 13.3839 1.07681ZM10.5386 19.5081C10.9464 20.0565 11.3683 20.6378 11.4808 20.7924C11.7386 21.1674 11.9636 21.2706 12.2214 21.1253C12.2777 21.0924 12.587 20.7081 12.9011 20.2721C13.2199 19.8315 13.6464 19.2549 13.848 18.9878L14.2136 18.5049L14.4808 18.5378C15.0339 18.6034 16.1589 18.8518 16.7261 19.0346C17.9308 19.4284 18.8449 20.0284 18.9902 20.5206C19.3605 21.7956 15.887 23.0612 12.0011 23.0612C9.02454 23.0612 6.20266 22.3299 5.26516 21.3128C4.85266 20.8674 4.88079 20.5018 5.3636 20.0378C5.99641 19.4284 7.31829 18.9128 9.03391 18.6128C9.84954 18.4674 9.69485 18.3737 10.5386 19.5081Z" fill="url(#paint0_linear_766_55150)"/>
<path d="M11.8174 1.93818C11.3956 2.17256 11.5831 2.81006 12.0752 2.81006C12.2534 2.81006 12.5159 2.5335 12.5159 2.34131C12.5159 2.2335 12.4737 2.14443 12.3565 2.03193C12.1831 1.8585 12.0143 1.83037 11.8174 1.93818Z" fill="url(#paint1_linear_766_55150)"/>
<path d="M13.5853 2.33797C13.4587 2.45047 13.4306 2.50672 13.4306 2.66141C13.4306 2.90047 13.5665 3.05047 13.8665 3.16297C15.0337 3.59422 16.1259 4.61609 16.665 5.77859C16.9603 6.41141 17.1572 7.27391 17.1572 7.90672C17.1572 8.13641 17.1759 8.18328 17.3165 8.32391C17.5369 8.54422 17.7197 8.53953 17.94 8.31922L18.1087 8.15047L18.0806 7.64891C17.9634 5.60984 16.8759 3.80047 15.1275 2.74109C14.7009 2.48328 14.0494 2.20203 13.8665 2.20203C13.7869 2.20203 13.6744 2.25828 13.5853 2.33797Z" fill="url(#paint2_linear_766_55150)"/>
<path d="M11.3197 4.76181C10.8088 4.86025 10.1807 5.19306 9.76819 5.58681C8.68537 6.61806 8.41819 8.08525 9.07444 9.42119C9.25725 9.7915 9.36506 9.93681 9.69787 10.2696C10.0307 10.6024 10.176 10.7103 10.5463 10.8931C11.5119 11.3665 12.4729 11.3665 13.4526 10.8884C13.8229 10.7103 13.9635 10.6071 14.301 10.2696C14.6385 9.93213 14.7416 9.7915 14.9197 9.42119C15.3979 8.4415 15.3979 7.49463 14.9197 6.51494C14.7416 6.14463 14.6385 6.004 14.301 5.6665C13.9682 5.33369 13.8229 5.22588 13.4526 5.04306C12.7588 4.70556 12.0744 4.61181 11.3197 4.76181ZM12.4776 5.67588C12.9088 5.76494 13.3072 5.98525 13.6447 6.32275C14.5776 7.25556 14.5776 8.68056 13.6447 9.61338C13.3119 9.9415 12.9979 10.1243 12.5385 10.2415C11.1135 10.6071 9.65569 9.45869 9.65569 7.96806C9.65569 6.91338 10.4244 5.93838 11.451 5.68994C11.7604 5.61494 12.1635 5.61025 12.4776 5.67588Z" fill="url(#paint3_linear_766_55150)"/>
</g>
<defs>
<linearGradient id="paint0_linear_766_55150" x1="11.994" y1="23.9707" x2="11.994" y2="-0.000730515" gradientUnits="userSpaceOnUse">
<stop stop-color="#2196F3"/>
<stop offset="1" stop-color="#D16AE2"/>
</linearGradient>
<linearGradient id="paint1_linear_766_55150" x1="12.0498" y1="2.81006" x2="12.0498" y2="1.87463" gradientUnits="userSpaceOnUse">
<stop stop-color="#2196F3"/>
<stop offset="1" stop-color="#D16AE2"/>
</linearGradient>
<linearGradient id="paint2_linear_766_55150" x1="15.7697" y1="8.48682" x2="15.7697" y2="2.20203" gradientUnits="userSpaceOnUse">
<stop stop-color="#2196F3"/>
<stop offset="1" stop-color="#D16AE2"/>
</linearGradient>
<linearGradient id="paint3_linear_766_55150" x1="11.999" y1="11.2476" x2="11.999" y2="4.69258" gradientUnits="userSpaceOnUse">
<stop stop-color="#2196F3"/>
<stop offset="1" stop-color="#D16AE2"/>
</linearGradient>
<clipPath id="clip0_766_55150">
<rect width="24" height="24" fill="white"/>
</clipPath>
</defs>
</svg>
