<svg width="24" height="24" viewBox="0 0 24 24" fill="none" xmlns="http://www.w3.org/2000/svg">
<path d="M11.5266 0.435937C11.0578 0.567187 10.6219 0.9375 10.3875 1.39219C10.3219 1.52344 10.2235 1.64531 10.1485 1.67812C10.0688 1.71562 9.73597 1.73437 9.16409 1.73437H8.29691L8.14691 1.87031L7.99222 2.00625L7.97816 2.9625C7.95941 4.05 7.98753 4.22344 8.21722 4.35937C8.36253 4.44844 8.47972 4.45312 12 4.45312C15.5203 4.45312 15.6375 4.44844 15.7828 4.35937C16.0125 4.22344 16.0407 4.05 16.0219 2.9625L16.0078 2.00625L15.8532 1.87031L15.7032 1.73437H14.836C14.2782 1.73437 13.9313 1.71562 13.8516 1.67812C13.786 1.65 13.6641 1.50469 13.5703 1.33594C13.3735 0.984375 13.0594 0.684375 12.7219 0.529687C12.4078 0.389062 11.8547 0.342187 11.5266 0.435937Z" fill="#2196F3"/>
<path d="M3.6516 2.41406C3.40785 2.49375 3.14535 2.72343 3.03285 2.96718C2.95785 3.12187 2.95316 3.85312 2.96254 13.0453L2.9766 22.9594L3.11722 23.1656C3.21097 23.2969 3.34691 23.4094 3.51097 23.4984L3.76879 23.625H12H20.2313L20.4891 23.4984C20.6532 23.4094 20.7891 23.2969 20.8828 23.1656L21.0235 22.9594L21.0375 13.0453C21.0469 1.99218 21.0797 2.98594 20.7282 2.64375C20.4375 2.3625 20.2922 2.34375 18.436 2.34375H16.7813V2.88281V3.42187H17.9907C18.675 3.42187 19.2703 3.44531 19.3688 3.46875C19.5797 3.52968 19.8047 3.70781 19.9125 3.90937C19.9875 4.04531 19.9922 4.64062 19.9922 12.9844V21.9141L19.8844 22.1016C19.8235 22.2047 19.7016 22.3453 19.6078 22.4062L19.4344 22.5234H12H4.56566L4.39222 22.4062C4.29847 22.3453 4.1766 22.2047 4.11566 22.1016L4.00785 21.9141V12.9844C4.00785 4.64062 4.01254 4.04531 4.08754 3.90937C4.19535 3.70781 4.42035 3.52968 4.63129 3.46875C4.72972 3.44531 5.32504 3.42187 6.0141 3.42187H7.21879V2.88281V2.34375L5.54535 2.34843C4.24222 2.34843 3.82035 2.36718 3.6516 2.41406Z" fill="#2196F3"/>
<path d="M4.79063 4.22812C4.74844 4.27031 4.73438 6.27656 4.73438 12.9656C4.73438 17.7422 4.74844 21.6797 4.7625 21.7219C4.79063 21.7922 5.47031 21.7969 12 21.7969C18.5297 21.7969 19.2094 21.7922 19.2375 21.7219C19.2516 21.6797 19.2656 17.7422 19.2656 12.9656C19.2656 6.27656 19.2516 4.27031 19.2094 4.22812C19.1672 4.18594 18.825 4.17188 17.9531 4.17188H16.7578L16.6781 4.39687C16.5797 4.67344 16.3219 4.95 16.0359 5.08125C15.8203 5.17969 15.7922 5.17969 12 5.17969C8.20781 5.17969 8.17969 5.17969 7.96406 5.08125C7.67813 4.95 7.42031 4.67344 7.32188 4.39687L7.24219 4.17188H6.04688C5.175 4.17188 4.83281 4.18594 4.79063 4.22812ZM8.625 6.67969C8.69063 6.7125 8.79844 6.80156 8.86875 6.87656C9.36563 7.40156 9 8.29219 8.28281 8.30625C8.17031 8.30625 8.02969 8.29219 7.96406 8.27344C7.64062 8.175 7.35938 7.79531 7.35938 7.45312C7.35938 7.11094 7.66406 6.69375 7.95938 6.62812C8.02969 6.61406 8.10938 6.59531 8.13281 6.58594C8.20781 6.5625 8.49844 6.61875 8.625 6.67969ZM17.0109 6.98906C17.0906 7.01719 17.1797 7.07812 17.2031 7.125C17.2781 7.27031 17.2547 7.49531 17.1563 7.59375C17.0625 7.6875 17.0016 7.6875 14.2078 7.6875C11.4891 7.6875 11.3484 7.68281 11.2453 7.59844C11.0391 7.42969 11.1422 7.02187 11.4094 6.97031C11.6531 6.92344 16.8656 6.9375 17.0109 6.98906ZM8.78906 8.52656C9.32812 8.71875 9.77813 9.20156 9.89531 9.72656C9.98906 10.1484 10.0781 10.125 8.22188 10.125C6.66094 10.125 6.60938 10.1203 6.5625 10.0312C6.45938 9.83906 6.675 9.31875 6.99844 8.96719C7.43906 8.48906 8.17031 8.31094 8.78906 8.52656ZM17.1281 9.14531C17.2219 9.22031 17.25 9.28125 17.25 9.42187C17.25 9.5625 17.2219 9.62344 17.1281 9.69844C17.0063 9.79688 16.9641 9.79688 14.1938 9.79688H11.3813L11.2453 9.66094C11.1 9.51094 11.0813 9.42656 11.1656 9.26719C11.2828 9.04687 11.2078 9.05156 14.1844 9.04687C16.9641 9.04687 17.0063 9.04687 17.1281 9.14531ZM8.62031 11.6156C8.99531 11.8031 9.18281 12.2672 9.05156 12.6703C8.97656 12.8859 8.68125 13.1531 8.4375 13.2188C7.69219 13.4203 7.07812 12.5484 7.51406 11.9016C7.74375 11.5641 8.25938 11.4281 8.62031 11.6156ZM17.1563 12C17.2781 12.1219 17.2781 12.375 17.1609 12.5203L17.0719 12.6328H14.2031H11.3344L11.2172 12.4969C11.0813 12.3328 11.0953 12.1219 11.2547 11.9859C11.3484 11.9109 11.5594 11.9062 14.2078 11.9062C17.0016 11.9062 17.0625 11.9062 17.1563 12ZM8.93906 13.5187C9.43594 13.7437 9.83906 14.2547 9.91875 14.7656C9.97031 15.0891 9.95156 15.0937 8.21719 15.0937C6.76875 15.0937 6.69844 15.0891 6.60938 15C6.50156 14.8922 6.51563 14.7281 6.67969 14.3625C6.87188 13.9266 7.26562 13.5797 7.74844 13.425C8.0625 13.3219 8.59219 13.3641 8.93906 13.5187ZM17.1281 14.0672C17.2875 14.1937 17.2969 14.4516 17.1469 14.6109L17.0484 14.7187H14.2219C12.6703 14.7187 11.3625 14.7047 11.3203 14.6906C11.2359 14.6578 11.1094 14.4328 11.1094 14.3203C11.1094 14.2781 11.1703 14.1797 11.2453 14.1047L11.3813 13.9687H14.1938C16.9641 13.9687 17.0063 13.9687 17.1281 14.0672ZM8.59219 16.5281C8.80313 16.6359 8.90156 16.7344 9.00469 16.9312C9.2625 17.4375 8.92969 18.075 8.3625 18.1687C7.81406 18.2531 7.29375 17.7328 7.37813 17.1937C7.46719 16.6312 8.10469 16.2844 8.59219 16.5281ZM17.1422 16.9312C17.2969 17.0766 17.2922 17.3531 17.1281 17.4797C17.0063 17.5781 16.9641 17.5781 14.1938 17.5781H11.3813L11.2453 17.4422C11.1703 17.3672 11.1094 17.2687 11.1094 17.2266C11.1094 17.1234 11.2359 16.8891 11.3063 16.8609C11.3391 16.8469 12.6422 16.8328 14.1984 16.8328L17.0344 16.8281L17.1422 16.9312ZM8.92969 18.4406C9.40781 18.6562 9.83906 19.2 9.91875 19.6687C9.975 20.0203 10.0031 20.0156 8.23125 20.0156C6.77813 20.0156 6.66563 20.0109 6.59063 19.9312C6.50156 19.8281 6.525 19.65 6.66563 19.3125C7.02656 18.4687 8.09063 18.0562 8.92969 18.4406ZM17.1609 19.0266C17.2828 19.1766 17.2781 19.425 17.1469 19.5469C17.0484 19.6406 16.9969 19.6406 14.2031 19.6406C11.0859 19.6406 11.1984 19.65 11.1328 19.3594C11.0953 19.1906 11.1984 19.0031 11.3578 18.9375C11.4141 18.9141 12.6984 18.9 14.2641 18.9047L17.0719 18.9141L17.1609 19.0266Z" fill="#2196F3"/>
</svg>
