<svg width="22" height="19" viewBox="0 0 22 19" fill="none" xmlns="http://www.w3.org/2000/svg">
<path d="M20.5544 0.235416C19.3873 0.84543 17.5428 2.00302 16.3372 2.88201C13.9211 4.64 11.7645 6.71982 10.2515 8.7612C9.64624 9.57295 9.1515 10.3511 8.74803 11.1148L8.44062 11.6864L8.24849 11.4654C8.13802 11.3406 7.43674 10.5288 6.68263 9.65941C5.92852 8.79002 5.25126 8.04071 5.1696 7.99748C5.03991 7.93024 4.77573 7.92063 2.63348 7.93504L0.236653 7.94945L0.121375 8.08394C-0.0659525 8.30489 -0.037133 8.54025 0.212637 8.82845C0.323112 8.95814 2.46537 11.2829 4.97267 13.992C7.63367 16.8691 9.5838 18.9393 9.66065 18.9729C9.85278 19.0498 10.1218 18.9585 10.2082 18.7904C10.2418 18.7184 10.3619 18.3245 10.4724 17.9162C11.7693 13.1082 14.4159 8.26647 17.9559 4.21732C18.7004 3.36714 20.0501 2.00302 20.8138 1.33536C21.1741 1.02315 21.4815 0.730152 21.4959 0.691727C21.5391 0.576448 21.5295 0.341087 21.4767 0.235416C21.419 0.134548 21.1885 5.72205e-05 21.0732 5.72205e-05C21.03 5.72205e-05 20.7994 0.105728 20.5544 0.235416Z" fill="#2196F3"/>
</svg>
