<svg width="22" height="22" viewBox="0 0 22 22" fill="none" xmlns="http://www.w3.org/2000/svg">
<path d="M3.97891 1.26835C3.53203 1.44882 3.21836 1.77109 3.05508 2.21366L2.96484 2.45429L2.97344 10.6055L2.98633 18.7566L3.11094 19.0101C3.36445 19.5301 3.87578 19.8738 4.45586 19.9254C4.8125 19.9555 5.11758 19.8781 5.44844 19.6719C5.57305 19.5945 6.86211 18.6449 8.31445 17.5621C9.9 16.3848 10.9914 15.5984 11.0516 15.5984C11.1074 15.5984 12.2246 16.4062 13.8703 17.6437C15.3742 18.7695 16.6891 19.732 16.7965 19.7793C17.2219 19.9684 17.8535 19.9168 18.266 19.659C18.5023 19.5086 18.8074 19.1434 18.9148 18.8726L19.0137 18.6277V10.5281V2.42851L18.9148 2.17929C18.7816 1.85273 18.4164 1.45741 18.0984 1.30273L17.8535 1.18241L11.043 1.17382L4.23242 1.16093L3.97891 1.26835ZM17.6258 2.60898C17.6988 2.67343 17.7031 2.97851 17.7031 10.5324C17.7031 17.4676 17.6945 18.3914 17.6387 18.4516C17.4625 18.6234 17.5141 18.6578 14.6652 16.518C13.1613 15.3922 11.8207 14.4168 11.6918 14.3566C11.4855 14.2621 11.3953 14.2449 11.043 14.2449C10.6906 14.2449 10.6004 14.2621 10.3984 14.3566C10.2695 14.4168 8.92891 15.3879 7.425 16.518C5.9168 17.6437 4.64492 18.5633 4.59766 18.5633C4.55039 18.5633 4.47305 18.5246 4.42578 18.4773C4.33984 18.3914 4.33984 18.3355 4.33984 10.5582C4.33984 3.5414 4.34844 2.7164 4.40859 2.63046L4.47305 2.53593H11.0086C17.0328 2.53593 17.5527 2.54023 17.6258 2.60898Z" fill="#1877F2"/>
</svg>
