<svg width="22" height="22" viewBox="0 0 22 22" fill="none" xmlns="http://www.w3.org/2000/svg">
<path d="M10.9656 18.8746C6.63437 18.8746 3.09375 15.334 3.09375 11.0027C3.09375 6.67148 6.63437 3.13086 10.9656 3.13086C15.2969 3.13086 18.8375 6.67148 18.8375 11.0027C18.8719 15.334 15.3312 18.8746 10.9656 18.8746ZM10.9656 3.95586C7.08125 3.95586 3.95313 7.11835 3.95313 10.9684C3.95313 14.8184 7.11562 17.9809 10.9656 17.9809C14.8156 17.9809 17.9781 14.8184 17.9781 10.9684C17.9781 7.11835 14.85 3.95586 10.9656 3.95586Z" fill="url(#paint0_linear_522_7567)"/>
<path d="M13.4414 15.0254L10.5195 12.1035V6.77539H11.4476V11.7254L14.0945 14.3723L13.4414 15.0254Z" fill="url(#paint1_linear_522_7567)"/>
<defs>
<linearGradient id="paint0_linear_522_7567" x1="10.9657" y1="3.13086" x2="10.9657" y2="18.8746" gradientUnits="userSpaceOnUse">
<stop stop-color="#2196F3"/>
<stop offset="1" stop-color="#D16AE2"/>
</linearGradient>
<linearGradient id="paint1_linear_522_7567" x1="12.307" y1="6.77539" x2="12.307" y2="15.0254" gradientUnits="userSpaceOnUse">
<stop stop-color="#2196F3"/>
<stop offset="1" stop-color="#D16AE2"/>
</linearGradient>
</defs>
</svg>
