<svg width="24" height="24" viewBox="0 0 24 24" fill="none" xmlns="http://www.w3.org/2000/svg">
<path d="M15.9372 14.1436C15.562 14.1435 15.1907 14.2151 14.8451 14.3541C14.4995 14.4932 14.1868 14.6969 13.9253 14.9531L10.6847 12.9692C10.9396 12.3466 10.9396 11.6555 10.6847 11.0329L13.9253 9.04904C14.4121 9.52396 15.0667 9.80981 15.7621 9.85118C16.4576 9.89254 17.1444 9.68646 17.6894 9.2729C18.2344 8.85934 18.5988 8.26776 18.7118 7.61285C18.8249 6.95795 18.6787 6.28637 18.3015 5.72833C17.9242 5.1703 17.3429 4.76555 16.6702 4.59257C15.9974 4.41958 15.2812 4.49069 14.6604 4.7921C14.0396 5.0935 13.5584 5.60374 13.3101 6.22388C13.0618 6.84402 13.0641 7.52988 13.3166 8.1485L10.076 10.1324C9.68576 9.75077 9.18492 9.48869 8.63751 9.37962C8.09009 9.27055 7.52095 9.31945 7.00286 9.52007C6.48477 9.72068 6.04126 10.0639 5.72902 10.5058C5.41678 10.9478 5.25 11.4684 5.25 12.0011C5.25 12.5338 5.41678 13.0544 5.72902 13.4963C6.04126 13.9382 6.48477 14.2815 7.00286 14.4821C7.52095 14.6827 8.09009 14.7316 8.63751 14.6225C9.18492 14.5135 9.68576 14.2514 10.076 13.8698L13.3166 15.8536C13.0995 16.387 13.0674 16.9725 13.2249 17.5244C13.3825 18.0764 13.7214 18.5658 14.1921 18.921C14.6628 19.2762 15.2405 19.4786 15.8407 19.4984C16.4409 19.5182 17.0319 19.3545 17.5274 19.0312C18.0228 18.708 18.3965 18.2421 18.5939 17.7019C18.7912 17.1616 18.8018 16.5754 18.624 16.029C18.4462 15.4827 18.0895 15.0049 17.606 14.6656C17.1225 14.3263 16.5377 14.1434 15.9372 14.1436ZM15.9372 5.57342C16.2708 5.57342 16.597 5.66766 16.8745 5.84423C17.1519 6.0208 17.3681 6.27177 17.4958 6.56539C17.6235 6.85902 17.6569 7.18212 17.5918 7.49383C17.5267 7.80554 17.366 8.09186 17.1301 8.31659C16.8942 8.54132 16.5936 8.69437 16.2663 8.75637C15.939 8.81837 15.5998 8.78655 15.2915 8.66493C14.9833 8.5433 14.7198 8.33734 14.5344 8.07309C14.349 7.80883 14.2501 7.49815 14.2501 7.18033C14.2501 6.75415 14.4278 6.34543 14.7442 6.04407C15.0606 5.74272 15.4897 5.57342 15.9372 5.57342ZM8.06415 13.608C7.73048 13.608 7.4043 13.5137 7.12687 13.3372C6.84943 13.1606 6.63319 12.9096 6.5055 12.616C6.37781 12.3224 6.3444 11.9993 6.4095 11.6876C6.47459 11.3759 6.63527 11.0895 6.87121 10.8648C7.10716 10.6401 7.40776 10.487 7.73502 10.425C8.06228 10.363 8.4015 10.3949 8.70977 10.5165C9.01804 10.6381 9.28153 10.8441 9.4669 11.1083C9.65228 11.3726 9.75123 11.6833 9.75123 12.0011C9.75123 12.4273 9.57348 12.836 9.2571 13.1373C8.94071 13.4387 8.51159 13.608 8.06415 13.608ZM15.9372 18.4287C15.6035 18.4287 15.2773 18.3345 14.9999 18.1579C14.7224 17.9813 14.5062 17.7304 14.3785 17.4368C14.2508 17.1431 14.2174 16.82 14.2825 16.5083C14.3476 16.1966 14.5083 15.9103 14.7442 15.6856C14.9802 15.4608 15.2808 15.3078 15.608 15.2458C15.9353 15.1838 16.2745 15.2156 16.5828 15.3372C16.8911 15.4588 17.1545 15.6648 17.3399 15.9291C17.5253 16.1933 17.6242 16.504 17.6242 16.8218C17.6242 17.248 17.4465 17.6567 17.1301 17.9581C16.8137 18.2594 16.3846 18.4287 15.9372 18.4287Z" fill="#2196F3"/>
</svg>
