<svg width="18" height="18" viewBox="0 0 18 18" fill="none" xmlns="http://www.w3.org/2000/svg">
<path d="M15.1875 2.8125H2.8125C2.51413 2.8125 2.22798 2.93103 2.017 3.142C1.80603 3.35298 1.6875 3.63913 1.6875 3.9375V14.0625C1.6875 14.3609 1.80603 14.647 2.017 14.858C2.22798 15.069 2.51413 15.1875 2.8125 15.1875H15.1875C15.4859 15.1875 15.772 15.069 15.983 14.858C16.194 14.647 16.3125 14.3609 16.3125 14.0625V3.9375C16.3125 3.63913 16.194 3.35298 15.983 3.142C15.772 2.93103 15.4859 2.8125 15.1875 2.8125ZM15.1875 8.4375H11.8125V3.9375H15.1875V8.4375ZM2.8125 3.9375H10.6875V14.0625H2.8125V3.9375ZM15.1875 14.0625H11.8125V9.5625H15.1875V14.0625ZM12.6562 6.1875C12.6562 6.02062 12.7057 5.85749 12.7984 5.71874C12.8912 5.57998 13.0229 5.47184 13.1771 5.40798C13.3313 5.34412 13.5009 5.32741 13.6646 5.35996C13.8283 5.39252 13.9786 5.47288 14.0966 5.59088C14.2146 5.70888 14.295 5.85922 14.3275 6.02289C14.3601 6.18656 14.3434 6.35621 14.2795 6.51039C14.2157 6.66456 14.1075 6.79634 13.9688 6.88905C13.83 6.98177 13.6669 7.03125 13.5 7.03125C13.2762 7.03125 13.0616 6.94236 12.9034 6.78412C12.7451 6.62589 12.6562 6.41128 12.6562 6.1875ZM14.3438 11.8125C14.3438 11.9794 14.2943 12.1425 14.2016 12.2813C14.1088 12.42 13.9771 12.5282 13.8229 12.592C13.6687 12.6559 13.4991 12.6726 13.3354 12.64C13.1717 12.6075 13.0214 12.5271 12.9034 12.4091C12.7854 12.2911 12.705 12.1408 12.6725 11.9771C12.6399 11.8134 12.6566 11.6438 12.7205 11.4896C12.7843 11.3354 12.8925 11.2037 13.0312 11.1109C13.17 11.0182 13.3331 10.9688 13.5 10.9688C13.7238 10.9688 13.9384 11.0576 14.0966 11.2159C14.2549 11.3741 14.3438 11.5887 14.3438 11.8125ZM9.54492 11.6719C9.3629 10.9922 8.9313 10.4062 8.33625 10.0308C8.65226 9.71665 8.86788 9.31576 8.95578 8.87894C9.04368 8.44212 8.99991 7.98903 8.83001 7.57712C8.6601 7.16521 8.37172 6.81301 8.00142 6.56519C7.63112 6.31736 7.19558 6.18506 6.75 6.18506C6.30442 6.18506 5.86888 6.31736 5.49858 6.56519C5.12828 6.81301 4.8399 7.16521 4.66999 7.57712C4.50009 7.98903 4.45632 8.44212 4.54422 8.87894C4.63212 9.31576 4.84774 9.71665 5.16375 10.0308C4.56909 10.4066 4.13761 10.9925 3.95508 11.6719C3.91778 11.8164 3.93942 11.9698 4.01525 12.0984C4.09107 12.2269 4.21485 12.3201 4.35938 12.3574C4.5039 12.3947 4.65732 12.3731 4.78588 12.2973C4.91445 12.2214 5.00763 12.0976 5.04492 11.9531C5.23055 11.2324 5.9632 10.6875 6.75 10.6875C7.5368 10.6875 8.27016 11.231 8.45508 11.9531C8.49237 12.0976 8.58555 12.2214 8.71412 12.2973C8.84268 12.3731 8.9961 12.3947 9.14062 12.3574C9.28515 12.3201 9.40893 12.2269 9.48475 12.0984C9.56058 11.9698 9.58222 11.8164 9.54492 11.6719ZM5.625 8.4375C5.625 8.215 5.69098 7.99749 5.8146 7.81248C5.93821 7.62748 6.11391 7.48328 6.31948 7.39814C6.52505 7.31299 6.75125 7.29071 6.96948 7.33412C7.18771 7.37752 7.38816 7.48467 7.5455 7.642C7.70283 7.79934 7.80998 7.99979 7.85338 8.21802C7.89679 8.43625 7.87451 8.66245 7.78936 8.86802C7.70422 9.07359 7.56002 9.24929 7.37502 9.3729C7.19001 9.49652 6.9725 9.5625 6.75 9.5625C6.45163 9.5625 6.16548 9.44397 5.9545 9.233C5.74353 9.02202 5.625 8.73587 5.625 8.4375Z" fill="#9554FF"/>
</svg>
