<svg width="24" height="24" viewBox="0 0 24 24" fill="none" xmlns="http://www.w3.org/2000/svg">
<path d="M10.2049 0.796879C8.23615 1.00313 6.27209 1.84219 4.7299 3.13125C2.20803 5.24532 0.867401 8.5125 1.17209 11.7891C1.33615 13.5422 1.91271 15.1078 2.98146 16.7109C4.18615 18.5297 4.75803 20.2453 4.86115 22.3875C4.88928 22.9781 4.89865 23.0438 4.99709 23.1422L5.1049 23.25H9.93771H14.7705L14.883 23.1328C15.0002 23.0203 15.0002 23.0063 15.0002 22.1953V21.375H17.3205H19.6455L19.758 21.2578L19.8752 21.1453V18.8203V16.5H21.0705H22.2705L22.383 16.3828C22.4487 16.3219 22.5002 16.2281 22.5002 16.1766C22.5002 16.1203 22.2471 14.9016 21.9424 13.4672C21.5112 11.4375 21.3799 10.7344 21.3565 10.3359C21.1643 7.08282 19.4627 4.13438 16.758 2.38125C15.6002 1.62657 14.2877 1.12032 12.919 0.885941C12.2674 0.773441 10.8658 0.731253 10.2049 0.796879ZM12.1924 1.54688C13.2987 1.65938 14.3815 1.96875 15.3612 2.45625C16.3174 2.92969 16.983 3.39844 17.7377 4.125C19.4674 5.78906 20.4705 7.98281 20.6065 10.3969C20.6299 10.8375 20.733 11.4 21.1268 13.2422C21.394 14.5031 21.6237 15.5859 21.6424 15.6422L21.6658 15.75H20.5127H19.3549L19.2424 15.8672L19.1252 15.9797V18.3047V20.625H16.1252H13.1252V21V21.375H13.6877H14.2502V21.9375V22.5H9.9424H5.63459L5.60178 22.0922C5.43303 19.9031 4.83303 18.15 3.63771 16.3453C2.46584 14.5734 1.96896 13.1063 1.89396 11.1797C1.8049 8.95313 2.55021 6.73125 3.97053 4.96875C4.30803 4.55157 5.10959 3.76406 5.50803 3.46407C7.43459 1.99219 9.82053 1.30782 12.1924 1.54688Z" fill="#2196F3"/>
<path d="M12.7352 2.61562C12.6134 2.7375 12.5149 2.85938 12.5149 2.88281C12.5149 2.90625 12.6134 3.02344 12.7305 3.14531L12.9462 3.36562L11.104 3.38906C9.4493 3.40781 9.21492 3.41719 8.85868 3.50625C7.64461 3.79688 6.76336 4.28906 5.90086 5.15156C5.2118 5.84062 4.78993 6.49687 4.47586 7.35938C3.96493 8.775 4.03055 10.4437 4.64461 11.7984C4.71493 11.9625 4.78524 12.0938 4.7993 12.0938C4.83211 12.0938 5.4368 11.7609 5.4368 11.7422C5.4368 11.7375 5.37586 11.5969 5.30086 11.4328C5.13211 11.0531 4.9868 10.5328 4.92586 10.0641C4.54618 7.25625 6.5243 4.61719 9.32743 4.19531C9.65086 4.14375 10.2181 4.125 11.3665 4.125H12.9555L12.7352 4.35C12.6134 4.47187 12.5149 4.58906 12.5149 4.60781C12.5149 4.65469 12.9743 5.10937 13.0212 5.10937C13.0446 5.10937 13.3259 4.8375 13.654 4.50937C14.179 3.97969 14.2493 3.88594 14.2493 3.75C14.2493 3.61406 14.179 3.52031 13.654 2.99062C13.3259 2.6625 13.0352 2.39062 13.0071 2.39062C12.979 2.39062 12.8571 2.49375 12.7352 2.61562Z" fill="#2196F3"/>
<path d="M9.63281 5.28086C9.42656 5.31367 9.34688 5.40742 9.17813 5.81523C9.04219 6.15742 9.01406 6.19023 8.83594 6.26055C8.64844 6.33086 8.63438 6.33086 8.28281 6.19023C8.08125 6.11055 7.87031 6.04492 7.80938 6.04492C7.57031 6.04492 6.79688 6.82305 6.79688 7.06211C6.79688 7.12305 6.8625 7.33398 6.94219 7.52617C7.0875 7.86836 7.0875 7.87305 7.00781 8.07461C6.93281 8.2668 6.90938 8.29023 6.5625 8.43086C6.02813 8.65117 6.02344 8.66055 6.02344 9.34492C6.02344 10.0621 6.04688 10.0996 6.55781 10.3105C6.91406 10.4559 6.94219 10.4793 7.0125 10.6668C7.0875 10.8637 7.0875 10.873 6.94219 11.2199C6.8625 11.4121 6.79688 11.623 6.79688 11.684C6.79688 11.923 7.57031 12.7012 7.80938 12.7012C7.87031 12.7012 8.08125 12.6355 8.28281 12.5559C8.63438 12.4152 8.64844 12.4152 8.83594 12.4855C9.01406 12.5559 9.04219 12.5887 9.18281 12.9355C9.38906 13.4465 9.43594 13.4746 10.125 13.4746C10.8141 13.4746 10.8609 13.4465 11.0672 12.9355C11.2125 12.584 11.2359 12.5559 11.4188 12.4855C11.6156 12.4105 11.625 12.4105 11.9719 12.5559C12.1641 12.6355 12.375 12.7012 12.4359 12.7012C12.6797 12.7012 13.4531 11.9277 13.4531 11.684C13.4531 11.623 13.3875 11.4121 13.3078 11.2199C13.1625 10.873 13.1625 10.8637 13.2375 10.6668C13.3078 10.484 13.3359 10.4605 13.6875 10.3152C14.1984 10.109 14.2266 10.0621 14.2266 9.37305C14.2266 8.68867 14.1984 8.63711 13.6922 8.43086C13.3406 8.29023 13.3125 8.2668 13.2422 8.07461C13.1625 7.87305 13.1672 7.86836 13.3078 7.52617C13.3875 7.33398 13.4531 7.12305 13.4531 7.06211C13.4531 6.81836 12.6797 6.04492 12.4359 6.04492C12.375 6.04492 12.1641 6.11055 11.9719 6.19023C11.625 6.33555 11.6156 6.33555 11.4188 6.26055C11.2359 6.19023 11.2125 6.16211 11.0719 5.81523C10.8609 5.3043 10.8375 5.29023 10.2563 5.27149C9.98906 5.26211 9.7125 5.2668 9.63281 5.28086ZM10.5 6.38242L10.6641 6.7668L11.0391 6.92617C11.5641 7.15117 11.6109 7.15117 12.0047 6.98711L12.3516 6.8418L12.5016 6.99648L12.6563 7.14648L12.5109 7.49336C12.3469 7.88711 12.3469 7.93398 12.5719 8.45898L12.7313 8.83398L13.1156 8.99805L13.5 9.16211V9.37305V9.58398L13.1156 9.74805L12.7313 9.91211L12.5719 10.2871C12.3469 10.8121 12.3469 10.859 12.5109 11.2527L12.6563 11.5996L12.5016 11.7496L12.3516 11.9043L12.0047 11.759C11.6109 11.5949 11.5641 11.5949 11.0391 11.8199L10.6641 11.9793L10.5 12.3637L10.3359 12.748H10.125H9.91406L9.75 12.3637L9.58594 11.9793L9.21094 11.8199C8.68594 11.5949 8.63906 11.5949 8.24531 11.759L7.89844 11.9043L7.74844 11.7496L7.59375 11.5996L7.73906 11.2527C7.90313 10.859 7.90313 10.8121 7.67813 10.2871L7.51875 9.91211L7.13438 9.74805L6.75 9.58398V9.37305V9.16211L7.13438 8.99805L7.51875 8.83398L7.67813 8.45898C7.90313 7.93398 7.90313 7.88711 7.73906 7.49336L7.59375 7.14648L7.74844 6.99648L7.89844 6.8418L8.24531 6.98711C8.63906 7.15117 8.68594 7.15117 9.21094 6.92617L9.58594 6.7668L9.75 6.38242L9.91406 5.99805H10.125H10.3359L10.5 6.38242Z" fill="#2196F3"/>
<path d="M9.68438 7.54492C9.38906 7.61992 8.96719 7.87305 8.76094 8.09336C8.65781 8.20586 8.50313 8.44023 8.42344 8.61367C8.2875 8.89961 8.27344 8.96992 8.27344 9.37773C8.27344 9.79961 8.28281 9.8418 8.44688 10.1793C8.65781 10.6059 8.92969 10.8684 9.36563 11.0746C9.65156 11.2105 9.72188 11.2246 10.125 11.2246C10.5281 11.2246 10.5984 11.2105 10.8844 11.0746C11.3203 10.8684 11.5922 10.6059 11.8031 10.1793C11.9672 9.8418 11.9766 9.79961 11.9766 9.37305C11.9766 8.94648 11.9672 8.9043 11.8031 8.5668C11.4844 7.9293 10.9219 7.54961 10.2281 7.5168C10.0313 7.50742 9.7875 7.52148 9.68438 7.54492ZM10.4719 8.3043C10.7297 8.3793 11.1188 8.76836 11.1938 9.02617C11.325 9.4668 11.2313 9.81836 10.8984 10.1465C10.6594 10.3902 10.4203 10.498 10.125 10.498C9.54375 10.498 9 9.9543 9 9.37305C9 9.07773 9.10781 8.83867 9.35156 8.59961C9.67969 8.2668 10.0313 8.17773 10.4719 8.3043Z" fill="#2196F3"/>
<path d="M15.1688 10.8375C15.0984 11.0719 14.9625 11.4141 14.8313 11.6813C14.7422 11.8547 14.6719 12.0188 14.6719 12.0422C14.6719 12.0844 15.2109 12.4219 15.2766 12.4219C15.3469 12.4219 15.8906 11.175 15.8906 11.0109C15.8906 10.9875 15.7688 10.9359 15.6234 10.8938C15.4734 10.8563 15.3141 10.8094 15.2672 10.8C15.225 10.7859 15.1781 10.8047 15.1688 10.8375Z" fill="#2196F3"/>
<path d="M5.55274 12.5402C5.42617 12.634 5.28555 12.7277 5.25274 12.7512C5.16367 12.798 5.42149 13.1449 5.91836 13.6324L6.26055 13.9746L6.5043 13.6887L6.74805 13.4027L6.45274 13.1121C6.28867 12.9527 6.07305 12.723 5.96992 12.5965L5.78711 12.3715L5.55274 12.5402Z" fill="#2196F3"/>
<path d="M13.9875 12.9234C13.8562 13.0734 13.6406 13.2797 13.5094 13.3828C13.3781 13.4859 13.2703 13.5844 13.2656 13.6031C13.2656 13.6547 13.6547 14.1984 13.6969 14.2031C13.7437 14.2031 14.7141 13.2656 14.7656 13.1672C14.8031 13.1016 14.7656 13.0453 14.5406 12.8719C14.3953 12.7547 14.2641 12.6562 14.25 12.6562C14.2359 12.6562 14.1187 12.7781 13.9875 12.9234Z" fill="#2196F3"/>
<path d="M7.11563 14.1141C7.01719 14.2687 6.9375 14.4094 6.9375 14.4328C6.9375 14.5125 8.17031 15.0938 8.33906 15.0938C8.37188 15.0938 8.55469 14.5266 8.55469 14.4187C8.55469 14.3953 8.44688 14.3391 8.31094 14.2922C8.17969 14.25 7.90313 14.1234 7.70156 14.0203C7.5 13.9125 7.32188 13.8281 7.3125 13.8281C7.29844 13.8328 7.20938 13.9594 7.11563 14.1141Z" fill="#2196F3"/>
<path d="M12.3045 14.1434C12.1264 14.2278 11.8311 14.345 11.6576 14.3966C11.4561 14.4575 11.3436 14.5137 11.3576 14.5466C11.367 14.5794 11.4045 14.7247 11.442 14.8794C11.4748 15.0294 11.5264 15.1606 11.5592 15.1747C11.6811 15.2216 12.9842 14.7153 12.9842 14.6262C12.9842 14.5934 12.6654 14.0075 12.642 13.9887C12.6373 13.9841 12.4873 14.0544 12.3045 14.1434Z" fill="#2196F3"/>
<path d="M9.1977 14.9253C9.16958 15.1081 9.15552 15.2675 9.16958 15.2769C9.24458 15.3519 10.4961 15.4081 10.6602 15.3472C10.7211 15.3237 10.7305 15.2675 10.7071 15.0519C10.6602 14.555 10.7352 14.6019 9.9477 14.5972L9.24927 14.5925L9.1977 14.9253Z" fill="#2196F3"/>
<path d="M8.625 21V21.375H9H9.375V21V20.625H9H8.625V21Z" fill="#2196F3"/>
<path d="M10.125 21V21.375H10.5H10.875V21V20.625H10.5H10.125V21Z" fill="#2196F3"/>
<path d="M11.625 21V21.375H12H12.375V21V20.625H12H11.625V21Z" fill="#2196F3"/>
</svg>
