<svg width="25" height="24" viewBox="0 0 25 24" fill="none" xmlns="http://www.w3.org/2000/svg">
<path d="M12.4374 12.75V18.75C12.4374 18.9489 12.3584 19.1397 12.2178 19.2803C12.0771 19.421 11.8863 19.5 11.6874 19.5C11.4885 19.5 11.2978 19.421 11.1571 19.2803C11.0164 19.1397 10.9374 18.9489 10.9374 18.75V14.5613L4.71805 20.7806C4.64837 20.8503 4.56565 20.9056 4.4746 20.9433C4.38356 20.981 4.28597 21.0004 4.18743 21.0004C4.08888 21.0004 3.9913 20.981 3.90026 20.9433C3.80921 20.9056 3.72649 20.8503 3.6568 20.7806C3.58712 20.7109 3.53185 20.6282 3.49413 20.5372C3.45642 20.4461 3.43701 20.3485 3.43701 20.25C3.43701 20.1515 3.45642 20.0539 3.49413 19.9628C3.53185 19.8718 3.58712 19.7891 3.6568 19.7194L9.87618 13.5H5.68743C5.48852 13.5 5.29775 13.421 5.1571 13.2803C5.01645 13.1397 4.93743 12.9489 4.93743 12.75C4.93743 12.5511 5.01645 12.3603 5.1571 12.2197C5.29775 12.079 5.48852 12 5.68743 12H11.6874C11.8863 12 12.0771 12.079 12.2178 12.2197C12.3584 12.3603 12.4374 12.5511 12.4374 12.75ZM19.9374 3H7.93743C7.5396 3 7.15807 3.15804 6.87677 3.43934C6.59546 3.72064 6.43743 4.10218 6.43743 4.5V9C6.43743 9.19891 6.51645 9.38968 6.6571 9.53033C6.79775 9.67098 6.98852 9.75 7.18743 9.75C7.38634 9.75 7.57711 9.67098 7.71776 9.53033C7.85841 9.38968 7.93743 9.19891 7.93743 9V4.5H19.9374V16.5H15.4374C15.2385 16.5 15.0478 16.579 14.9071 16.7197C14.7664 16.8603 14.6874 17.0511 14.6874 17.25C14.6874 17.4489 14.7664 17.6397 14.9071 17.7803C15.0478 17.921 15.2385 18 15.4374 18H19.9374C20.3353 18 20.7168 17.842 20.9981 17.5607C21.2794 17.2794 21.4374 16.8978 21.4374 16.5V4.5C21.4374 4.10218 21.2794 3.72064 20.9981 3.43934C20.7168 3.15804 20.3353 3 19.9374 3Z" fill="#2196F3"/>
</svg>
