<svg width="42" height="42" viewBox="0 0 42 42" fill="none" xmlns="http://www.w3.org/2000/svg">
<path d="M21 38.0625C24.3746 38.0625 27.6735 37.0618 30.4794 35.187C33.2853 33.3121 35.4723 30.6473 36.7637 27.5295C38.0551 24.4118 38.393 20.9811 37.7346 17.6713C37.0763 14.3615 35.4512 11.3212 33.065 8.93499C30.6788 6.54876 27.6385 4.92371 24.3287 4.26535C21.0189 3.60699 17.5882 3.94489 14.4705 5.23631C11.3527 6.52773 8.68789 8.71467 6.81304 11.5206C4.93819 14.3265 3.93749 17.6254 3.93749 21C3.94227 25.5238 5.74146 29.8609 8.94026 33.0597C12.1391 36.2585 16.4762 38.0577 21 38.0625ZM17.4464 15.3661C17.3245 15.2442 17.2277 15.0994 17.1617 14.9401C17.0957 14.7807 17.0618 14.61 17.0618 14.4375C17.0618 14.265 17.0957 14.0943 17.1617 13.9349C17.2277 13.7756 17.3245 13.6308 17.4464 13.5089C17.5683 13.387 17.7131 13.2902 17.8724 13.2242C18.0318 13.1582 18.2025 13.1243 18.375 13.1243C18.5474 13.1243 18.7182 13.1582 18.8775 13.2242C19.0369 13.2902 19.1816 13.387 19.3036 13.5089L25.8661 20.0714C25.9881 20.1933 26.0849 20.3381 26.151 20.4974C26.217 20.6567 26.251 20.8275 26.251 21C26.251 21.1725 26.217 21.3433 26.151 21.5026C26.0849 21.6619 25.9881 21.8067 25.8661 21.9286L19.3036 28.4911C19.1816 28.613 19.0369 28.7098 18.8775 28.7758C18.7182 28.8418 18.5474 28.8757 18.375 28.8757C18.2025 28.8757 18.0318 28.8418 17.8724 28.7758C17.7131 28.7098 17.5683 28.613 17.4464 28.4911C17.3245 28.3691 17.2277 28.2244 17.1617 28.0651C17.0957 27.9057 17.0618 27.735 17.0618 27.5625C17.0618 27.39 17.0957 27.2193 17.1617 27.0599C17.2277 26.9006 17.3245 26.7559 17.4464 26.6339L23.0819 21L17.4464 15.3661Z" fill="#2196F3"/>
</svg>
