<svg width="25" height="24" viewBox="0 0 25 24" fill="none" xmlns="http://www.w3.org/2000/svg">
<path d="M12.1978 2.25C10.2694 2.25 8.38433 2.82183 6.78095 3.89317C5.17757 4.96451 3.92789 6.48726 3.18993 8.26884C2.45198 10.0504 2.2589 12.0108 2.6351 13.9021C3.01131 15.7934 3.93991 17.5307 5.30347 18.8943C6.66703 20.2579 8.40431 21.1865 10.2956 21.5627C12.1869 21.9389 14.1473 21.7458 15.9289 21.0078C17.7105 20.2699 19.2332 19.0202 20.3046 17.4168C21.3759 15.8134 21.9478 13.9284 21.9478 12C21.945 9.41498 20.9169 6.93661 19.089 5.10872C17.2611 3.28084 14.7828 2.25273 12.1978 2.25ZM12.1978 20.25C10.5661 20.25 8.97101 19.7661 7.6143 18.8596C6.2576 17.9531 5.20018 16.6646 4.57575 15.1571C3.95133 13.6496 3.78795 11.9908 4.10628 10.3905C4.42461 8.79016 5.21034 7.32015 6.36413 6.16637C7.51791 5.01259 8.98792 4.22685 10.5883 3.90852C12.1886 3.59019 13.8474 3.75357 15.3549 4.37799C16.8624 5.00242 18.1509 6.05984 19.0574 7.41655C19.9639 8.77325 20.4478 10.3683 20.4478 12C20.4453 14.1873 19.5753 16.2843 18.0286 17.8309C16.482 19.3775 14.385 20.2475 12.1978 20.25ZM18.1978 12C18.1978 12.1989 18.1187 12.3897 17.9781 12.5303C17.8374 12.671 17.6467 12.75 17.4478 12.75H12.1978C11.9988 12.75 11.8081 12.671 11.6674 12.5303C11.5268 12.3897 11.4478 12.1989 11.4478 12V6.75C11.4478 6.55109 11.5268 6.36032 11.6674 6.21967C11.8081 6.07902 11.9988 6 12.1978 6C12.3967 6 12.5874 6.07902 12.7281 6.21967C12.8687 6.36032 12.9478 6.55109 12.9478 6.75V11.25H17.4478C17.6467 11.25 17.8374 11.329 17.9781 11.4697C18.1187 11.6103 18.1978 11.8011 18.1978 12Z" fill="#2196F3"/>
</svg>
