<svg width="24" height="24" viewBox="0 0 24 24" fill="none" xmlns="http://www.w3.org/2000/svg">
<g clip-path="url(#clip0_541_12772)">
<path d="M4.59008 20.239C4.53085 20.3644 4.49129 20.4991 4.48012 20.6438C4.47831 20.6673 4.47728 20.6905 4.47699 20.7135L4.05579 20.7174M4.59008 20.239L4.8923 21.646C4.89193 21.6456 4.89156 21.6452 4.89118 21.6448C4.66096 21.3941 4.47361 21.0862 4.47694 20.7174H4.05579M4.59008 20.239L4.18235 20.0471M4.59008 20.239L7.80579 23.5253C6.26829 23.1456 5.24641 22.644 4.58079 21.9409M4.05579 20.7174C4.05579 20.3799 4.07454 20.2768 4.18235 20.0471M4.05579 20.7174C4.06048 21.2237 4.19173 21.5331 4.58079 21.9409M19.4417 7.96744C19.4417 7.97522 19.4417 7.98303 19.4417 7.99088V7.99294C19.4462 9.07518 19.3056 9.85699 18.9689 10.7408C18.8601 11.0204 18.7424 11.2903 18.6038 11.5687L19.4417 7.96744ZM19.4417 7.96744H19.0042L19.4417 7.96587C19.4406 7.04033 19.3747 6.588 19.1574 5.84459C19.1281 5.74627 19.097 5.64892 19.0639 5.55258L18.648 5.69401L19.4417 7.96744ZM19.4355 10.9206L19.0142 10.7566L19.9417 7.99088C19.9464 9.12994 19.7964 9.97369 19.4355 10.9206ZM19.4355 10.9206C18.9011 12.294 18.1652 13.4331 16.0558 16.1284C15.7348 16.5428 15.4419 16.9217 15.2323 17.1951L19.013 10.7595L19.4355 10.9206ZM4.18235 20.0471L4.59027 20.2386L5.1761 18.9737C4.78235 19.2409 4.33235 19.7284 4.18235 20.0471ZM4.58079 21.9409L4.5808 21.9409L4.58079 21.9409ZM13.848 18.9878C13.6464 19.2549 13.2199 19.8315 12.9011 20.2721L13.848 18.9878ZM13.848 18.9878L14.2136 18.5049L13.848 18.9878ZM10.0932 18.191C9.93042 17.9776 9.7576 17.7521 9.58438 17.5272C9.59034 17.5563 9.59485 17.5908 9.59485 17.6284C9.59485 17.8699 9.43271 18.0017 9.40379 18.025C9.39629 18.0311 9.38885 18.0367 9.38153 18.042C9.40338 18.039 9.42429 18.0364 9.44401 18.0344C9.62026 18.0165 9.82289 18.0271 10.031 18.1506C10.0523 18.1632 10.073 18.1767 10.0932 18.191ZM14.5407 18.0414C14.5716 18.045 14.6041 18.0492 14.6381 18.0539C14.6277 18.047 14.6169 18.0394 14.6061 18.0309L14.6055 18.0305C14.5786 18.0097 14.4074 17.877 14.4074 17.6284C14.4074 17.5922 14.4114 17.5601 14.4163 17.5341C14.2982 17.6873 14.1822 17.8381 14.0705 17.9836L14.2745 18.0087L14.5397 18.0412C14.54 18.0413 14.5404 18.0413 14.5407 18.0414ZM11.1574 0.983065L11.0968 0.555521L11.0976 0.555424L11.1574 0.983065ZM12.074 20.5377C12.1377 20.458 12.2109 20.3635 12.289 20.26C12.2823 20.2646 12.2751 20.2693 12.2674 20.2741C12.2671 20.2743 12.2667 20.2746 12.2661 20.2749C12.2515 20.2842 12.148 20.3503 12.0011 20.3503C11.8785 20.3503 11.7908 20.3047 11.7696 20.2936L11.7694 20.2936C11.7437 20.2802 11.7233 20.2667 11.7096 20.2571C11.7718 20.3424 11.8226 20.4123 11.858 20.4609C11.8684 20.4753 11.8775 20.4878 11.8852 20.4984L11.8853 20.4983L11.8928 20.5092C11.9316 20.5656 11.9648 20.6075 11.9923 20.6381C12.0165 20.6091 12.0438 20.5755 12.074 20.5377ZM11.9009 20.7429C11.8934 20.7497 11.8925 20.7514 11.8998 20.7441C11.9001 20.7437 11.9005 20.7433 11.9009 20.7429Z" fill="#2196F3" stroke="#2196F3"/>
<path d="M11.8172 1.93867C11.3953 2.17305 11.5828 2.81055 12.075 2.81055C12.2531 2.81055 12.5156 2.53398 12.5156 2.3418C12.5156 2.23398 12.4734 2.14492 12.3562 2.03242C12.1828 1.85898 12.0141 1.83086 11.8172 1.93867Z" fill="#2196F3"/>
<path d="M13.5854 2.33748C13.4588 2.44998 13.4307 2.50623 13.4307 2.66092C13.4307 2.89998 13.5666 3.04998 13.8666 3.16248C15.0338 3.59373 16.126 4.61561 16.665 5.77811C16.9604 6.41092 17.1572 7.27342 17.1572 7.90623C17.1572 8.13592 17.176 8.18279 17.3166 8.32342C17.5369 8.54373 17.7197 8.53904 17.94 8.31873L18.1088 8.14998L18.0807 7.64842C17.9635 5.60936 16.876 3.79998 15.1275 2.74061C14.701 2.48279 14.0494 2.20154 13.8666 2.20154C13.7869 2.20154 13.6744 2.25779 13.5854 2.33748Z" fill="#2196F3"/>
<path d="M11.3198 4.7623C10.8089 4.86074 10.1807 5.19355 9.76825 5.5873C8.68544 6.61855 8.41825 8.08574 9.0745 9.42168C9.25731 9.79199 9.36512 9.9373 9.69794 10.2701C10.0307 10.6029 10.1761 10.7107 10.5464 10.8936C11.512 11.367 12.4729 11.367 13.4526 10.8889C13.8229 10.7107 13.9636 10.6076 14.3011 10.2701C14.6386 9.93262 14.7417 9.79199 14.9198 9.42168C15.3979 8.44199 15.3979 7.49512 14.9198 6.51543C14.7417 6.14512 14.6386 6.00449 14.3011 5.66699C13.9682 5.33418 13.8229 5.22637 13.4526 5.04355C12.7589 4.70605 12.0745 4.6123 11.3198 4.7623ZM12.4776 5.67637C12.9089 5.76543 13.3073 5.98574 13.6448 6.32324C14.5776 7.25605 14.5776 8.68105 13.6448 9.61387C13.312 9.94199 12.9979 10.1248 12.5386 10.242C11.1136 10.6076 9.65575 9.45918 9.65575 7.96855C9.65575 6.91387 10.4245 5.93887 11.4511 5.69043C11.7604 5.61543 12.1636 5.61074 12.4776 5.67637Z" fill="#2196F3"/>
</g>
<defs>
<clipPath id="clip0_541_12772">
<rect width="24" height="24" fill="white"/>
</clipPath>
</defs>
</svg>
