<svg width="27" height="27" viewBox="0 0 27 27" fill="none" xmlns="http://www.w3.org/2000/svg">
<g clip-path="url(#clip0_905_3134)">
<path d="M20.6427 18.1597L17.2121 15.3459L17.2027 15.338C17.0235 15.1961 16.8117 15.1011 16.5865 15.0616C16.3613 15.0221 16.1299 15.0393 15.913 15.1118C15.8875 15.1202 15.8625 15.13 15.8382 15.1413L13.3514 16.3129C12.2416 15.3437 11.2779 13.6742 11.0002 12.2429L13.2811 10.6626C13.3033 10.6464 13.3247 10.6299 13.3458 10.6116C13.5153 10.4612 13.6451 10.2711 13.7235 10.0584C13.8019 9.84573 13.8265 9.61694 13.7951 9.39244L13.7978 9.38248L13.107 4.9912C13.0647 4.69755 12.9285 4.42547 12.7188 4.21558C12.5091 4.0057 12.2371 3.86926 11.9435 3.82663C10.7795 3.66872 9.59787 3.93992 8.61922 4.58958C7.64058 5.23923 6.93188 6.22292 6.62549 7.35691C4.83371 13.9417 8.73331 20.7569 15.3181 22.5487C16.451 22.8591 17.6581 22.7466 18.7141 22.232C19.7701 21.7175 20.6026 20.8362 21.0563 19.7527C21.1684 19.4781 21.1886 19.1746 21.1141 18.8875C21.0395 18.6004 20.8742 18.3451 20.6427 18.1597ZM15.6792 21.2218C12.8656 20.4529 10.4719 18.5993 9.02338 16.0677C7.57481 13.5361 7.18965 10.5332 7.9524 7.71797C8.16964 6.90729 8.67455 6.20339 9.37282 5.73775C10.0711 5.2721 10.915 5.07654 11.7469 5.18759C11.7457 5.19081 11.7448 5.19415 11.7442 5.19754L12.4251 9.56924L10.1526 11.1545C10.1298 11.1698 10.1082 11.1869 10.088 11.2055C9.91108 11.3631 9.77786 11.5636 9.70126 11.7878C9.62466 12.012 9.60726 12.2521 9.65076 12.485C9.98397 14.2262 11.1141 16.1842 12.4632 17.3574C12.6437 17.5124 12.8613 17.6179 13.0948 17.6636C13.3282 17.7093 13.5695 17.6937 13.7951 17.6183C13.8203 17.6097 13.845 17.5998 13.8691 17.5885L16.3532 16.4171L19.776 19.2235C19.776 19.2235 19.7827 19.2253 19.7851 19.226C19.4604 20.0009 18.8643 20.631 18.1086 20.9984C17.3529 21.3657 16.4892 21.4451 15.6792 21.2218Z" fill="#2196F3"/>
</g>
<defs>
<clipPath id="clip0_905_3134">
<rect width="22.0025" height="22.0025" fill="white" transform="translate(5.77686) rotate(15.2221)"/>
</clipPath>
</defs>
</svg>
