<svg width="24" height="24" viewBox="0 0 24 24" fill="none" xmlns="http://www.w3.org/2000/svg">
<g clip-path="url(#clip0_766_54989)">
<path d="M6.90466 0.117188C6.42654 0.262499 6.07966 0.567186 5.86404 1.03125L5.74216 1.28906L5.7281 4.56094L5.71404 7.8375L5.93904 7.65C6.45466 7.21875 7.28435 6.74531 7.94529 6.50156C8.81716 6.17812 9.56716 6.04688 10.5703 6.04688C11.8219 6.04688 12.914 6.30937 13.964 6.86719L14.3531 7.07812H17.4937C20.5453 7.07812 20.6344 7.08281 20.8125 7.17188C21.0234 7.27969 21.1875 7.54688 21.1875 7.78125C21.1875 7.99219 21.0234 8.28281 20.8453 8.37656C20.7094 8.45156 20.4797 8.46094 18.3844 8.48437L16.0734 8.50781L16.3031 8.79375C16.4297 8.95312 16.6453 9.2625 16.7859 9.4875L17.039 9.89062H18.8344C20.5406 9.89062 20.639 9.89531 20.8125 9.98437C21.0234 10.0922 21.1875 10.3594 21.1875 10.5937C21.1875 10.8281 21.0234 11.0953 20.8125 11.2031C20.639 11.2922 20.5406 11.2969 19.125 11.2969C17.714 11.2969 17.6203 11.3016 17.6437 11.3766C17.7187 11.6344 17.8078 12.0516 17.8359 12.2578C17.85 12.3844 17.8734 12.5391 17.8875 12.5953L17.9062 12.7031H19.2703C20.5406 12.7031 20.639 12.7078 20.8125 12.7969C21.0234 12.9047 21.1875 13.1719 21.1875 13.4062C21.1875 13.6406 21.0234 13.9078 20.8125 14.0156C20.639 14.1047 20.5406 14.1094 19.2703 14.1094H17.9062L17.8875 14.2125C17.8734 14.2734 17.85 14.4234 17.8359 14.5547C17.8078 14.7609 17.7187 15.1781 17.6437 15.4312C17.6203 15.5109 17.714 15.5156 19.125 15.5156C20.5406 15.5156 20.639 15.5203 20.8125 15.6094C21.0234 15.7172 21.1875 15.9844 21.1875 16.2187C21.1875 16.4531 21.0234 16.7203 20.8125 16.8281C20.639 16.9172 20.5406 16.9219 18.8344 16.9219H17.039L16.8797 17.1891C16.0734 18.5672 14.6672 19.7437 13.1484 20.3109C12.1969 20.6672 11.4328 20.7844 10.2937 20.7516C9.37029 20.7234 9.09373 20.6766 8.23591 20.4047L7.68279 20.2312L6.69841 21.2156L5.70935 22.1953L5.73279 22.4625C5.77966 23.0203 6.12654 23.5219 6.64685 23.775L6.96091 23.9297H14.8594H22.7578L23.0719 23.775C23.4328 23.5969 23.6812 23.3438 23.8547 22.9734L23.9765 22.7109L23.9906 14.1891L24 5.67188H21.464H18.9281L18.7406 5.56875C18.6281 5.50312 18.5156 5.39062 18.464 5.2875C18.3797 5.12344 18.375 4.97344 18.375 2.57812V0.046875L12.7406 0.0515614C8.21248 0.0515614 7.06404 0.0656242 6.90466 0.117188ZM16.5937 4.35938C16.8047 4.46719 16.9687 4.73438 16.9687 4.96875C16.9687 5.20312 16.8047 5.47031 16.5937 5.57812C16.4156 5.67188 16.3265 5.67188 12.7453 5.67188H9.08435L8.89685 5.56875C8.42341 5.30156 8.41873 4.65937 8.88748 4.37812L9.07029 4.26562H12.7406C16.3265 4.26562 16.4156 4.26562 16.5937 4.35938ZM20.8125 18.4219C21.0234 18.5297 21.1875 18.7969 21.1875 19.0312C21.1875 19.2656 21.0234 19.5328 20.8125 19.6406C20.639 19.7297 20.5406 19.7344 18.6094 19.7344C16.6781 19.7344 16.5797 19.7297 16.4062 19.6406C16.1953 19.5328 16.0312 19.2656 16.0312 19.0312C16.0312 18.8062 16.1953 18.5297 16.3969 18.4266C16.5609 18.3375 16.6734 18.3328 18.6 18.3281C20.5406 18.3281 20.6344 18.3328 20.8125 18.4219Z" fill="#8B8B8B"/>
<path d="M19.7806 2.36719V4.26562H21.6884H23.6009L21.7025 2.36719C20.6571 1.32187 19.7993 0.46875 19.7946 0.46875C19.7853 0.46875 19.7806 1.32187 19.7806 2.36719Z" fill="#8B8B8B"/>
<path d="M9.49168 7.52408C7.2698 7.97408 5.57292 9.45064 4.87449 11.5319C4.4948 12.6569 4.4948 14.1569 4.87449 15.2819C5.10886 15.985 5.67136 16.96 6.04167 17.3163C6.17761 17.4475 6.18699 17.4522 6.18699 17.3538C6.18699 17.1663 6.45886 16.51 6.6698 16.1866C6.99793 15.685 7.39636 15.31 7.89793 15.0241C8.02918 14.9538 8.14168 14.8881 8.15105 14.8788C8.16043 14.8694 8.10418 14.7616 8.02449 14.6397C7.40105 13.6694 7.33543 12.596 7.8323 11.5788C8.22136 10.7866 9.05105 10.1397 9.91355 9.96158C10.5979 9.81626 11.2495 9.90533 11.9057 10.2241C12.6979 10.6131 13.3448 11.4428 13.5229 12.3053C13.6917 13.1116 13.537 13.9085 13.0682 14.6397C12.9886 14.7616 12.9323 14.8694 12.9417 14.8788C12.9511 14.8835 13.0776 14.9585 13.2182 15.0381C13.9401 15.446 14.4979 16.121 14.7839 16.9131C14.8495 17.1006 14.9057 17.3022 14.9057 17.3538C14.9057 17.4475 14.9151 17.4475 15.0511 17.3163C15.4214 16.96 15.9839 15.985 16.2182 15.2819C16.5745 14.2225 16.5979 12.8303 16.2792 11.7194C15.7917 10.0225 14.4792 8.56939 12.7964 7.87564C12.0698 7.57564 11.6386 7.49126 10.687 7.47251C10.0636 7.46314 9.72605 7.4772 9.49168 7.52408Z" fill="#8B8B8B"/>
<path d="M10.0915 11.3625C9.6087 11.5219 9.26652 11.8219 9.05089 12.2812C8.94777 12.4969 8.92902 12.6047 8.92902 12.9375C8.92902 13.2937 8.94777 13.3734 9.0837 13.65C9.26183 14.0109 9.51495 14.2594 9.88527 14.4328C10.1056 14.5359 10.2134 14.5547 10.5462 14.5547C10.879 14.5547 10.9868 14.5359 11.2071 14.4328C11.5775 14.2594 11.8306 14.0109 12.0087 13.65C12.1446 13.3734 12.1634 13.2937 12.1634 12.9375C12.1634 12.6047 12.1446 12.4969 12.0415 12.2766C11.7696 11.6953 11.2493 11.3437 10.6259 11.3156C10.4243 11.3016 10.2087 11.325 10.0915 11.3625Z" fill="#8B8B8B"/>
<path d="M9.1539 16.0311C8.61484 16.1389 7.97265 16.6452 7.72421 17.1608C7.56015 17.4983 7.37734 18.4686 7.46171 18.5249C7.64452 18.6467 8.41796 18.9983 8.7414 19.1014C9.88046 19.467 11.3289 19.4483 12.4961 19.0545C12.8055 18.9467 13.4055 18.6702 13.6305 18.5249C13.7148 18.4686 13.532 17.4983 13.368 17.1608C13.1101 16.6217 12.4867 16.1436 11.9008 16.0311C11.6101 15.9749 9.43515 15.9795 9.1539 16.0311Z" fill="#8B8B8B"/>
<path d="M2.31514 19.65C-0.0426764 22.0172 0.0229486 21.9328 0.0229486 22.5703C0.0276361 23.1281 0.294824 23.5547 0.787011 23.7984C1.00732 23.9062 1.11514 23.9297 1.40576 23.9297C2.02451 23.9297 2.00107 23.9437 4.34951 21.5953L6.42607 19.5187L6.1542 19.3266C5.62451 18.9516 4.8417 18.15 4.49951 17.6344C4.4292 17.5312 4.3917 17.5641 2.31514 19.65Z" fill="#8B8B8B"/>
</g>
<defs>
<clipPath id="clip0_766_54989">
<rect width="24" height="24" fill="white"/>
</clipPath>
</defs>
</svg>
