<svg width="16" height="16" viewBox="0 0 16 16" fill="none" xmlns="http://www.w3.org/2000/svg">
<g clip-path="url(#clip0_766_54977)">
<path d="M6.48 0.616533C6.665 0.779533 6.801 0.974533 6.878 1.20953C6.8908 1.20959 6.9035 1.20965 6.9167 1.20971C7.0377 1.21029 7.1587 1.21101 7.2797 1.21189C7.3418 1.21234 7.4037 1.21273 7.4657 1.213C7.5258 1.21326 7.5857 1.21367 7.6457 1.21417C7.6685 1.21434 7.6913 1.21445 7.7141 1.21451C8.0351 1.21549 8.2841 1.27591 8.5161 1.50851C8.7201 1.72751 8.7321 1.99351 8.7291 2.27551C8.72895 2.30031 8.72881 2.32501 8.72869 2.34981C8.72836 2.40981 8.72786 2.46981 8.72723 2.52981C8.73863 2.52977 8.74993 2.52973 8.76163 2.52968C8.86963 2.52927 8.97763 2.52897 9.08463 2.52878C9.14003 2.52867 9.19563 2.52853 9.25063 2.5283C9.30423 2.52808 9.35763 2.52797 9.41163 2.52792C9.43193 2.52788 9.45223 2.52781 9.47253 2.5277C9.87153 2.52564 10.2235 2.611 10.5325 2.8697C10.5378 2.87408 10.5431 2.87847 10.5486 2.883C10.6187 2.9419 10.6766 3.007 10.7326 3.08C10.7377 3.08619 10.7428 3.0924 10.748 3.0988C10.932 3.3288 11.021 3.6158 11.026 3.9078C11.0262 3.9187 11.0264 3.9296 11.0267 3.9409C11.0273 3.9782 11.0279 4.0154 11.0285 4.0529C11.0287 4.0659 11.0289 4.079 11.0291 4.0924C11.0372 4.5984 11.0337 5.1024 11.0329 5.6124C11.039 5.6144 11.0452 5.61639 11.0515 5.61845C11.0636 5.62243 11.0636 5.62243 11.0759 5.62649C11.0838 5.6291 11.0919 5.63172 11.1001 5.63441C11.1292 5.64461 11.1558 5.65781 11.1829 5.67241C11.1935 5.67812 11.2041 5.68381 11.2151 5.68971C11.2261 5.69575 11.2371 5.70181 11.2485 5.70801C11.26 5.71427 11.2715 5.72051 11.2834 5.72701C11.3721 5.77561 11.4584 5.82641 11.5424 5.88201C11.5488 5.88624 11.5552 5.89047 11.5618 5.89481C11.8488 6.08481 12.1368 6.31481 12.3518 6.58581C12.3726 6.61161 12.3944 6.63591 12.4169 6.66031C12.4692 6.71791 12.516 6.77931 12.5629 6.84131C12.5695 6.85007 12.5695 6.85007 12.5763 6.85901C12.65 6.95671 12.7183 7.05701 12.7833 7.16101C12.7887 7.16973 12.7941 7.17841 12.7997 7.18741C13.2957 7.99541 13.4957 9.02741 13.3037 10.1174C13.2999 10.1343 13.2999 10.1343 13.296 10.1516C13.2446 10.3776 13.174 10.5966 13.088 10.8116C13.0729 10.8499 13.0592 10.886 13.0533 10.9266H13.0733C13.0945 10.9454 13.0945 10.9454 13.1133 10.9666V10.9866C13.1232 10.9899 13.1331 10.9932 13.1433 10.9966V11.0166C13.1565 11.0232 13.1697 11.0298 13.1833 11.0366V11.0566C13.1932 11.0599 13.2031 11.0632 13.2133 11.0666C13.2266 11.0833 13.24 11.0999 13.2533 11.1166C13.2648 11.1268 13.2765 11.1368 13.2883 11.1466C13.3176 11.1709 13.3395 11.1969 13.3633 11.2266C13.3816 11.2427 13.4003 11.2581 13.4194 11.2733C13.424 11.2777 13.4286 11.2821 13.4333 11.2866V11.3066C13.4432 11.3099 13.4531 11.3132 13.4633 11.3166C13.4768 11.3331 13.4901 11.3498 13.5033 11.3666C13.5107 11.3722 13.5181 11.3777 13.5258 11.3835C13.5316 11.3878 13.5374 11.3922 13.5433 11.3966V11.4166C13.5532 11.4199 13.5631 11.4232 13.5733 11.4266C13.5866 11.4433 13.6 11.4599 13.6133 11.4766C13.6316 11.4927 13.6503 11.5081 13.6694 11.5233C13.674 11.5277 13.6786 11.5321 13.6833 11.5366V11.5566C13.6932 11.5599 13.7031 11.5632 13.7133 11.5666V11.5866C13.719 11.5891 13.7247 11.5916 13.7306 11.5941C13.7568 11.6085 13.7747 11.6254 13.7958 11.6466L13.8172 11.6678C13.8333 11.6866 13.8333 11.6866 13.8333 11.7066C13.8432 11.7099 13.8531 11.7132 13.8633 11.7166V11.7366C13.8732 11.7399 13.8831 11.7432 13.8933 11.7466V11.7666L13.9114 11.7747C13.9333 11.7866 13.9474 11.7975 13.9633 11.8166V11.8366C13.9732 11.8399 13.9831 11.8432 13.9933 11.8466C14.0202 11.871 14.0202 11.871 14.0433 11.8966V11.9166C14.0532 11.9199 14.0631 11.9232 14.0733 11.9266C14.0867 11.9432 14.1 11.9599 14.1133 11.9766L14.1427 12.001C14.1656 12.0201 14.1819 12.0358 14.2002 12.0585C14.2221 12.0879 14.2221 12.0879 14.2533 12.1066V12.1266C14.2632 12.1299 14.2731 12.1332 14.2833 12.1366C14.2955 12.1511 14.3077 12.1657 14.3194 12.1805C14.3348 12.1993 14.3348 12.1993 14.3633 12.2216C14.3943 12.2475 14.4176 12.2756 14.4433 12.3066C14.4513 12.313 14.4594 12.3194 14.4677 12.326C14.4952 12.3481 14.5154 12.3721 14.5377 12.3992C14.5531 12.4164 14.569 12.4304 14.587 12.4447C14.5957 12.4519 14.6043 12.4591 14.6132 12.4666V12.4866C14.6231 12.4899 14.633 12.4932 14.6432 12.4966C14.6556 12.5113 14.668 12.5261 14.68 12.5412C14.6939 12.5584 14.6939 12.5584 14.7175 12.576C14.7452 12.5983 14.7658 12.6227 14.7884 12.65C14.8078 12.6718 14.8303 12.6885 14.8531 12.7066C14.8621 12.7168 14.8708 12.7273 14.8793 12.7378C14.9017 12.7677 14.9017 12.7677 14.9331 12.7866V12.8066C14.943 12.8099 14.9529 12.8132 14.9631 12.8166C14.985 12.836 14.985 12.836 15.0031 12.8566V12.8766C15.0163 12.8832 15.0295 12.8898 15.0431 12.8966V12.9166C15.053 12.9199 15.0629 12.9232 15.0731 12.9266C15.095 12.946 15.095 12.946 15.1131 12.9666V12.9866C15.123 12.9899 15.1329 12.9932 15.1431 12.9966C15.165 13.016 15.165 13.016 15.1831 13.0366V13.0566C15.193 13.0599 15.2029 13.0632 15.2131 13.0666C15.2282 13.0816 15.2282 13.0816 15.2443 13.101C15.2638 13.1241 15.2833 13.1469 15.3041 13.1689C15.5291 13.4069 15.6471 13.7319 15.6631 14.0569C15.6636 14.066 15.6642 14.0751 15.6647 14.0844C15.6744 14.4064 15.5656 14.7334 15.3827 14.9964C15.3756 15.0067 15.3686 15.017 15.3613 15.0276C15.2423 15.1936 15.0913 15.3446 14.9123 15.4466C14.9057 15.4504 14.8991 15.4542 14.8922 15.4581C14.5412 15.6581 14.1272 15.7251 13.7322 15.6221C13.4482 15.5424 13.2152 15.3991 13.0112 15.1871L12.9837 15.1596C12.968 15.1439 12.9524 15.128 12.9368 15.1121C12.9114 15.0865 12.9114 15.0865 12.8824 15.064C12.8504 15.0379 12.8245 15.0076 12.7977 14.9763C12.7683 14.9423 12.7374 14.9122 12.7024 14.884C12.6704 14.8579 12.6445 14.8276 12.6177 14.7963C12.5883 14.7623 12.5574 14.7322 12.5224 14.704C12.4913 14.6786 12.4664 14.6494 12.4404 14.619C12.4059 14.5799 12.3683 14.5437 12.3314 14.507C11.8674 14.043 11.8674 14.043 11.8484 14.024C11.8333 14.0089 11.8181 13.9937 11.8029 13.9786C11.7874 13.9631 11.772 13.9474 11.7567 13.9317C11.7313 13.9061 11.7313 13.9061 11.7023 13.8836C11.6703 13.8575 11.6444 13.8272 11.6176 13.7959C11.5878 13.7614 11.5564 13.7311 11.521 13.7023C11.4902 13.676 11.4665 13.648 11.441 13.6167C11.4125 13.5866 11.3825 13.5592 11.351 13.5323C11.3168 13.5027 11.2893 13.4719 11.261 13.4367C11.2206 13.3951 11.178 13.3563 11.135 13.3177C11.1109 13.2959 11.0895 13.2744 11.0694 13.2488C11.0524 13.224 11.0524 13.224 11.0212 13.2166C11.0245 13.2232 11.0278 13.2298 11.0312 13.2366C11.0322 13.2654 11.0327 13.2939 11.0327 13.3227C11.0327 13.3317 11.0327 13.3406 11.0328 13.3498C11.0328 13.3796 11.0329 13.4093 11.0329 13.4391C11.0329 13.4599 11.0329 13.4808 11.033 13.5016C11.033 13.5455 11.0331 13.5895 11.0331 13.6336C11.0331 13.6782 11.0331 13.7228 11.0333 13.7676C11.035 14.3316 11.017 14.8376 10.6033 15.2676C10.3343 15.5346 9.96126 15.6706 9.58326 15.6696C9.56946 15.6696 9.55556 15.6697 9.54176 15.6697C9.50376 15.6697 9.46566 15.6697 9.42776 15.6697C9.38636 15.6697 9.34506 15.6698 9.30376 15.6698C9.22166 15.6699 9.13976 15.6699 9.05776 15.6699C8.95946 15.6699 8.86076 15.67 8.76276 15.6701C8.52476 15.6702 8.28776 15.6703 8.04976 15.6703C7.93776 15.6703 7.82476 15.6704 7.71276 15.6704C7.32776 15.6705 6.94276 15.6707 6.56276 15.6707C6.53856 15.6707 6.51446 15.6707 6.49026 15.6707C6.46606 15.6707 6.44186 15.6707 6.41756 15.6707C6.36896 15.6707 6.32036 15.6707 6.27156 15.6707C6.25956 15.6707 6.24746 15.6707 6.23506 15.6707C5.84406 15.6708 5.45406 15.6709 5.06506 15.6711C4.65206 15.6714 4.23906 15.6715 3.82506 15.6715C3.77976 15.6715 3.73436 15.6715 3.68906 15.6715C3.67786 15.6716 3.66676 15.6716 3.65526 15.6716C3.47526 15.6716 3.29626 15.6717 3.11626 15.6718C2.93526 15.672 2.75526 15.672 2.57426 15.6719C2.46726 15.6719 2.36026 15.6719 2.25226 15.6721C2.18056 15.6722 2.10926 15.6722 2.03726 15.6721C1.99646 15.672 1.95566 15.672 1.91526 15.6721C1.45926 15.6734 1.08126 15.5661 0.745256 15.2481L0.725155 15.23C0.549155 15.065 0.432155 14.831 0.377155 14.599C0.375085 14.5905 0.373015 14.582 0.370875 14.5733C0.358875 14.5193 0.352875 14.4653 0.349775 14.4103C0.349353 14.4029 0.348931 14.3955 0.348495 14.3878C0.344065 14.3035 0.343925 14.2188 0.344055 14.1348C0.344044 14.1169 0.34403 14.0991 0.344011 14.0812C0.343972 14.0324 0.343996 13.9836 0.344029 13.9352C0.344055 13.882 0.344022 13.8292 0.343996 13.7752C0.34396 13.682 0.343962 13.5892 0.343987 13.4952C0.344025 13.3562 0.344006 13.2182 0.343975 13.0792C0.343925 12.8462 0.343923 12.6132 0.343951 12.3792C0.343951 12.3721 0.343952 12.365 0.343953 12.3577C0.343954 12.3506 0.343955 12.3435 0.343956 12.3362C0.343981 12.1192 0.343988 11.9032 0.343976 11.6862C0.343975 11.6717 0.343974 11.6572 0.343973 11.6427C0.34397 11.5844 0.343967 11.5257 0.343964 11.4677C0.343955 11.3047 0.343949 11.1417 0.343946 10.9787C0.343946 10.9713 0.343945 10.9639 0.343945 10.9562C0.343941 10.7202 0.343953 10.4832 0.343974 10.2472C0.343975 10.2395 0.343976 10.2319 0.343976 10.224C0.343988 10.099 0.344 9.97502 0.344012 9.85002C0.344061 9.35602 0.344058 8.86202 0.34401 8.37002C0.343998 8.24602 0.343986 8.12102 0.343974 7.99702C0.343974 7.98936 0.343973 7.98172 0.343972 7.97382C0.34395 7.73782 0.343941 7.50082 0.343946 7.26482C0.343946 7.2574 0.343946 7.25002 0.343946 7.24232C0.343949 7.07932 0.343955 6.91632 0.343965 6.75332C0.343968 6.69502 0.343971 6.63632 0.343974 6.57832C0.343975 6.56382 0.343976 6.54932 0.343977 6.53482C0.343989 6.31782 0.343978 6.10182 0.343953 5.88482C0.343952 5.87773 0.343951 5.87062 0.343951 5.86332C0.34395 5.85624 0.343949 5.84912 0.343948 5.84182C0.343921 5.60282 0.343931 5.36382 0.343984 5.12482C0.344013 4.98682 0.344015 4.84982 0.343977 4.71182C0.343954 4.61982 0.343969 4.52782 0.344012 4.43582C0.344036 4.38342 0.344044 4.33082 0.344008 4.27882C0.343975 4.23112 0.34399 4.18332 0.34404 4.13582C0.34405 4.11872 0.344043 4.10162 0.344018 4.08452C0.343627 3.80352 0.343627 3.80352 0.372218 3.66852L0.377478 3.64322C0.430278 3.40222 0.546478 3.19522 0.705478 3.00822L0.722878 2.98672C0.770578 2.92912 0.826878 2.88372 0.885878 2.83772C0.892568 2.83237 0.899278 2.82702 0.906178 2.82152C1.20718 2.58752 1.54318 2.52752 1.91618 2.52452C1.93728 2.52431 1.95848 2.5241 1.97958 2.52389C2.03488 2.52334 2.09058 2.52285 2.14558 2.52236C2.20218 2.52185 2.25858 2.5213 2.31558 2.52075C2.42658 2.51968 2.53758 2.51866 2.64758 2.51768C2.64764 2.5114 2.6477 2.50508 2.64776 2.49868C2.6484 2.43248 2.64925 2.36668 2.65021 2.29968C2.65054 2.27508 2.65082 2.25048 2.65105 2.22588C2.654 1.91688 2.70375 1.66488 2.92805 1.43688C3.24305 1.14088 3.66705 1.17388 4.06805 1.17588C4.11895 1.17608 4.17005 1.17617 4.22105 1.17627C4.32025 1.17649 4.41905 1.17683 4.51905 1.17725C4.52099 1.17052 4.52294 1.16375 4.52494 1.15685C4.52755 1.14795 4.53016 1.13905 4.53286 1.12985C4.53542 1.12106 4.53799 1.11225 4.54063 1.10325C4.55313 1.06485 4.57043 1.03015 4.58973 0.99525C4.59365 0.98798 4.59757 0.98075 4.60163 0.97325C4.73263 0.73525 4.91863 0.56225 5.15863 0.43825C5.16783 0.43333 5.17703 0.4284 5.18653 0.42335C5.60653 0.21435 6.13353 0.31735 6.47653 0.61535L6.48 0.616533ZM5.23 1.18953C5.2062 1.22143 5.1873 1.25383 5.17 1.28953C5.16418 1.30143 5.16418 1.30143 5.1582 1.31343C5.1241 1.39033 5.1156 1.47043 5.1061 1.55343C5.0946 1.64293 5.0758 1.72343 5.0041 1.78443C4.9144 1.84193 4.8091 1.84443 4.7051 1.84393C4.6854 1.84402 4.6657 1.8441 4.646 1.84418C4.6251 1.84424 4.6041 1.84423 4.5832 1.84419C4.5394 1.84412 4.4955 1.84428 4.4512 1.84448C4.3502 1.84489 4.2492 1.845 4.1482 1.84511C4.0555 1.84522 3.9632 1.84539 3.8702 1.84579C3.8267 1.84598 3.7832 1.84602 3.7392 1.84594C3.7186 1.84593 3.6981 1.84599 3.6775 1.84608C3.6525 1.84618 3.6276 1.84618 3.6026 1.84605C3.4986 1.84681 3.4146 1.86625 3.3386 1.94005C3.2967 1.99605 3.2874 2.04605 3.2873 2.11505C3.28727 2.12153 3.28725 2.12805 3.28723 2.13465C3.28716 2.15635 3.28717 2.17805 3.28718 2.19975C3.28715 2.21535 3.28712 2.23085 3.28708 2.24645C3.28699 2.28875 3.28697 2.33095 3.28696 2.37345C3.28695 2.39985 3.28693 2.42625 3.28691 2.45265C3.28681 2.54485 3.28677 2.63665 3.28678 2.72865C3.28679 2.81455 3.28668 2.90065 3.28652 2.98665C3.28639 3.06035 3.28634 3.13365 3.28635 3.20765C3.28635 3.25165 3.28632 3.29575 3.28621 3.33965C3.28612 3.38105 3.28612 3.42255 3.28619 3.46365C3.2862 3.47885 3.28618 3.49405 3.28612 3.50915C3.28604 3.52995 3.28609 3.55065 3.28616 3.57145C3.28616 3.58305 3.28615 3.59465 3.28615 3.60665C3.29172 3.68125 3.31445 3.73065 3.36865 3.77965C3.43055 3.82355 3.48865 3.84265 3.56365 3.84225C3.57495 3.8423 3.57495 3.8423 3.58645 3.84236C3.61175 3.84245 3.63705 3.8424 3.66235 3.84235C3.68065 3.84239 3.69895 3.84244 3.71725 3.84249C3.76755 3.84261 3.81825 3.84261 3.86825 3.84259C3.92255 3.84258 3.97725 3.84269 4.03125 3.84279C4.13725 3.84295 4.24425 3.84301 4.35025 3.84302C4.43665 3.84303 4.52325 3.84307 4.60925 3.84313C4.85425 3.84331 5.09925 3.8434 5.34425 3.84339C5.35415 3.84339 5.35415 3.84339 5.36425 3.84338C5.37765 3.84338 5.39095 3.84338 5.40435 3.84338C5.61235 3.84337 5.81935 3.84352 6.02735 3.84379C6.26035 3.8441 6.49435 3.84427 6.72735 3.84425C6.85135 3.84425 6.97435 3.8443 7.09835 3.84452C7.20335 3.8447 7.30835 3.84474 7.41435 3.84461C7.46805 3.84454 7.52135 3.84454 7.57535 3.84472C7.62455 3.84487 7.67365 3.84484 7.72235 3.84467C7.74015 3.84464 7.75785 3.84468 7.77565 3.84479C7.88465 3.84542 7.97665 3.84182 8.06265 3.76719C8.06891 3.76198 8.07515 3.75679 8.08165 3.75139C8.14165 3.67599 8.13335 3.58439 8.13315 3.49339C8.13322 3.47759 8.13331 3.46169 8.1334 3.44589C8.13362 3.40309 8.13365 3.36029 8.13364 3.31789C8.13363 3.28209 8.13372 3.24629 8.1338 3.21089C8.134 3.12639 8.13403 3.04189 8.13396 2.95689C8.13389 2.86989 8.13412 2.78289 8.13449 2.69589C8.1348 2.62099 8.13491 2.54589 8.13487 2.47089C8.13485 2.42619 8.13491 2.38159 8.13515 2.33689C8.13538 2.29489 8.13535 2.25289 8.13515 2.21089C8.13512 2.19549 8.13517 2.18019 8.13531 2.16479C8.13613 2.07129 8.13122 1.99579 8.06451 1.92479C8.00131 1.86819 7.93551 1.84899 7.85251 1.84879C7.84131 1.84873 7.83011 1.84868 7.81861 1.84862C7.80641 1.84861 7.79421 1.8486 7.78171 1.84859C7.76191 1.84851 7.74211 1.84843 7.72231 1.84835C7.70111 1.84828 7.67981 1.84822 7.65861 1.84817C7.61421 1.84807 7.56981 1.84786 7.52561 1.84764C7.39961 1.84703 7.27361 1.84648 7.14661 1.84615C7.07691 1.84597 7.00761 1.84568 6.93761 1.84527C6.90071 1.84506 6.86391 1.84491 6.82661 1.84489C6.78541 1.84486 6.74421 1.8446 6.70261 1.84433C6.69051 1.84436 6.67851 1.84439 6.66611 1.84442C6.57631 1.84355 6.47711 1.83813 6.40811 1.77332C6.40121 1.76709 6.39431 1.76082 6.38721 1.75442C6.33521 1.69052 6.32101 1.62742 6.31251 1.54742C6.29521 1.40942 6.25461 1.28442 6.15751 1.18042H6.13751C6.13421 1.17052 6.13091 1.16062 6.12751 1.15042C6.10841 1.13462 6.08981 1.12052 6.06941 1.10662C6.0636 1.10264 6.05781 1.09866 6.05181 1.09452C5.78881 0.919523 5.44181 0.955523 5.22781 1.19032L5.23 1.18953ZM1.6 3.16953C1.59296 3.17068 1.5859 3.17183 1.5787 3.17301C1.3737 3.21081 1.1937 3.34701 1.0747 3.51401C0.993496 3.64301 0.956697 3.78001 0.952697 3.93101C0.952321 3.94261 0.951945 3.95421 0.951557 3.96621C0.946777 4.13321 0.947466 4.29921 0.947587 4.46621C0.947612 4.51731 0.947579 4.56821 0.947554 4.61921C0.947518 4.70841 0.947519 4.79721 0.947545 4.88721C0.947583 5.02021 0.947563 5.15221 0.947533 5.28521C0.947483 5.50821 0.947481 5.73221 0.947508 5.95521C0.947535 6.17621 0.947546 6.39721 0.947533 6.61921C0.947533 6.63311 0.947532 6.64711 0.947531 6.66101C0.947528 6.71701 0.947525 6.77301 0.947521 6.82901C0.947512 6.98501 0.947506 7.14201 0.947504 7.29801C0.947503 7.30513 0.947503 7.31221 0.947503 7.31961C0.947499 7.54661 0.94751 7.77361 0.947532 7.99961C0.947533 8.00696 0.947533 8.01431 0.947534 8.02191C0.947545 8.14091 0.947558 8.26091 0.94757 8.37991C0.947619 8.85291 0.947616 9.32591 0.947568 9.79991C0.947555 9.91891 0.947544 10.0379 0.947532 10.1579C0.947532 10.1653 0.947531 10.1726 0.94753 10.1802C0.947508 10.4072 0.947499 10.6332 0.947504 10.8602C0.947504 10.8673 0.947504 10.8744 0.947504 10.8818C0.947507 11.0378 0.947513 11.1948 0.947522 11.3508C0.947526 11.4067 0.947529 11.4628 0.947532 11.5188C0.947533 11.5327 0.947534 11.5466 0.947535 11.5605C0.947547 11.7815 0.947533 12.0025 0.947506 12.2235C0.947478 12.4525 0.947489 12.6815 0.947541 12.9105C0.947571 13.0425 0.947573 13.1745 0.947535 13.3065C0.947512 13.3948 0.947527 13.4835 0.94757 13.5715C0.947594 13.6217 0.947602 13.6715 0.947566 13.7215C0.947449 13.8965 0.94765 14.0725 0.952976 14.2475C0.953486 14.2655 0.953486 14.2655 0.954006 14.2839C0.961406 14.4919 1.04141 14.6529 1.18901 14.7969L1.21471 14.8222C1.41071 15.0062 1.66871 15.0482 1.92771 15.0482C1.94011 15.0482 1.95261 15.0482 1.96541 15.0483C1.99971 15.0483 2.03411 15.0483 2.06841 15.0482C2.10581 15.0482 2.14331 15.0482 2.18041 15.0483C2.24601 15.0483 2.31141 15.0483 2.37741 15.0483C2.47491 15.0482 2.57241 15.0483 2.67041 15.0483C2.84441 15.0483 3.01941 15.0483 3.19341 15.0483C3.34641 15.0483 3.49941 15.0483 3.65141 15.0483C3.66661 15.0483 3.66661 15.0483 3.68221 15.0483C3.72341 15.0483 3.76461 15.0483 3.80621 15.0483C4.19321 15.0483 4.57921 15.0483 4.96621 15.0483C5.30921 15.0482 5.65121 15.0482 5.99621 15.0483C6.38121 15.0483 6.76721 15.0483 7.15621 15.0483C7.19741 15.0483 7.23871 15.0483 7.28021 15.0483C7.29541 15.0483 7.29541 15.0483 7.31101 15.0483C7.46301 15.0483 7.61601 15.0483 7.76801 15.0483C7.94201 15.0483 8.11601 15.0483 8.28901 15.0483C8.37741 15.0483 8.46601 15.0482 8.55401 15.0483C8.75801 15.0484 8.96201 15.0482 9.16501 15.0471C9.18501 15.047 9.20491 15.0469 9.22491 15.0468C9.29891 15.0464 9.37291 15.0458 9.44691 15.0448C9.46861 15.0445 9.49031 15.0443 9.51211 15.0442C9.66811 15.0431 9.82111 15.0317 9.96311 14.9601C9.97008 14.9567 9.97701 14.9533 9.98421 14.9498C10.1652 14.8582 10.3092 14.7058 10.3852 14.5168C10.4049 14.4494 10.4082 14.3848 10.4084 14.3148C10.4086 14.2985 10.4086 14.2985 10.4087 14.282C10.409 14.2465 10.4092 14.2109 10.4094 14.175C10.4095 14.1502 10.4097 14.1255 10.4099 14.1007C10.4105 14.0357 10.4109 13.9707 10.4112 13.9057C10.4116 13.8393 10.4121 13.7727 10.4126 13.7067C10.4136 13.5767 10.4144 13.4467 10.4152 13.3167C10.3722 13.3037 10.3369 13.3124 10.2942 13.3218C10.2776 13.3253 10.261 13.3287 10.2444 13.3322C10.2357 13.334 10.227 13.3359 10.218 13.3378C9.36502 13.5188 8.26801 13.5118 7.49801 13.0258C7.46461 13.0123 7.43222 13.0136 7.39702 13.0138C7.38512 13.0138 7.38512 13.0138 7.37301 13.0137C7.34622 13.0136 7.31952 13.0137 7.29272 13.0137C7.27342 13.0137 7.25412 13.0136 7.23482 13.0136C7.18161 13.0135 7.12881 13.0135 7.07481 13.0135C7.01751 13.0135 6.95982 13.0134 6.90282 13.0133C6.80342 13.0131 6.70381 13.013 6.60482 13.013C6.46081 13.0129 6.31681 13.0128 6.17382 13.0125C6.10682 13.0124 6.03982 13.0123 5.97282 13.0122C5.96611 13.0122 5.95941 13.0122 5.95252 13.0122C5.79251 13.012 5.63352 13.0118 5.47352 13.0117C5.46653 13.0117 5.45952 13.0117 5.45232 13.0117C5.34631 13.0116 5.23932 13.0115 5.13332 13.0114C5.02032 13.0113 4.90732 13.0112 4.79331 13.011C4.78281 13.011 4.78281 13.011 4.77221 13.011C4.61321 13.0109 4.45322 13.0107 4.29421 13.0105C4.28752 13.0105 4.28082 13.0105 4.27392 13.0105C4.20042 13.0103 4.12691 13.0102 4.05392 13.0101C3.91092 13.0099 3.76691 13.0098 3.62391 13.0097C3.52561 13.0097 3.42691 13.0095 3.32891 13.0094C3.27221 13.0093 3.21591 13.0092 3.15891 13.0093C3.10701 13.0093 3.05491 13.0092 3.00291 13.0091C2.98411 13.009 2.96531 13.009 2.94661 13.0091C2.68661 13.0095 2.68661 13.0095 2.59461 12.9264C2.51791 12.8346 2.50451 12.7444 2.51461 12.6264C2.52402 12.5905 2.53731 12.5591 2.55461 12.5264C2.55894 12.5171 2.56327 12.5078 2.56771 12.4983C2.60921 12.4445 2.66872 12.4126 2.73471 12.3963C2.78552 12.3918 2.83572 12.3921 2.88672 12.3923C2.90232 12.3922 2.91791 12.3922 2.93341 12.3921C2.97611 12.3919 3.01881 12.3919 3.06141 12.3919C3.10751 12.3919 3.15361 12.3918 3.19941 12.3916C3.27921 12.3914 3.35941 12.3913 3.43841 12.3912C3.55341 12.3912 3.66941 12.3909 3.78442 12.3907C3.97142 12.3902 4.15842 12.3899 4.34642 12.3897C4.52842 12.3895 4.71041 12.3892 4.89142 12.3889C4.90822 12.3889 4.90822 12.3889 4.92542 12.3888C4.98162 12.3887 5.03742 12.3886 5.09442 12.3885C5.56041 12.3876 6.02742 12.3868 6.49442 12.3863C6.47882 12.3516 6.46842 12.3428 6.43442 12.3263C6.43112 12.3164 6.42781 12.3065 6.42442 12.2963C6.40881 12.2805 6.40881 12.2805 6.38942 12.2651C6.32162 12.2075 6.26042 12.1441 6.20241 12.0771C6.19011 12.0629 6.17752 12.049 6.16472 12.0352C6.01872 11.8782 5.89971 11.6992 5.79171 11.5152C5.77731 11.4886 5.77732 11.4886 5.76462 11.4767C5.74862 11.4757 5.73252 11.4754 5.71652 11.4754C5.70602 11.4754 5.69552 11.4753 5.68472 11.4753C5.66722 11.4753 5.66721 11.4753 5.64942 11.4754C5.63712 11.4753 5.62492 11.4753 5.61222 11.4753C5.58512 11.4753 5.55812 11.4752 5.53102 11.4752C5.48702 11.4753 5.44302 11.4752 5.39902 11.4752C5.33512 11.4751 5.27102 11.475 5.20702 11.475C5.10602 11.4749 5.00501 11.4748 4.90402 11.4746C4.86941 11.4745 4.83492 11.4744 4.80001 11.4744C4.79138 11.4744 4.78271 11.4744 4.77382 11.4743C4.67542 11.4742 4.57682 11.474 4.47882 11.4738C4.46531 11.4738 4.46531 11.4738 4.45151 11.4738C4.30551 11.4736 4.16052 11.4735 4.01451 11.4734C3.86452 11.4733 3.71551 11.4731 3.56551 11.4727C3.47331 11.4725 3.38152 11.4724 3.28851 11.4725C3.22521 11.4725 3.16151 11.4724 3.09851 11.4722C3.06201 11.472 3.02551 11.472 2.98952 11.4721C2.94991 11.4722 2.91031 11.472 2.87051 11.4718C2.85901 11.4719 2.84761 11.472 2.83581 11.4721C2.73791 11.4711 2.65381 11.4473 2.58182 11.3783C2.52231 11.3054 2.50621 11.2233 2.51002 11.1303C2.52011 11.0479 2.54841 10.9703 2.61401 10.9163C2.67791 10.8769 2.73702 10.8552 2.81202 10.8549C2.82146 10.8548 2.83091 10.8547 2.84062 10.8547C2.85601 10.8547 2.85601 10.8547 2.87181 10.8547C2.88281 10.8546 2.89382 10.8546 2.90511 10.8545C2.94201 10.8544 2.97891 10.8543 3.01611 10.8542C3.04251 10.8541 3.06891 10.854 3.09531 10.8539C3.15221 10.8537 3.20931 10.8535 3.26631 10.8533C3.34861 10.8531 3.43131 10.8528 3.51331 10.8525C3.64631 10.852 3.78031 10.8516 3.91331 10.8512C4.04331 10.8508 4.17232 10.8504 4.30231 10.85C4.31432 10.8499 4.31431 10.8499 4.32651 10.8499C4.36661 10.8497 4.40671 10.8496 4.44652 10.8495C4.77951 10.8483 5.11152 10.8473 5.44452 10.8462C5.44142 10.832 5.4383 10.8178 5.43518 10.8036C5.43345 10.7957 5.4317 10.7878 5.42992 10.7796C5.42215 10.7459 5.41252 10.7128 5.40281 10.6796C5.39862 10.6652 5.39445 10.6509 5.39022 10.6365C5.38806 10.6291 5.3859 10.6217 5.38367 10.6141C5.32357 10.4081 5.26867 10.2021 5.23667 9.99014C5.23521 9.98064 5.23375 9.97114 5.23225 9.96134C5.23039 9.94874 5.23039 9.94874 5.22849 9.93584C5.22648 9.91664 5.22648 9.91664 5.21458 9.90664C5.18308 9.9056 5.15178 9.90522 5.12018 9.90526C5.11019 9.90523 5.10009 9.90521 5.08979 9.90518C5.05589 9.90509 5.02199 9.90508 4.98778 9.90507C4.96358 9.90502 4.93938 9.90497 4.91518 9.90491C4.86299 9.9048 4.81119 9.90471 4.75818 9.90465C4.67559 9.90455 4.59318 9.90434 4.51018 9.90412C4.48188 9.90405 4.45369 9.90397 4.42538 9.9039C4.41832 9.90388 4.41128 9.90386 4.40399 9.90384C4.32348 9.90363 4.24299 9.90344 4.16298 9.90326C4.15562 9.90325 4.14829 9.90323 4.14069 9.90322C4.02169 9.90295 3.90268 9.90277 3.78368 9.9026C3.66168 9.90242 3.53868 9.90214 3.41668 9.90175C3.34128 9.90152 3.26568 9.90138 3.19068 9.90136C3.13278 9.90133 3.07468 9.90115 3.01668 9.90092C2.99298 9.90085 2.96929 9.90083 2.94559 9.90086C2.91318 9.9009 2.88078 9.90075 2.84839 9.90056C2.83438 9.90065 2.83438 9.90065 2.82008 9.90073C2.73358 9.89986 2.64709 9.88013 2.58408 9.81663C2.56439 9.78793 2.54859 9.75823 2.53409 9.72663L2.52298 9.70323C2.49518 9.61973 2.50818 9.51923 2.54238 9.43923C2.58309 9.35973 2.64209 9.32823 2.72439 9.29623C2.77749 9.28453 2.82939 9.28473 2.88338 9.28473C2.89336 9.28469 2.90328 9.28465 2.91358 9.2846C2.94698 9.28447 2.98028 9.28441 3.01358 9.28435C3.03748 9.28427 3.06148 9.28419 3.08538 9.2841C3.14358 9.2839 3.20138 9.28374 3.26038 9.2836C3.32818 9.28343 3.39638 9.28319 3.46338 9.28295C3.58438 9.28252 3.70538 9.28213 3.82638 9.28177C3.83361 9.28175 3.84088 9.28173 3.84828 9.28171C3.90698 9.28153 3.96528 9.28136 4.02428 9.28118C4.07569 9.28103 4.12728 9.28088 4.17828 9.28073C4.18552 9.28071 4.19278 9.28068 4.20018 9.28066C4.32018 9.2803 4.44118 9.2799 4.56118 9.27947C4.62888 9.27923 4.69619 9.27902 4.76418 9.27885C4.82779 9.27869 4.89118 9.27849 4.95518 9.27826C4.97858 9.27818 5.00199 9.27812 5.02539 9.27808C5.05719 9.27802 5.08898 9.2779 5.12078 9.27776C5.13017 9.27776 5.13959 9.27776 5.14918 9.27775C5.18968 9.28162 5.18969 9.28162 5.22378 9.26625C5.22465 9.23695 5.22492 9.20775 5.22484 9.17845C5.22597 8.94045 5.24063 8.71845 5.29374 8.48645C5.31064 8.41725 5.31064 8.41725 5.31374 8.34645C5.29094 8.33505 5.27844 8.33525 5.25304 8.33525C5.24447 8.33525 5.23593 8.33524 5.22704 8.33523C5.21758 8.33527 5.20814 8.33532 5.19834 8.33536C5.18833 8.33537 5.17834 8.33537 5.16804 8.33538C5.13423 8.33541 5.10053 8.33551 5.06703 8.33561C5.04293 8.33565 5.01873 8.33568 4.99464 8.3357C4.94253 8.33577 4.89064 8.33586 4.83863 8.33598C4.76324 8.33615 4.68763 8.33625 4.61263 8.33632C4.48963 8.33644 4.36763 8.33659 4.24463 8.33677C4.23729 8.33678 4.22993 8.33679 4.22243 8.33681C4.11843 8.33696 4.01443 8.33715 3.91043 8.33735C3.90312 8.33736 3.89583 8.33737 3.88833 8.33739C3.88103 8.3374 3.87373 8.33742 3.86624 8.33743C3.74424 8.33766 3.62223 8.33781 3.50023 8.3379C3.42503 8.33796 3.35023 8.33808 3.27423 8.33829C3.21653 8.33845 3.15924 8.3385 3.10123 8.33851C3.07764 8.33853 3.05403 8.33858 3.03043 8.33868C2.69643 8.33995 2.69643 8.33995 2.60443 8.26648C2.53713 8.19738 2.51304 8.12848 2.51004 8.03248C2.51137 7.96558 2.52343 7.91548 2.55443 7.85648C2.55835 7.8474 2.56227 7.83828 2.56633 7.82898C2.62273 7.75898 2.70433 7.72898 2.79133 7.71898C2.83453 7.71516 2.87783 7.71562 2.92133 7.71578C2.93183 7.71578 2.94233 7.71577 2.95314 7.71577C2.98813 7.71578 3.02323 7.71586 3.05814 7.71594C3.08333 7.71595 3.10843 7.71597 3.13363 7.71598C3.18773 7.71601 3.24164 7.71607 3.29563 7.71616C3.37403 7.71629 3.45264 7.71635 3.53063 7.71639C3.65763 7.71646 3.78563 7.71657 3.91263 7.71671C3.92403 7.71672 3.92404 7.71672 3.93574 7.71673C3.99754 7.7168 4.05974 7.71687 4.12074 7.71694C4.17474 7.717 4.22873 7.71706 4.28273 7.71712C4.29413 7.71713 4.29414 7.71713 4.30574 7.71714C4.43273 7.71728 4.55973 7.71738 4.68674 7.71745C4.76494 7.71749 4.84274 7.71757 4.92074 7.7177C4.98064 7.71779 5.04074 7.71783 5.10074 7.71786C5.12524 7.71788 5.14984 7.71791 5.17434 7.71797C5.20784 7.71804 5.24144 7.71805 5.27534 7.71805C5.28499 7.71808 5.29463 7.71812 5.30464 7.71816C5.41163 7.72484 5.41163 7.72484 5.50363 7.68816C5.50696 7.67998 5.51027 7.67176 5.51374 7.66336C5.51776 7.65414 5.52179 7.64496 5.52594 7.63546C5.52988 7.62546 5.53382 7.61536 5.53793 7.60506C5.54711 7.58396 5.55633 7.56286 5.56564 7.54176C5.5703 7.53096 5.57495 7.52016 5.57973 7.50906C5.60223 7.45906 5.62823 7.41116 5.65483 7.36306C5.65985 7.35396 5.66483 7.34486 5.67004 7.33546C5.76534 7.16346 5.86704 6.99846 5.98404 6.84046C6.00724 6.81156 6.00724 6.81156 6.01454 6.77656C6.00424 6.77654 6.00424 6.77654 5.99374 6.77653C5.58774 6.77594 5.18074 6.77521 4.77374 6.77427C4.72494 6.77415 4.67614 6.77404 4.62774 6.77393C4.61801 6.77391 4.60834 6.77389 4.59833 6.77386C4.44133 6.77351 4.28434 6.77326 4.12634 6.77305C3.96534 6.77283 3.80333 6.7725 3.64233 6.77207C3.54273 6.7718 3.44333 6.77163 3.34333 6.77156C3.27503 6.77151 3.20633 6.77135 3.13833 6.7711C3.09893 6.77096 3.05954 6.77087 3.02033 6.77091C2.98424 6.77094 2.94803 6.77084 2.91233 6.77062C2.89323 6.77055 2.87414 6.77062 2.85493 6.77069C2.75823 6.7699 2.64994 6.76319 2.57394 6.69659C2.49673 6.61099 2.47843 6.53759 2.48103 6.42259C2.48694 6.34739 2.51074 6.28159 2.56394 6.22659C2.62773 6.17689 2.69093 6.15409 2.77193 6.15419C2.77859 6.15417 2.78523 6.15415 2.79214 6.15412C2.81444 6.15407 2.83674 6.15417 2.85904 6.15426C2.87524 6.15425 2.89134 6.15424 2.90754 6.15421C2.95194 6.15417 2.99633 6.15425 3.04053 6.15435C3.08843 6.15444 3.13633 6.15441 3.18453 6.15439C3.26753 6.15437 3.35053 6.15442 3.43353 6.15451C3.56453 6.15464 3.69553 6.15456 3.82754 6.15445C3.87244 6.15442 3.91734 6.15439 3.96254 6.15435C3.97374 6.15434 3.98494 6.15434 3.99654 6.15433C4.12454 6.15424 4.25153 6.15419 4.37953 6.15416C4.39123 6.15415 4.40283 6.15415 4.41494 6.15415C4.60393 6.15411 4.79294 6.15422 4.98194 6.15437C5.17594 6.15452 5.36994 6.15444 5.56494 6.15416C5.68494 6.154 5.80494 6.15403 5.92394 6.1543C6.00604 6.15447 6.08793 6.15442 6.16994 6.1542C6.21734 6.15408 6.26464 6.15406 6.31194 6.1543C6.35534 6.15452 6.39864 6.15446 6.44194 6.15418C6.45764 6.15413 6.47334 6.15418 6.48894 6.15434C6.59794 6.1558 6.59794 6.1558 6.68994 6.10124C6.69463 6.09643 6.69933 6.09162 6.70413 6.08664C6.94614 5.90464 7.19913 5.73564 7.47413 5.60664C7.48216 5.60282 7.49024 5.599 7.49844 5.59504C7.64044 5.52744 7.78544 5.47004 7.93444 5.41704C7.94221 5.41421 7.94994 5.41137 7.95803 5.40846C8.14504 5.34056 8.34004 5.29546 8.53504 5.25946C8.54504 5.2576 8.55503 5.25573 8.56534 5.25381C8.78234 5.21611 8.99834 5.20171 9.21834 5.20321C9.23044 5.20325 9.24244 5.20328 9.25484 5.20332C9.46284 5.20406 9.66784 5.21342 9.87484 5.23692C9.8848 5.23799 9.89474 5.23906 9.90504 5.24016C10.026 5.25356 10.143 5.28236 10.261 5.31356C10.2724 5.31657 10.2839 5.31957 10.2956 5.32267C10.3109 5.32678 10.3109 5.32678 10.3265 5.33098C10.3536 5.3367 10.3771 5.33737 10.4047 5.33693C10.4054 5.14493 10.406 4.95393 10.4063 4.76193C10.4064 4.67293 10.4066 4.58393 10.407 4.49493C10.4073 4.41733 10.4075 4.33993 10.4076 4.26193C10.4076 4.22083 10.4077 4.17983 10.4079 4.13893C10.4081 4.10013 10.4082 4.06143 10.4081 4.02293C10.4081 4.00883 10.4082 3.99473 10.4083 3.98063C10.4093 3.85463 10.3988 3.72563 10.3366 3.61363C10.3331 3.60694 10.3295 3.60023 10.3259 3.59333C10.3158 3.57453 10.3054 3.55593 10.2948 3.53733C10.29 3.52868 10.2851 3.52003 10.2801 3.51113C10.1691 3.33013 9.97711 3.22213 9.77611 3.17313C9.70481 3.15973 9.63411 3.15583 9.56211 3.15603C9.54881 3.156 9.54881 3.156 9.53521 3.15598C9.50621 3.15593 9.47721 3.15596 9.44821 3.156C9.42801 3.15599 9.40771 3.15598 9.38751 3.15597C9.34521 3.15595 9.30301 3.15597 9.26051 3.15602C9.20621 3.15608 9.15151 3.15604 9.09751 3.15599C9.05581 3.15595 9.01401 3.15596 8.97251 3.15599C8.95251 3.15599 8.93241 3.15599 8.91241 3.15596C8.88451 3.15594 8.85671 3.15597 8.82881 3.15603C8.82048 3.15601 8.81211 3.15599 8.80361 3.15597C8.76661 3.15256 8.76661 3.15256 8.73561 3.16737C8.73454 3.18277 8.73415 3.19827 8.73403 3.21367C8.73392 3.22356 8.73382 3.23347 8.73372 3.24367C8.73364 3.25447 8.73357 3.26527 8.73349 3.27647C8.73321 3.29937 8.73293 3.32237 8.73264 3.34527C8.73223 3.38137 8.73186 3.41757 8.7316 3.45327C8.7291 3.76327 8.68089 4.00127 8.4546 4.22827C8.2626 4.40827 8.0216 4.46227 7.7666 4.46127C7.7478 4.46131 7.729 4.46137 7.7102 4.46143C7.6589 4.46158 7.60719 4.46153 7.55619 4.46146C7.50069 4.46141 7.4452 4.46154 7.3902 4.46164C7.2812 4.46181 7.1732 4.46182 7.0642 4.46177C6.9759 4.46173 6.8872 4.46174 6.7992 4.4618C6.7803 4.46181 6.7803 4.46181 6.7611 4.46182C6.7355 4.46183 6.70999 4.46185 6.68439 4.46186C6.51239 4.46196 6.34139 4.46201 6.16939 4.46193C6.16269 4.46193 6.156 4.46192 6.1491 4.46192C6.0947 4.4619 6.0401 4.46187 5.9861 4.46184C5.7741 4.46174 5.5621 4.46183 5.35009 4.46206C5.11109 4.46232 4.8731 4.46245 4.6341 4.46238C4.5081 4.46234 4.38109 4.46236 4.25509 4.46254C4.14809 4.46269 4.0401 4.46269 3.93309 4.46252C3.87829 4.46243 3.82309 4.46241 3.76909 4.46256C3.71879 4.4627 3.6681 4.46265 3.61809 4.46246C3.6 4.46243 3.58199 4.46245 3.56389 4.46256C3.33289 4.46381 3.13189 4.41086 2.94689 4.26756C2.94115 4.26172 2.93539 4.25586 2.92949 4.24986C2.91739 4.23526 2.91739 4.23526 2.89689 4.23756V4.21756C2.88569 4.20636 2.8744 4.19516 2.8631 4.18406C2.7021 4.01906 2.64709 3.81506 2.64409 3.59106C2.64391 3.57896 2.64373 3.56686 2.64354 3.55446C2.64275 3.50286 2.64207 3.45146 2.64139 3.39946C2.64087 3.36176 2.6403 3.32406 2.63972 3.28646C2.63951 3.26886 2.63951 3.26886 2.63931 3.25086C2.63906 3.23466 2.63905 3.23466 2.6388 3.21816C2.63867 3.20862 2.63855 3.19906 2.63842 3.18926C2.63929 3.16786 2.63929 3.16786 2.62692 3.15766C2.59922 3.15655 2.57182 3.15609 2.54422 3.15605C2.53553 3.156 2.52682 3.15595 2.51792 3.1559C2.48902 3.15575 2.46002 3.15568 2.43112 3.15563C2.41092 3.15557 2.39072 3.15551 2.37062 3.15546C2.32812 3.15535 2.28562 3.15529 2.24362 3.15526C2.18962 3.1552 2.13562 3.15497 2.08162 3.15468C2.03982 3.15449 1.99802 3.15444 1.95662 3.15442C1.93672 3.15439 1.91692 3.15432 1.89702 3.15418C1.80012 3.15358 1.70502 3.15523 1.60902 3.17088L1.6 3.16953ZM7.27 6.40953C7.2606 6.41618 7.2512 6.42283 7.2415 6.42973C7.1468 6.49743 7.0585 6.57073 6.9725 6.64973C6.9544 6.66603 6.9361 6.68183 6.9172 6.69723C6.8652 6.74073 6.8204 6.79103 6.7752 6.84123C6.77034 6.84656 6.76549 6.85193 6.7605 6.85733C6.75559 6.86272 6.75068 6.86813 6.7456 6.87363C6.731 6.88953 6.7163 6.90543 6.7016 6.92123C6.69447 6.92891 6.69447 6.92891 6.6872 6.93673C6.6741 6.95083 6.6609 6.96493 6.6478 6.97903C6.6132 7.01753 6.5821 7.05873 6.5508 7.10003C6.54258 7.11073 6.54258 7.11073 6.5342 7.12163C6.4415 7.24263 6.3582 7.36863 6.2812 7.49963C6.27682 7.50692 6.27245 7.51423 6.2679 7.52173C6.0769 7.84173 5.9489 8.20573 5.8709 8.57173C5.86805 8.58483 5.86805 8.58483 5.86514 8.59813C5.71114 9.31913 5.81094 10.1081 6.13114 10.7681C6.13448 10.7751 6.13781 10.782 6.14124 10.7892C6.21974 10.9522 6.30724 11.1092 6.41124 11.2582C6.41537 11.2642 6.41949 11.2702 6.42374 11.2763C6.48214 11.3608 6.54374 11.4403 6.61174 11.5183C6.61767 11.5253 6.62364 11.5322 6.62974 11.5393C6.74274 11.6703 6.86074 11.7953 6.99174 11.9083C6.99809 11.9138 7.00444 11.9192 7.01104 11.9249C7.11204 12.0117 7.21804 12.0899 7.32904 12.1629C7.34974 12.1766 7.37014 12.1907 7.39054 12.2049C8.12454 12.7079 9.06054 12.8429 9.93054 12.6859C9.98864 12.6747 10.0465 12.6616 10.1035 12.6475C10.1126 12.6453 10.1217 12.6432 10.1311 12.6409C10.2711 12.6068 10.4041 12.5594 10.5381 12.5069C10.5699 12.4948 10.602 12.4841 10.6344 12.4734C10.8504 12.3968 11.0564 12.2784 11.2434 12.1474C11.2501 12.1427 11.2568 12.1381 11.2637 12.1333C11.3687 12.0599 11.4677 11.9823 11.5637 11.8973C11.5711 11.8908 11.5784 11.8844 11.5859 11.8777C11.6473 11.8231 11.7069 11.7667 11.7649 11.7087C11.7796 11.694 11.7944 11.6794 11.8092 11.6647C11.8719 11.6024 11.9292 11.5377 11.9842 11.4677C11.99 11.4604 11.9958 11.4531 12.0018 11.4456C12.0775 11.3495 12.1488 11.2516 12.2138 11.1476C12.2187 11.1398 12.2236 11.132 12.2286 11.124C12.6206 10.494 12.8066 9.744 12.7536 9.004C12.753 8.99503 12.7524 8.9861 12.7518 8.9768C12.6994 8.2678 12.4078 7.5468 11.9338 7.0168C11.9271 7.00926 11.9271 7.00926 11.9203 7.0016C11.8053 6.8736 11.6863 6.7436 11.5503 6.6376C11.5253 6.618 11.5013 6.5976 11.4773 6.5768C11.4061 6.5153 11.3313 6.4598 11.2543 6.4068C11.2472 6.40199 11.2402 6.39718 11.233 6.3922C11.075 6.2842 10.912 6.1882 10.744 6.0972C10.7375 6.09366 10.7311 6.09011 10.7245 6.0865C9.85346 5.6105 8.68446 5.6805 7.27446 6.4075L7.27 6.40953ZM12.72 11.5195C12.7043 11.5419 12.6905 11.564 12.6769 11.5876C12.5857 11.7396 12.4769 11.8776 12.3599 12.0096C12.3486 12.0227 12.3374 12.0358 12.3261 12.049C12.1281 12.273 11.9081 12.462 11.6671 12.638C11.6598 12.6434 11.6525 12.6488 11.6449 12.6543C11.5952 12.6903 11.5439 12.7212 11.4899 12.7498C11.4957 12.7837 11.5065 12.8002 11.5308 12.8243C11.5401 12.8336 11.5401 12.8336 11.5496 12.8431C11.5593 12.8526 11.5593 12.8526 11.5693 12.8623C11.5758 12.8688 11.5822 12.8753 11.5889 12.882C11.6192 12.917 11.6192 12.917 11.6599 12.9298V12.9498C11.6729 12.9629 11.6729 12.9629 11.6908 12.977C11.7521 13.0291 11.8078 13.087 11.8648 13.144C11.8855 13.1649 11.9063 13.1858 11.9271 13.2066C11.9861 13.2659 12.0451 13.3256 12.1041 13.3846C12.1403 13.421 12.1765 13.4574 12.2131 13.4936C12.2269 13.5075 12.2407 13.5213 12.2544 13.5352C12.2735 13.5545 12.2927 13.5738 12.3119 13.593C12.3176 13.5988 12.3233 13.6046 12.3292 13.6105C12.3551 13.6402 12.3551 13.6402 12.3908 13.6497C12.3941 13.6596 12.3974 13.6695 12.4008 13.6797C12.415 13.6941 12.415 13.6941 12.4332 13.7084C12.49 13.7567 12.5422 13.8094 12.5942 13.8624C12.6129 13.8813 12.6317 13.9002 12.6504 13.919C12.7037 13.9725 12.7574 14.026 12.8104 14.08C12.8431 14.1129 12.8758 14.1458 12.9085 14.1787C12.921 14.1912 12.9334 14.2037 12.9458 14.2163C12.9631 14.2337 12.9804 14.2511 12.9977 14.2685C13.0028 14.2738 13.008 14.2789 13.0133 14.2843C13.0376 14.3117 13.0376 14.3117 13.0711 14.3197C13.0737 14.3257 13.0762 14.3316 13.0789 14.3377C13.0923 14.3619 13.1057 14.3743 13.127 14.3918C13.1731 14.4309 13.2152 14.473 13.258 14.5158C13.2745 14.5324 13.2909 14.5491 13.3074 14.5657C13.3329 14.5915 13.3584 14.6174 13.3839 14.6433C13.6059 14.8693 13.8289 15.0483 14.1599 15.0523C14.3809 15.0514 14.6119 14.9657 14.7719 14.8093V14.7893C14.7818 14.786 14.7917 14.7827 14.8019 14.7793C14.9609 14.6063 15.0609 14.3863 15.0539 14.1473C15.027 13.8453 14.8739 13.6403 14.6649 13.4313C14.6566 13.4231 14.6485 13.4148 14.64 13.4063C14.6127 13.3789 14.5854 13.3516 14.5581 13.3243C14.5384 13.3046 14.5188 13.2849 14.4991 13.2651C14.4459 13.2118 14.3931 13.1581 14.3391 13.1051C14.3058 13.0718 14.2726 13.0385 14.2394 13.0052C14.1473 12.913 14.0554 12.8212 13.9634 12.7282C13.9575 12.7224 13.9516 12.7164 13.9456 12.7104C13.9397 12.7045 13.9338 12.6986 13.9277 12.6925C13.9158 12.6806 13.9038 12.6686 13.8919 12.6567C13.8859 12.6508 13.8801 12.6449 13.874 12.6387C13.7777 12.5424 13.682 12.4457 13.585 12.3497C13.4862 12.2507 13.387 12.1517 13.288 12.0527C13.2325 11.9972 13.177 11.9417 13.122 11.8857C13.0749 11.8384 13.0277 11.7912 12.98 11.7437C12.9559 11.7196 12.9318 11.6955 12.9078 11.6714C12.8818 11.6453 12.8557 11.6193 12.8296 11.5932C12.8219 11.5855 12.8143 11.5778 12.8065 11.5698C12.7995 11.5629 12.7926 11.556 12.7854 11.5489C12.7793 11.5429 12.7734 11.5369 12.7672 11.5307C12.7503 11.5149 12.7503 11.5149 12.7208 11.518L12.72 11.5195Z" fill="#17A2B8"/>
<path d="M11.43 7.82976C11.5049 7.88766 11.559 7.95676 11.578 8.05076C11.5886 8.13616 11.5672 8.21176 11.5152 8.28076C11.5063 8.29126 11.4973 8.30176 11.4882 8.31216C11.4834 8.31781 11.4785 8.32346 11.4735 8.32926C11.4237 8.38656 11.3705 8.44026 11.3165 8.49426C11.3058 8.50496 11.2951 8.51576 11.2843 8.52656C11.2552 8.55576 11.2261 8.58486 11.1969 8.61396C11.1653 8.64546 11.1338 8.67706 11.1023 8.70866C11.0407 8.77036 10.9793 8.83166 10.9173 8.89366C10.8672 8.94376 10.8173 8.99366 10.7673 9.04366C10.7602 9.05081 10.753 9.05796 10.7456 9.06536C10.7311 9.07986 10.7165 9.09446 10.702 9.10896C10.566 9.24496 10.43 9.38096 10.294 9.51696C10.177 9.63396 10.061 9.74996 9.94402 9.86696C9.80802 10.003 9.67302 10.138 9.53702 10.274C9.52252 10.2885 9.50812 10.3029 9.49362 10.3174C9.48292 10.3281 9.48292 10.3281 9.47202 10.339C9.42192 10.389 9.37202 10.439 9.32202 10.489C9.26102 10.55 9.20002 10.611 9.13902 10.672C9.10792 10.7031 9.07682 10.7342 9.04572 10.7653C9.01722 10.7938 8.98872 10.8223 8.96022 10.8507C8.94992 10.861 8.93962 10.8713 8.92942 10.8816C8.83562 10.9758 8.74942 11.0606 8.61142 11.0716C8.45642 11.0678 8.35642 10.9546 8.25442 10.8526C8.24132 10.8395 8.22812 10.8264 8.21502 10.8134C8.17952 10.7781 8.14412 10.7426 8.10902 10.7074C8.07192 10.6702 8.03472 10.6331 7.99802 10.5964C7.93562 10.5341 7.87302 10.4714 7.81102 10.4094C7.73912 10.3373 7.66702 10.2654 7.59502 10.1934C7.53302 10.1315 7.47102 10.0694 7.40902 10.0074C7.37212 9.97036 7.33512 9.93346 7.29802 9.89636C7.26322 9.86166 7.22852 9.82696 7.19402 9.79236C7.18132 9.77966 7.16862 9.76696 7.15582 9.75426C6.97882 9.57826 6.97882 9.57826 6.97382 9.45026C6.97642 9.34926 7.01282 9.27526 7.08282 9.20426C7.14882 9.14676 7.22082 9.12036 7.30782 9.12256C7.38482 9.12826 7.43782 9.15546 7.49782 9.20256C7.50399 9.20733 7.51012 9.2121 7.51652 9.21706C7.55562 9.24896 7.58772 9.28486 7.62052 9.32306C7.64172 9.34656 7.66512 9.36596 7.68962 9.38596C7.70842 9.40276 7.72432 9.42036 7.74062 9.43956C7.77602 9.48056 7.81332 9.51916 7.85162 9.55756C7.85862 9.56458 7.86562 9.57156 7.87282 9.57886C7.89572 9.60186 7.91872 9.62476 7.94162 9.64766C7.95772 9.66376 7.97382 9.67986 7.98982 9.69596C8.02342 9.72956 8.05702 9.76316 8.09082 9.79696C8.13372 9.83986 8.17672 9.88276 8.21982 9.92596C8.25302 9.95916 8.28612 9.99236 8.31932 10.0255C8.33512 10.0413 8.35092 10.0571 8.36672 10.073C8.38892 10.0952 8.41102 10.1173 8.43322 10.1395C8.44286 10.1491 8.44286 10.1491 8.45272 10.159C8.48472 10.1908 8.51722 10.2222 8.55042 10.2528C8.5567 10.2586 8.56302 10.2645 8.56942 10.2705C8.58992 10.287 8.58992 10.287 8.62822 10.2832C8.64982 10.2675 8.64982 10.2675 8.67082 10.2454C8.67931 10.2369 8.68782 10.2285 8.69652 10.2198C8.7059 10.2102 8.71532 10.2008 8.72462 10.1913C8.73461 10.1813 8.74462 10.1713 8.75462 10.1613C8.78222 10.1338 8.80962 10.1061 8.83702 10.0785C8.86662 10.0487 8.89622 10.019 8.92592 9.98936C8.97732 9.93786 9.02892 9.88636 9.07992 9.83436C9.15412 9.75966 9.22892 9.68536 9.30292 9.61036C9.42392 9.48936 9.54392 9.36836 9.66492 9.24736C9.67214 9.24011 9.67932 9.23286 9.68682 9.22536C9.71612 9.19596 9.74532 9.16656 9.77462 9.13716C9.85512 9.05636 9.93562 8.97516 10.0156 8.89516C10.0264 8.88436 10.0264 8.88436 10.0374 8.87326C10.1574 8.75226 10.2774 8.63226 10.3984 8.51126C10.4726 8.43696 10.5464 8.36226 10.6204 8.28826C10.6712 8.23726 10.7224 8.18626 10.7724 8.13526C10.8017 8.10586 10.831 8.07646 10.8603 8.04696C10.8871 8.01996 10.914 7.99296 10.9409 7.96606C10.9552 7.95176 10.9694 7.93736 10.9836 7.92296C11.1136 7.79396 11.2596 7.73396 11.4296 7.83166L11.43 7.82976Z" fill="#17A2B8"/>
</g>
<defs>
<clipPath id="clip0_766_54977">
<rect width="16" height="16" fill="white"/>
</clipPath>
</defs>
</svg>
