<svg width="25" height="24" viewBox="0 0 25 24" fill="none" xmlns="http://www.w3.org/2000/svg">
<path d="M23.907 11.6962C23.8742 11.6222 23.0801 9.86062 21.3148 8.09531C18.9626 5.74312 15.9917 4.5 12.7217 4.5C9.45167 4.5 6.48073 5.74312 4.12855 8.09531C2.36323 9.86062 1.56542 11.625 1.53636 11.6962C1.49371 11.7922 1.47168 11.896 1.47168 12.0009C1.47168 12.1059 1.49371 12.2097 1.53636 12.3056C1.56917 12.3797 2.36323 14.1403 4.12855 15.9056C6.48073 18.2569 9.45167 19.5 12.7217 19.5C15.9917 19.5 18.9626 18.2569 21.3148 15.9056C23.0801 14.1403 23.8742 12.3797 23.907 12.3056C23.9496 12.2097 23.9717 12.1059 23.9717 12.0009C23.9717 11.896 23.9496 11.7922 23.907 11.6962ZM12.7217 18C9.83605 18 7.31511 16.9509 5.22823 14.8828C4.37196 14.0313 3.64347 13.0603 3.06542 12C3.64332 10.9396 4.37182 9.9686 5.22823 9.11719C7.31511 7.04906 9.83605 6 12.7217 6C15.6073 6 18.1282 7.04906 20.2151 9.11719C21.073 9.9684 21.8031 10.9394 22.3826 12C21.7067 13.2619 18.762 18 12.7217 18ZM12.7217 7.5C11.8317 7.5 10.9616 7.76392 10.2216 8.25839C9.48158 8.75285 8.90481 9.45566 8.56421 10.2779C8.22362 11.1002 8.1345 12.005 8.30814 12.8779C8.48177 13.7508 8.91035 14.5526 9.53969 15.182C10.169 15.8113 10.9709 16.2399 11.8438 16.4135C12.7167 16.5872 13.6215 16.4981 14.4437 16.1575C15.266 15.8169 15.9688 15.2401 16.4633 14.5001C16.9578 13.76 17.2217 12.89 17.2217 12C17.2204 10.8069 16.7459 9.66303 15.9023 8.81939C15.0586 7.97574 13.9148 7.50124 12.7217 7.5ZM12.7217 15C12.1283 15 11.5483 14.8241 11.055 14.4944C10.5616 14.1648 10.1771 13.6962 9.95003 13.148C9.72297 12.5999 9.66356 11.9967 9.77932 11.4147C9.89507 10.8328 10.1808 10.2982 10.6004 9.87868C11.0199 9.45912 11.5545 9.1734 12.1364 9.05764C12.7183 8.94189 13.3215 9.0013 13.8697 9.22836C14.4179 9.45542 14.8864 9.83994 15.2161 10.3333C15.5457 10.8266 15.7217 11.4067 15.7217 12C15.7217 12.7956 15.4056 13.5587 14.843 14.1213C14.2804 14.6839 13.5173 15 12.7217 15Z" fill="#2196F3"/>
</svg>
