<svg width="25" height="24" viewBox="0 0 25 24" fill="none" xmlns="http://www.w3.org/2000/svg">
<path d="M9.79062 0.0758209C7.84062 0.403946 6.26562 1.85707 5.74062 3.81176C5.65156 4.14457 5.63281 4.36488 5.61406 5.41957C5.59062 6.46488 5.57656 6.66176 5.51094 6.73207C5.20156 7.07895 5.09844 7.77738 5.27656 8.25082C5.4875 8.80863 5.9 9.17426 6.48125 9.31488L6.80937 9.39926L6.88906 9.77426C6.93594 10.0133 7.05312 10.3274 7.20781 10.6414C7.42344 11.0774 7.50312 11.1852 7.91562 11.593L8.375 12.0524V12.5868C8.375 13.0555 8.36562 13.1258 8.29062 13.168C8.24375 13.1914 7.09062 13.6461 5.73594 14.1711C3.04062 15.2164 2.87656 15.3008 2.3 15.868C1.91562 16.2524 1.63906 16.6977 1.45156 17.2274L1.32031 17.6024V20.5602V23.518L1.44687 23.6821C1.70937 24.0289 0.973438 24.0055 10.7469 23.9914L19.5125 23.9774L19.6859 23.8602C19.9906 23.6539 20.0469 23.4664 20.0469 22.6602V21.9618L20.45 21.8258C21.95 21.3149 23.1453 20.0118 23.5719 18.4321C23.7172 17.8836 23.7406 16.8524 23.6187 16.2664C23.2344 14.4149 21.8656 12.9618 20.0656 12.493C19.6625 12.3899 19.5078 12.3993 19.3953 12.5446C19.1656 12.8352 19.3156 13.0461 19.8359 13.1774C21.7812 13.6696 23.0891 15.4414 22.9859 17.4383C22.8922 19.2243 21.6687 20.743 19.9297 21.2446C19.6062 21.3383 19.4516 21.3524 18.8047 21.3477C18.1109 21.3477 18.0219 21.3336 17.6562 21.2164C16.1656 20.7243 15.125 19.6086 14.7687 18.1133C14.6469 17.6164 14.6609 16.768 14.7922 16.243C14.9937 15.4555 15.3547 14.8274 15.9312 14.2555C16.4516 13.7352 17.0094 13.4211 17.7875 13.1914C18.0078 13.1305 18.2281 13.0414 18.275 12.9993C18.4719 12.8211 18.2937 12.4227 18.0172 12.4227C17.5906 12.4227 16.4891 12.8727 15.9687 13.2618C15.8281 13.3696 15.5844 13.5805 15.4297 13.7305L15.1484 14.0071L14.0609 13.5805L12.9687 13.1586V12.5586V11.9586L13.3344 11.593C13.8781 11.0446 14.2344 10.3883 14.375 9.67113L14.4312 9.3852L14.6984 9.33363C15.4906 9.17895 16.0625 8.4852 16.0625 7.68363C16.0625 7.37895 15.9266 6.94301 15.7625 6.72738C15.6547 6.58676 15.65 6.55863 15.6312 5.41488C15.6078 4.33207 15.5984 4.20551 15.4859 3.77426C14.8109 1.25707 12.3406 -0.350742 9.79062 0.0758209ZM13.7656 7.40707C13.7656 9.01488 13.7281 9.50238 13.5594 9.96645C13.2266 10.8758 12.4906 11.5836 11.5625 11.8696C11.0609 12.0243 10.1844 12.0243 9.71562 11.8649C8.83437 11.5789 8.21094 11.0633 7.83594 10.3133C7.52187 9.6852 7.51719 9.65707 7.49375 7.8477L7.475 6.20238L8.19687 6.17426C8.59062 6.1602 9.10625 6.11332 9.33594 6.07113C10.3156 5.90238 11.3844 5.5227 12.2187 5.04457L12.6641 4.78676L13.2125 5.35863L13.7609 5.93051L13.7656 7.40707ZM14.8719 6.85863C15.0734 6.96176 15.2 7.12113 15.2844 7.37426C15.3781 7.65082 15.3781 7.76332 15.2891 8.02113C15.1766 8.3352 14.9609 8.52738 14.6 8.63051L14.4687 8.66801V7.68832V6.70863L14.6 6.74613C14.675 6.76957 14.7922 6.81645 14.8719 6.85863ZM6.78125 7.70707V8.66332L6.59844 8.61645C6.09687 8.48988 5.75469 7.86176 5.93281 7.39301C6.03594 7.12582 6.47187 6.7602 6.70156 6.75082C6.77656 6.75082 6.78125 6.82582 6.78125 7.70707ZM12.2656 12.8164V13.2571L11.4641 14.2508C11.0234 14.7946 10.6437 15.2258 10.625 15.2024C10.6062 15.1836 10.25 14.743 9.8375 14.2227L9.07812 13.2805V12.8539C9.07812 12.6149 9.0875 12.4227 9.10156 12.4227C9.11094 12.4227 9.20469 12.4555 9.29844 12.493C10.0391 12.7743 11.3328 12.7649 11.9937 12.4696C12.1062 12.4227 12.2094 12.3805 12.2328 12.3805C12.2516 12.3758 12.2656 12.5727 12.2656 12.8164ZM8.85312 14.143C8.99375 14.3211 9.34531 14.7477 9.63125 15.0993L10.1516 15.7414L9.37812 16.2899C8.95156 16.5899 8.59531 16.8289 8.58594 16.8196C8.53906 16.768 7.34375 14.3305 7.35781 14.3164C7.37656 14.293 8.525 13.8336 8.56719 13.8336C8.58594 13.8289 8.7125 13.9696 8.85312 14.143ZM13.3625 14.068L13.9953 14.3071L13.3625 15.5727C12.9266 16.4446 12.7156 16.8243 12.6734 16.8008C12.6453 16.7821 12.2937 16.5383 11.9 16.2571C11.2578 15.7977 11.1922 15.7368 11.2437 15.6618C11.3281 15.5446 12.7062 13.8336 12.7203 13.8289C12.7297 13.8289 13.0156 13.9368 13.3625 14.068ZM7.35312 15.9571C8.05156 17.3493 8.13125 17.4664 8.4125 17.5555C8.57187 17.6024 8.81094 17.5461 9.00781 17.4102C9.10625 17.3446 9.2 17.3118 9.21406 17.3352C9.22812 17.3586 9.3125 17.4852 9.40156 17.6164L9.55625 17.8602L9.09687 20.5789L8.6375 23.2977H6.93594H5.23437V21.1602C5.23437 19.8852 5.21562 18.9899 5.1875 18.943C5.16406 18.8961 5.08437 18.8305 5.00469 18.8024C4.89219 18.7555 4.84531 18.7555 4.72812 18.8164C4.65312 18.8539 4.57812 18.9243 4.55937 18.9618C4.54531 19.0039 4.53125 19.9977 4.53125 21.1696V23.2977L3.27969 23.2883L2.02344 23.2743V20.5086C2.02344 17.7477 2.02344 17.743 2.13125 17.4336C2.35156 16.7914 2.90469 16.1352 3.47656 15.8352C3.63594 15.7461 6.575 14.5836 6.64062 14.5789C6.65469 14.5789 6.97344 15.1977 7.35312 15.9571ZM14.6328 14.7196C14.5906 14.7946 14.5484 14.8602 14.5344 14.8602C14.525 14.8602 14.5437 14.7946 14.5859 14.7196C14.6281 14.6399 14.6703 14.5789 14.6844 14.5789C14.6937 14.5789 14.675 14.6399 14.6328 14.7196ZM14.2812 15.4508C14.1031 15.8586 13.9953 16.4071 13.9672 17.0164C13.8969 18.5821 14.5391 20.0071 15.7719 21.0149L16.1094 21.2961V22.2946V23.2977H14.4031H12.6969L12.6687 23.1664C12.6547 23.0961 12.5797 22.6602 12.5 22.1961C12.3687 21.4414 12.3406 21.343 12.2328 21.2446C12.0734 21.0993 11.8625 21.1227 11.7312 21.2961L11.6328 21.4274L11.7875 22.3274C11.8719 22.8243 11.9375 23.2414 11.9375 23.2602C11.9375 23.2836 11.4828 23.2977 10.9297 23.2977C10.0719 23.2977 9.92187 23.2883 9.92187 23.2274C9.92187 23.1899 10.1141 22.0414 10.3437 20.6774C10.5781 19.3086 10.7656 18.1789 10.7656 18.1649C10.7656 18.1508 10.8359 18.1414 10.9203 18.1414H11.0797L11.1828 18.7836C11.3562 19.8383 11.4031 20.0305 11.5156 20.1196C11.6516 20.2321 11.8016 20.2274 11.9562 20.1055C12.1156 19.9789 12.1109 19.9274 11.9187 18.7883L11.7641 17.8649L11.9516 17.5789C12.1297 17.3071 12.1437 17.2977 12.2375 17.368C12.5047 17.5649 12.725 17.6164 12.9547 17.5274C13.1984 17.4383 13.3203 17.2602 13.8359 16.2243C14.3187 15.2493 14.5016 14.9352 14.2812 15.4508ZM17.1875 21.8164C17.6984 22.0039 18.2 22.0883 18.7953 22.093L19.3484 22.0977L19.3344 22.6883L19.3203 23.2743L18.0687 23.2883L16.8125 23.2977V22.5008C16.8125 22.0649 16.8266 21.7039 16.8406 21.7039C16.8594 21.7039 17.0141 21.7555 17.1875 21.8164Z" fill="#8B8B8B"/>
<path d="M18.2286 13.5943C16.8645 13.8428 15.7302 14.8506 15.313 16.1959C15.1864 16.6084 15.1395 17.3912 15.2145 17.8365C15.4583 19.2193 16.5598 20.4146 17.9239 20.7709C18.4302 20.9068 19.227 20.9021 19.738 20.7709C20.7833 20.4943 21.6317 19.7959 22.1098 18.8209C22.4192 18.1834 22.5036 17.7756 22.4708 17.0443C22.452 16.6037 22.4192 16.3928 22.3208 16.1021C21.927 14.9162 20.9942 14.0256 19.8036 13.6881C19.4098 13.5756 18.6036 13.5287 18.2286 13.5943ZM19.602 14.3912C20.3895 14.5928 21.088 15.16 21.4489 15.8959C21.7723 16.5475 21.8473 17.1193 21.7067 17.799C21.4114 19.2475 20.127 20.2318 18.6692 20.1428C17.6098 20.0818 16.6583 19.449 16.2083 18.5021C15.988 18.0428 15.913 17.7053 15.913 17.185C15.9177 15.8631 16.8598 14.6771 18.1489 14.3631C18.5239 14.2693 19.1848 14.2834 19.602 14.3912Z" fill="#8B8B8B"/>
<path d="M19.3725 16.7822C18.9788 17.1666 18.6413 17.4854 18.6178 17.4854C18.5944 17.4854 18.435 17.3447 18.2616 17.176C18.0178 16.9322 17.9241 16.8713 17.8022 16.8666C17.6053 16.8619 17.4553 17.0072 17.4553 17.2088C17.4553 17.3354 17.5303 17.4291 17.971 17.865C18.3694 18.2635 18.5147 18.376 18.6132 18.376C18.7163 18.376 18.9225 18.2025 19.635 17.5229C20.6663 16.5338 20.7319 16.4307 20.4928 16.1963C20.4225 16.1213 20.3288 16.0791 20.2303 16.0791C20.1038 16.0791 19.9866 16.1729 19.3725 16.7822Z" fill="#8B8B8B"/>
</svg>
