<svg width="42" height="42" viewBox="0 0 42 42" fill="none" xmlns="http://www.w3.org/2000/svg">
<path d="M21 3.9375C17.6254 3.9375 14.3265 4.9382 11.5206 6.81305C8.71468 8.6879 6.52773 11.3527 5.23631 14.4705C3.94489 17.5882 3.607 21.0189 4.26536 24.3287C4.92372 27.6385 6.54876 30.6788 8.935 33.065C11.3212 35.4512 14.3615 37.0763 17.6713 37.7346C20.9811 38.393 24.4118 38.0551 27.5295 36.7637C30.6473 35.4723 33.3121 33.2853 35.187 30.4794C37.0618 27.6735 38.0625 24.3746 38.0625 21C38.0577 16.4762 36.2585 12.1391 33.0597 8.94027C29.8609 5.74146 25.5238 3.94228 21 3.9375ZM24.5536 26.6339C24.6755 26.7558 24.7723 26.9006 24.8383 27.0599C24.9043 27.2193 24.9382 27.39 24.9382 27.5625C24.9382 27.735 24.9043 27.9057 24.8383 28.0651C24.7723 28.2244 24.6755 28.3692 24.5536 28.4911C24.4317 28.613 24.2869 28.7098 24.1276 28.7758C23.9682 28.8418 23.7975 28.8757 23.625 28.8757C23.4526 28.8757 23.2818 28.8418 23.1225 28.7758C22.9631 28.7098 22.8184 28.613 22.6964 28.4911L16.1339 21.9286C16.0119 21.8067 15.9151 21.6619 15.849 21.5026C15.783 21.3433 15.749 21.1725 15.749 21C15.749 20.8275 15.783 20.6567 15.849 20.4974C15.9151 20.3381 16.0119 20.1933 16.1339 20.0714L22.6964 13.5089C22.8184 13.387 22.9631 13.2902 23.1225 13.2242C23.2818 13.1582 23.4526 13.1243 23.625 13.1243C23.7975 13.1243 23.9682 13.1582 24.1276 13.2242C24.2869 13.2902 24.4317 13.387 24.5536 13.5089C24.6755 13.6309 24.7723 13.7756 24.8383 13.9349C24.9043 14.0943 24.9382 14.265 24.9382 14.4375C24.9382 14.61 24.9043 14.7807 24.8383 14.9401C24.7723 15.0994 24.6755 15.2441 24.5536 15.3661L18.9181 21L24.5536 26.6339Z" fill="#2196F3"/>
</svg>
