<svg width="22" height="20" viewBox="0 0 22 20" fill="none" xmlns="http://www.w3.org/2000/svg">
<path d="M7.15439 0.194529C6.63877 0.374998 6.27353 0.697264 6.0458 1.18281L5.9083 1.4707L5.89541 2.42461L5.88252 3.38281H3.52783C2.03252 3.38281 1.08291 3.4 0.923923 3.43008C0.502829 3.50742 0.206345 3.75664 0.0645478 4.15195C0.00868845 4.31523 9.47066e-05 4.89531 9.47066e-05 8.57773C9.47066e-05 13.2441 -0.0127959 13.0336 0.262204 13.3645C0.335251 13.4547 0.468454 13.5664 0.562985 13.6094L0.730563 13.6953V16.2992C0.730563 17.9879 0.747751 18.9633 0.777829 19.0793C0.846579 19.3586 1.07431 19.6379 1.33642 19.7711L1.56416 19.8828H11.0001H20.436L20.6638 19.7711C20.9259 19.6379 21.1536 19.3586 21.2224 19.0793C21.2524 18.9633 21.2696 17.9879 21.2696 16.2992V13.6953L21.4372 13.6094C21.5317 13.5664 21.6649 13.4547 21.738 13.3645C22.013 13.0336 22.0001 13.2441 22.0001 8.57773C22.0001 4.89531 21.9915 4.31523 21.9356 4.15195C21.7938 3.75664 21.4974 3.50742 21.0763 3.43008C20.9173 3.4 19.9677 3.38281 18.4724 3.38281H16.1177L16.1048 2.42461L16.0919 1.4664L15.9329 1.14414C15.7353 0.744528 15.4517 0.465231 15.0478 0.276169L14.7599 0.13867L11.0645 0.130075C7.64424 0.121481 7.35205 0.125778 7.15439 0.194529ZM14.7384 0.937889C14.9962 1.0539 15.1595 1.21289 15.2798 1.4707C15.3786 1.67265 15.3829 1.73281 15.3829 2.53203V3.38281H15.0177H14.6524V2.58789C14.6524 1.79726 14.6524 1.78867 14.545 1.68554L14.4419 1.57812H11.0001H7.5583L7.45517 1.68554C7.34775 1.78867 7.34775 1.79726 7.34775 2.58789V3.38281H6.98252H6.61728V2.53203C6.61728 1.77148 6.63017 1.66406 6.70752 1.49219C6.82353 1.23437 6.98252 1.07109 7.24033 0.950779L7.45517 0.847654H11.0001C14.472 0.847654 14.5493 0.851952 14.7384 0.937889ZM13.922 2.8457V3.38281H11.0001H8.07822V2.8457V2.30859H11.0001H13.922V2.8457ZM20.9774 4.16054C21.2868 4.24219 21.2696 3.98008 21.2696 8.58203C21.2696 13.184 21.2868 12.9219 20.9774 13.0078C20.8099 13.0551 12.7231 14.168 12.5599 14.168C12.4653 14.168 12.461 14.1508 12.461 13.8285C12.461 13.2871 12.2892 12.9391 11.9067 12.7156C11.7134 12.6039 11.6919 12.5996 11.0001 12.5996C10.3083 12.5996 10.2868 12.6039 10.0935 12.7156C9.71103 12.9391 9.53916 13.2871 9.53916 13.8285C9.53916 14.1508 9.53486 14.168 9.44463 14.168C9.27705 14.168 1.19033 13.0551 1.02275 13.0078C0.713376 12.9219 0.730563 13.184 0.730563 8.58203C0.730563 4.01875 0.717673 4.24219 1.00127 4.16054C1.20322 4.10469 20.7712 4.10039 20.9774 4.16054ZM11.6188 13.4203L11.7306 13.5363V14.7309C11.7306 15.9984 11.7177 16.0973 11.5286 16.1832C11.3954 16.2434 10.6048 16.2434 10.4716 16.1832C10.2825 16.0973 10.2696 15.9984 10.2696 14.7309V13.5363L10.3813 13.4203C10.4931 13.3129 10.5145 13.3086 11.0001 13.3086C11.4856 13.3086 11.5071 13.3129 11.6188 13.4203ZM5.52158 14.3828C7.60127 14.6664 9.35439 14.9113 9.41884 14.9242L9.53486 14.9457L9.54775 15.5559C9.56064 16.2305 9.60791 16.3809 9.86142 16.6387C10.1321 16.9051 10.261 16.9395 11.0001 16.9395C11.7392 16.9395 11.8681 16.9051 12.1388 16.6387C12.3923 16.3809 12.4395 16.2305 12.4524 15.5559L12.4653 14.9457L12.5813 14.9242C12.6458 14.9113 14.3989 14.6664 16.4786 14.3828C18.5583 14.0992 20.3243 13.8543 20.4017 13.8414L20.5392 13.8156V16.3379C20.5392 18.9246 20.5349 18.9719 20.3716 19.0965C20.2728 19.1738 1.72744 19.1738 1.62861 19.0965C1.46533 18.9719 1.46103 18.9246 1.46103 16.3379V13.8156L1.60283 13.8414C1.67588 13.8543 3.44189 14.0992 5.52158 14.3828Z" fill="#2196F3"/>
</svg>
