<svg width="22" height="22" viewBox="0 0 22 22" fill="none" xmlns="http://www.w3.org/2000/svg">
<g clip-path="url(#clip0_541_12778)">
<path d="M7.15439 1.19453C6.63877 1.375 6.27353 1.69726 6.0458 2.18281L5.9083 2.4707L5.89541 3.42461L5.88252 4.38281H3.52783C2.03252 4.38281 1.08291 4.4 0.923923 4.43008C0.502829 4.50742 0.206345 4.75664 0.0645478 5.15195C0.00868845 5.31523 9.47066e-05 5.89531 9.47066e-05 9.57773C9.47066e-05 14.2441 -0.0127959 14.0336 0.262204 14.3645C0.335251 14.4547 0.468454 14.5664 0.562985 14.6094L0.730563 14.6953V17.2992C0.730563 18.9879 0.747751 19.9633 0.777829 20.0793C0.846579 20.3586 1.07431 20.6379 1.33642 20.7711L1.56416 20.8828H11.0001H20.436L20.6638 20.7711C20.9259 20.6379 21.1536 20.3586 21.2224 20.0793C21.2524 19.9633 21.2696 18.9879 21.2696 17.2992V14.6953L21.4372 14.6094C21.5317 14.5664 21.6649 14.4547 21.738 14.3645C22.013 14.0336 22.0001 14.2441 22.0001 9.57773C22.0001 5.89531 21.9915 5.31523 21.9356 5.15195C21.7938 4.75664 21.4974 4.50742 21.0763 4.43008C20.9173 4.4 19.9677 4.38281 18.4724 4.38281H16.1177L16.1048 3.42461L16.0919 2.4664L15.9329 2.14414C15.7353 1.74453 15.4517 1.46523 15.0478 1.27617L14.7599 1.13867L11.0645 1.13008C7.64424 1.12148 7.35205 1.12578 7.15439 1.19453ZM14.7384 1.93789C14.9962 2.0539 15.1595 2.21289 15.2798 2.4707C15.3786 2.67265 15.3829 2.73281 15.3829 3.53203V4.38281H15.0177H14.6524V3.58789C14.6524 2.79726 14.6524 2.78867 14.545 2.68554L14.4419 2.57812H11.0001H7.5583L7.45517 2.68554C7.34775 2.78867 7.34775 2.79726 7.34775 3.58789V4.38281H6.98252H6.61728V3.53203C6.61728 2.77148 6.63017 2.66406 6.70752 2.49219C6.82353 2.23437 6.98252 2.07109 7.24033 1.95078L7.45517 1.84765H11.0001C14.472 1.84765 14.5493 1.85195 14.7384 1.93789ZM13.922 3.8457V4.38281H11.0001H8.07822V3.8457V3.30859H11.0001H13.922V3.8457ZM20.9774 5.16054C21.2868 5.24219 21.2696 4.98008 21.2696 9.58203C21.2696 14.184 21.2868 13.9219 20.9774 14.0078C20.8099 14.0551 12.7231 15.168 12.5599 15.168C12.4653 15.168 12.461 15.1508 12.461 14.8285C12.461 14.2871 12.2892 13.9391 11.9067 13.7156C11.7134 13.6039 11.6919 13.5996 11.0001 13.5996C10.3083 13.5996 10.2868 13.6039 10.0935 13.7156C9.71103 13.9391 9.53916 14.2871 9.53916 14.8285C9.53916 15.1508 9.53486 15.168 9.44463 15.168C9.27705 15.168 1.19033 14.0551 1.02275 14.0078C0.713376 13.9219 0.730563 14.184 0.730563 9.58203C0.730563 5.01875 0.717673 5.24219 1.00127 5.16054C1.20322 5.10469 20.7712 5.10039 20.9774 5.16054ZM11.6188 14.4203L11.7306 14.5363V15.7309C11.7306 16.9984 11.7177 17.0973 11.5286 17.1832C11.3954 17.2434 10.6048 17.2434 10.4716 17.1832C10.2825 17.0973 10.2696 16.9984 10.2696 15.7309V14.5363L10.3813 14.4203C10.4931 14.3129 10.5145 14.3086 11.0001 14.3086C11.4856 14.3086 11.5071 14.3129 11.6188 14.4203ZM5.52158 15.3828C7.60127 15.6664 9.35439 15.9113 9.41884 15.9242L9.53486 15.9457L9.54775 16.5559C9.56064 17.2305 9.60791 17.3809 9.86142 17.6387C10.1321 17.9051 10.261 17.9395 11.0001 17.9395C11.7392 17.9395 11.8681 17.9051 12.1388 17.6387C12.3923 17.3809 12.4395 17.2305 12.4524 16.5559L12.4653 15.9457L12.5813 15.9242C12.6458 15.9113 14.3989 15.6664 16.4786 15.3828C18.5583 15.0992 20.3243 14.8543 20.4017 14.8414L20.5392 14.8156V17.3379C20.5392 19.9246 20.5349 19.9719 20.3716 20.0965C20.2728 20.1738 1.72744 20.1738 1.62861 20.0965C1.46533 19.9719 1.46103 19.9246 1.46103 17.3379V14.8156L1.60283 14.8414C1.67588 14.8543 3.44189 15.0992 5.52158 15.3828Z" fill="#2196F3"/>
</g>
<defs>
<clipPath id="clip0_541_12778">
<rect width="22" height="22" fill="white"/>
</clipPath>
</defs>
</svg>
