<svg width="24" height="24" viewBox="0 0 24 24" fill="none" xmlns="http://www.w3.org/2000/svg">
<path d="M8.70936 2.57305L8.55467 2.70898L8.54061 4.88398C8.53592 6.0793 8.54061 7.10586 8.55467 7.16211C8.59686 7.33555 8.80311 7.49961 8.97654 7.49961H9.12654L9.14998 7.96836C9.18748 8.76055 9.28592 8.76992 10.0781 8.03867L10.664 7.5043L12.9187 7.49961H15.1734L15.3 7.37305C15.3656 7.30742 15.4359 7.2043 15.45 7.15273C15.4594 7.09648 15.464 6.0793 15.4594 4.88398L15.4453 2.70898L15.2906 2.57305L15.1406 2.43711H12H8.85936L8.70936 2.57305ZM12.525 3.96992C12.6281 4.06367 12.6328 4.18555 12.5344 4.28398C12.4734 4.34961 12.3047 4.35898 11.4094 4.35898C10.7719 4.35898 10.3172 4.34023 10.2609 4.31211C10.1531 4.25117 10.1437 4.06367 10.2469 3.96523C10.3078 3.89961 10.4765 3.89023 11.3765 3.89023C12.3 3.89023 12.45 3.89961 12.525 3.96992ZM13.739 4.78086C13.8422 4.83711 13.8609 5.05742 13.7719 5.14648C13.6922 5.22617 10.3078 5.22617 10.2281 5.14648C10.1484 5.0668 10.1578 4.89336 10.2469 4.80898C10.3078 4.74336 10.5328 4.73398 11.9812 4.73398C13.0406 4.73398 13.6781 4.75273 13.739 4.78086ZM13.739 5.62461C13.8422 5.68086 13.8609 5.90117 13.7719 5.99023C13.6922 6.06992 10.3078 6.06992 10.2281 5.99023C10.1484 5.91055 10.1578 5.73711 10.2469 5.65273C10.3078 5.58711 10.5328 5.57773 11.9812 5.57773C13.0406 5.57773 13.6781 5.59648 13.739 5.62461Z" fill="#8B8B8B"/>
<path d="M4.18125 5.39011C2.60156 5.8073 1.67812 7.42449 2.15156 8.95261C2.40937 9.77761 3.09375 10.4948 3.9 10.7807C4.52344 11.0011 5.06719 11.0057 5.72812 10.7995C6.6 10.5229 7.33125 9.74011 7.56562 8.82605C7.65937 8.46043 7.65937 7.78543 7.57031 7.42918C7.43906 6.9323 7.22344 6.56668 6.82031 6.15418C6.525 5.85418 6.36094 5.7323 6.08906 5.60105C5.44687 5.29636 4.80937 5.22605 4.18125 5.39011Z" fill="#8B8B8B"/>
<path d="M18.4781 5.39022C17.4844 5.65272 16.7203 6.39335 16.425 7.38241C16.3031 7.79491 16.3078 8.50272 16.4391 8.92929C16.7016 9.76835 17.3906 10.4949 18.1969 10.7808C19.2469 11.1465 20.3578 10.898 21.1359 10.1152C22.6969 8.5496 21.9609 5.94335 19.8 5.39022C19.35 5.27304 18.9234 5.27304 18.4781 5.39022Z" fill="#8B8B8B"/>
<path d="M2.92971 11.7375C2.36721 11.8734 1.79533 12.3609 1.58439 12.8766L1.47658 13.1484L1.46252 15.9469L1.44846 18.75H2.74221C3.45002 18.75 4.03127 18.7406 4.03127 18.7313C4.03127 18.7172 3.67971 17.7844 3.24846 16.6547L2.46096 14.6016V14.1563C2.46096 13.7391 2.47033 13.6922 2.62033 13.4156C2.88283 12.9328 3.32814 12.6375 3.87658 12.5813C4.42971 12.5203 5.06721 12.8203 5.36252 13.2797C5.45158 13.4203 5.81252 14.2969 6.21096 15.3609L6.90471 17.2031H7.18127H7.45783L7.44377 15.15L7.42971 13.1016L7.27971 12.7922C7.00783 12.2391 6.50627 11.85 5.91564 11.7234C5.57346 11.6531 3.23908 11.6625 2.92971 11.7375Z" fill="#8B8B8B"/>
<path d="M18.0469 11.7234C17.5078 11.8266 16.9922 12.2438 16.725 12.7828L16.5703 13.1016L16.5563 15.15L16.5422 17.2031H16.8188H17.0953L17.7891 15.3609C18.1781 14.3297 18.5485 13.4203 18.6328 13.2844C18.8344 12.975 19.261 12.6844 19.6266 12.6094C20.3531 12.4547 21.0563 12.7969 21.4078 13.4625C21.525 13.6828 21.5391 13.7625 21.5391 14.1563V14.6016L20.7563 16.6359C20.3203 17.7563 19.9688 18.6891 19.9688 18.7078C19.9688 18.7313 20.55 18.75 21.2578 18.75H22.5469V16.0875C22.5469 13.1953 22.5422 13.1297 22.2797 12.6469C22.1344 12.3797 21.7969 12.0469 21.525 11.9109C21.1125 11.7 20.8688 11.6719 19.5235 11.6766C18.8297 11.6813 18.1641 11.7 18.0469 11.7234Z" fill="#8B8B8B"/>
<path d="M3.62809 13.1063C3.38434 13.1953 3.10778 13.4578 2.99528 13.7063C2.80778 14.1188 2.83591 14.2406 3.63747 16.3406C4.04059 17.3953 4.41091 18.3703 4.46247 18.5016L4.55153 18.75H7.67341H10.7906L10.7578 18.5766C10.6875 18.1875 10.4531 17.9063 10.064 17.7422C9.92341 17.6859 9.61872 17.6719 8.24059 17.6719H6.58591L5.81247 15.6516C4.98278 13.4859 4.92184 13.3641 4.53278 13.1672C4.28434 13.0406 3.87653 13.0125 3.62809 13.1063Z" fill="#8B8B8B"/>
<path d="M19.6453 13.0875C19.4157 13.1531 19.1719 13.3312 19.036 13.5375C18.9657 13.6312 18.5766 14.6062 18.1641 15.6937L17.4141 17.6719H15.75C14.1047 17.6719 14.0813 17.6719 13.8516 17.7844C13.5 17.9437 13.3125 18.1922 13.2422 18.5812L13.2094 18.75H16.3266H19.4485L19.5375 18.5016C19.5891 18.3703 19.9594 17.3953 20.3625 16.3406C20.9953 14.6859 21.0938 14.3859 21.0938 14.1609C21.0891 13.4016 20.3766 12.8766 19.6453 13.0875Z" fill="#8B8B8B"/>
<path d="M0.342188 19.3125C0.0515625 19.4906 0.0234375 19.5797 0.0234375 20.3906C0.0234375 21.2016 0.0515625 21.2906 0.342188 21.4687C0.4875 21.5625 0.675 21.5625 12 21.5625C23.325 21.5625 23.5125 21.5625 23.6578 21.4687C23.9484 21.2906 23.9766 21.2016 23.9766 20.3859C23.9766 19.5562 23.9484 19.4672 23.6203 19.3031C23.4703 19.2234 22.8188 19.2187 11.9766 19.2187C0.675 19.2187 0.4875 19.2187 0.342188 19.3125Z" fill="#8B8B8B"/>
</svg>
