<svg width="25" height="24" viewBox="0 0 25 24" fill="none" xmlns="http://www.w3.org/2000/svg">
<path d="M22.1948 4.15669C22.1948 4.15669 22.1948 4.16607 22.1948 4.17075L16.7386 22.1651C16.656 22.4574 16.486 22.7174 16.2514 22.9103C16.0168 23.1032 15.7288 23.2197 15.4261 23.2442C15.383 23.2479 15.3398 23.2498 15.2967 23.2498C15.013 23.2507 14.735 23.1704 14.4955 23.0184C14.2559 22.8664 14.0649 22.6491 13.9448 22.392L10.597 15.3242C10.564 15.2543 10.5534 15.1758 10.5666 15.0996C10.5799 15.0234 10.6164 14.9532 10.6711 14.8986L16.0392 9.5295C16.1739 9.38771 16.2479 9.19889 16.2454 9.00332C16.2429 8.80775 16.1641 8.6209 16.0258 8.4826C15.8875 8.34429 15.7007 8.26549 15.5051 8.26299C15.3095 8.26048 15.1207 8.33448 14.9789 8.46919L9.60234 13.8373C9.5477 13.892 9.47746 13.9285 9.40127 13.9418C9.32507 13.9551 9.24664 13.9444 9.17672 13.9114L2.14547 10.5804C1.86932 10.4539 1.63693 10.2483 1.47772 9.98963C1.3185 9.73095 1.23963 9.43085 1.25109 9.12732C1.26636 8.81535 1.3793 8.51607 1.57395 8.2718C1.7686 8.02752 2.0351 7.85061 2.33578 7.76607L20.3302 2.30982H20.3442C20.6004 2.23784 20.8712 2.23531 21.1287 2.30251C21.3862 2.3697 21.6211 2.50419 21.8095 2.69217C21.9979 2.88016 22.1328 3.11487 22.2006 3.37224C22.2683 3.6296 22.2663 3.90034 22.1948 4.15669Z" fill="white"/>
</svg>
