<svg width="17" height="17" viewBox="0 0 17 17" fill="none" xmlns="http://www.w3.org/2000/svg">
<g clip-path="url(#clip0_766_57754)">
<path d="M6.58086 0.0531349C5.19961 0.285557 4.08398 1.31485 3.71211 2.69942C3.64902 2.93517 3.63574 3.09122 3.62246 3.83829C3.60586 4.57872 3.5959 4.71818 3.54941 4.76798C3.33027 5.01368 3.25723 5.50841 3.3834 5.84376C3.53281 6.23888 3.825 6.49786 4.23672 6.59747L4.46914 6.65724L4.52559 6.92286C4.55879 7.0922 4.6418 7.31466 4.75137 7.53712C4.9041 7.84591 4.96055 7.92228 5.25273 8.21114L5.57812 8.53654V8.91505C5.57812 9.24708 5.57148 9.29689 5.51836 9.32677C5.48516 9.34337 4.66836 9.66544 3.70879 10.0373C1.79961 10.7777 1.6834 10.8375 1.275 11.2393C1.00273 11.5115 0.806836 11.827 0.674023 12.2022L0.581055 12.4678V14.5629V16.658L0.670703 16.7742C0.856641 17.0199 0.335352 17.0033 7.2582 16.9934L13.4672 16.9834L13.59 16.9004C13.8059 16.7543 13.8457 16.6215 13.8457 16.0504V15.5557L14.1313 15.4594C15.1938 15.0975 16.0404 14.1744 16.3426 13.0555C16.4455 12.667 16.4621 11.9365 16.3758 11.5215C16.1035 10.21 15.134 9.18068 13.859 8.84864C13.5734 8.7756 13.4639 8.78224 13.3842 8.88517C13.2314 9.08107 13.3477 9.2338 13.7195 9.32677C14.7256 9.58243 15.549 10.3826 15.8379 11.392C15.9309 11.7108 15.9641 12.3615 15.9043 12.6969C15.7018 13.849 14.8451 14.7721 13.7162 15.0643C13.1418 15.2104 12.4645 15.1705 11.9166 14.958C10.7777 14.5098 10.0273 13.4174 10.0273 12.2022C10.0273 11.2326 10.5088 10.3162 11.3023 9.76505C11.6443 9.52931 11.8768 9.4297 12.3781 9.29689C12.6371 9.23048 12.7201 9.06447 12.5807 8.88517C12.5342 8.8254 12.4811 8.79884 12.408 8.79884C12.1059 8.79884 11.3256 9.11759 10.957 9.39318C10.8574 9.46954 10.6848 9.61896 10.5752 9.72521L10.376 9.92111L9.60566 9.61896L8.83203 9.32013V8.89513V8.47013L9.09102 8.21114C9.47617 7.82267 9.72852 7.35782 9.82812 6.84982L9.86797 6.64728L10.0572 6.61075C10.6184 6.50118 11.0234 6.00978 11.0234 5.442C11.0234 5.22618 10.9271 4.91739 10.8109 4.76466C10.7346 4.66505 10.7312 4.64513 10.718 3.83497C10.7014 3.06798 10.6947 2.97833 10.615 2.67286C10.1369 0.889854 8.38711 -0.249014 6.58086 0.0531349ZM7.91895 0.594347C8.99141 0.873253 9.80488 1.68341 10.1303 2.79239C10.1867 2.99493 10.2033 3.15431 10.2166 3.68224C10.2332 4.25665 10.2299 4.32306 10.1834 4.30646C10.1535 4.2965 10.0771 4.27657 10.0141 4.26329C9.92109 4.24669 9.89453 4.22677 9.89453 4.17032C9.89453 4.13048 9.86797 4.05079 9.83809 3.99103C9.75508 3.84493 8.96816 2.99493 8.85859 2.93517C8.69922 2.85216 8.50332 2.8754 8.28418 3.00821C7.30469 3.59923 6.27871 3.88478 5.1332 3.88478C4.75137 3.88478 4.75137 3.88478 4.63184 3.98771C4.56875 4.04415 4.50566 4.12716 4.4957 4.17032C4.47578 4.25001 4.44922 4.26661 4.23672 4.30314L4.11055 4.32638L4.12383 3.66564C4.13711 3.06798 4.14707 2.97833 4.23008 2.70607C4.4625 1.93907 5.00039 1.26837 5.69102 0.879892C5.94668 0.73712 6.20234 0.644152 6.57422 0.561144C6.93945 0.478136 7.53047 0.494738 7.91895 0.594347ZM9.02461 3.79513L9.39981 4.20021L9.38652 5.44532C9.37324 6.83986 9.36992 6.84982 9.12422 7.33458C8.78555 8.00861 8.10488 8.45021 7.33789 8.49005C6.27871 8.54982 5.37891 7.9588 5.05684 6.99259C4.96719 6.72364 4.96719 6.72364 4.95391 5.55157L4.94395 4.38282H5.22285C6.28203 4.38282 7.41094 4.084 8.3041 3.56935C8.47676 3.46974 8.62285 3.39005 8.63281 3.39005C8.64277 3.39337 8.81875 3.57599 9.02461 3.79513ZM4.43262 6.13595C4.39941 6.16915 4.12383 6.03634 4.01758 5.93341C3.87813 5.79728 3.81836 5.6545 3.81836 5.45529C3.81836 5.15978 4.02422 4.89083 4.33301 4.79122L4.43262 4.75802L4.44258 5.43868C4.4459 5.81388 4.44258 6.12599 4.43262 6.13595ZM10.1834 4.85431C10.6748 5.14982 10.6184 5.87032 10.0871 6.08947C10.0174 6.11935 9.94766 6.14259 9.92773 6.14259C9.90781 6.14259 9.89453 5.90353 9.89453 5.44532V4.74806L9.9875 4.76798C10.0373 4.78126 10.1236 4.81779 10.1834 4.85431ZM8.33398 9.08439V9.39982L7.78281 10.0805C7.48066 10.4524 7.22168 10.7645 7.2084 10.7711C7.19512 10.7811 6.93613 10.4789 6.63066 10.1004L6.07617 9.41642V9.10431C6.07617 8.82208 6.08281 8.7922 6.13594 8.8088C6.86973 9.05118 7.56367 9.05782 8.12813 8.83536C8.21445 8.79884 8.29414 8.77228 8.31074 8.76896C8.32402 8.76564 8.33398 8.90841 8.33398 9.08439ZM6.29863 10.4822L6.83652 11.1496L6.28867 11.5381C5.98652 11.7539 5.73418 11.9233 5.73086 11.9166C5.69102 11.8734 4.84766 10.1502 4.85762 10.1369C4.89082 10.107 5.69434 9.79825 5.72422 9.80822C5.74414 9.81154 5.9998 10.117 6.29863 10.4822ZM9.11758 9.96427L9.55918 10.1369L9.11094 11.0301C8.79883 11.651 8.65273 11.9166 8.62285 11.9C8.51328 11.8336 7.60352 11.1795 7.58691 11.1563C7.57363 11.133 8.62949 9.79825 8.6627 9.79493C8.67266 9.79493 8.8752 9.8713 9.11758 9.96427ZM4.86094 11.3024C5.36562 12.3317 5.40547 12.3881 5.64785 12.4346C5.77402 12.4578 5.97324 12.3947 6.08613 12.2951C6.12598 12.2586 6.15586 12.2486 6.16914 12.2719C6.18242 12.2918 6.24219 12.3848 6.30527 12.4811L6.41816 12.6537L6.09609 14.5529C5.92012 15.5988 5.77734 16.4621 5.77734 16.4754C5.77734 16.492 5.23281 16.502 4.56543 16.502H3.35352V14.9813C3.35352 13.5137 3.3502 13.4572 3.28711 13.3908C3.20078 13.2945 3.10449 13.2713 3.01484 13.3178C2.85547 13.4041 2.85879 13.3776 2.85547 14.9813V16.502H1.95898H1.0625V14.5994C1.0625 12.5176 1.0625 12.5076 1.26172 12.0992C1.43438 11.7473 1.78301 11.382 2.125 11.2061C2.24785 11.1397 4.31309 10.3295 4.35957 10.3262C4.37285 10.3262 4.59863 10.7645 4.86094 11.3024ZM10.0107 10.4258C9.98086 10.4789 9.95098 10.5254 9.94102 10.5254C9.93437 10.5254 9.94766 10.4789 9.97754 10.4258C10.0074 10.3693 10.0373 10.3262 10.0473 10.3262C10.0539 10.3262 10.0406 10.3693 10.0107 10.4258ZM9.7252 11.0533C9.23711 12.4313 9.68203 13.9785 10.8342 14.8983L11.0566 15.0776V15.7881V16.502H9.84473H8.63281L8.61621 16.4256C8.60625 16.3858 8.55645 16.077 8.5 15.7383C8.41035 15.1871 8.39043 15.1174 8.31406 15.0477C8.18125 14.9315 8.03184 14.9547 7.95215 15.1074C7.90898 15.1871 7.91563 15.2668 8.01523 15.8512L8.1248 16.502H7.19512H6.26875L6.28535 16.409C6.29531 16.3592 6.43477 15.5391 6.59414 14.5828L6.88965 12.8496H7.19512C7.45742 12.8496 7.50059 12.8563 7.51719 12.9061C7.52383 12.9393 7.57031 13.2115 7.62012 13.5137C7.71973 14.1479 7.74297 14.2209 7.85586 14.274C7.97207 14.3272 8.01523 14.3205 8.11484 14.2408C8.22773 14.1512 8.22441 14.1147 8.08828 13.3078L7.97871 12.6537L8.11152 12.4512L8.24434 12.252L8.33066 12.3084C8.56309 12.4578 8.65273 12.4777 8.82207 12.4147C8.99473 12.3516 9.08105 12.2254 9.44629 11.4916C9.64551 11.0899 9.81152 10.7645 9.81484 10.7678C9.82148 10.7711 9.77832 10.9006 9.7252 11.0533ZM7.54707 11.7539L7.83926 11.9598L7.78281 12.0494C7.74961 12.0959 7.69316 12.1856 7.65664 12.242L7.58691 12.3516H7.20176H6.8166L6.69375 12.169C6.62734 12.0693 6.57422 11.9764 6.57754 11.9631C6.57754 11.9166 7.15527 11.5248 7.20508 11.5348C7.23164 11.5414 7.3877 11.6377 7.54707 11.7539ZM11.8203 15.4527C12.1822 15.5822 12.5342 15.6453 12.9592 15.6453L13.351 15.6486L13.341 16.067L13.3311 16.4854L12.4445 16.4953L11.5547 16.502V15.9375C11.5547 15.6287 11.5646 15.3731 11.5746 15.3731C11.5879 15.3731 11.6975 15.4096 11.8203 15.4527Z" fill="#07C271"/>
<path d="M12.8162 9.62227C12.0757 9.66543 11.2921 10.1004 10.8904 10.6914C10.5484 11.1928 10.4123 11.6211 10.4156 12.1855C10.4156 12.657 10.4754 12.9293 10.6746 13.3311C10.9302 13.8557 11.3552 14.2807 11.8666 14.5264C12.2584 14.7123 12.4742 14.7555 12.9988 14.7588C13.4205 14.7588 13.4902 14.7488 13.7525 14.6658C14.6324 14.377 15.2765 13.6863 15.5089 12.7832C15.5754 12.5176 15.5687 11.8303 15.4923 11.558C15.1603 10.3461 14.058 9.54922 12.8162 9.62227ZM13.4968 10.1801C13.8488 10.2631 14.1642 10.4424 14.4431 10.7213C15.2732 11.5414 15.2798 12.843 14.4564 13.6697C14.1742 13.952 13.7392 14.1844 13.3673 14.2475C12.0824 14.4666 10.9136 13.5037 10.9103 12.2188C10.907 11.8336 10.9568 11.6178 11.1261 11.2691C11.5511 10.3926 12.524 9.94766 13.4968 10.1801Z" fill="#07C271"/>
<path d="M13.3543 11.8997L12.8297 12.411L12.5939 12.1819C12.3947 11.9893 12.3416 11.9528 12.2453 11.9528C12.1025 11.9528 12.0162 12.0391 12.0129 12.1852C12.0095 12.2749 12.056 12.3346 12.3349 12.6168C12.6968 12.9821 12.7998 13.0452 12.9226 12.9788C13.0488 12.909 14.1711 11.8133 14.2109 11.717C14.2408 11.6473 14.2375 11.6075 14.1976 11.5278C14.1711 11.4747 14.1213 11.4215 14.0947 11.4083C13.9386 11.3485 13.8822 11.3883 13.3543 11.8997Z" fill="#07C271"/>
</g>
<defs>
<clipPath id="clip0_766_57754">
<rect width="17" height="17" fill="white"/>
</clipPath>
</defs>
</svg>
