<svg width="14" height="15" viewBox="0 0 14 15" fill="none" xmlns="http://www.w3.org/2000/svg">
<path d="M9.93453 7.80977L5.55953 12.1848C5.51888 12.2254 5.47063 12.2577 5.41752 12.2797C5.36441 12.3017 5.30748 12.313 5.25 12.313C5.19251 12.313 5.13559 12.3017 5.08248 12.2797C5.02937 12.2577 4.98112 12.2254 4.94047 12.1848C4.89982 12.1441 4.86758 12.0959 4.84558 12.0428C4.82358 11.9897 4.81226 11.9327 4.81226 11.8752C4.81226 11.8178 4.82358 11.7608 4.84558 11.7077C4.86758 11.6546 4.89982 11.6064 4.94047 11.5657L9.00648 7.50024L4.94047 3.43477C4.85837 3.35268 4.81226 3.24134 4.81226 3.12524C4.81226 3.00915 4.85837 2.8978 4.94047 2.81571C5.02256 2.73362 5.1339 2.6875 5.25 2.6875C5.3661 2.6875 5.47744 2.73362 5.55953 2.81571L9.93453 7.19071C9.97521 7.23134 10.0075 7.2796 10.0295 7.33271C10.0515 7.38582 10.0628 7.44275 10.0628 7.50024C10.0628 7.55774 10.0515 7.61467 10.0295 7.66778C10.0075 7.72089 9.97521 7.76914 9.93453 7.80977Z" fill="#4A4A4A"/>
</svg>
