<svg width="12" height="8" viewBox="0 0 12 8" fill="none" xmlns="http://www.w3.org/2000/svg">
<path d="M-0.000217438 0.803707C-0.000724792 0.698543 0.0160875 0.594294 0.0492573 0.496937C0.0824261 0.39958 0.131301 0.31103 0.193076 0.236365C0.255038 0.161469 0.328756 0.102022 0.409979 0.0614545C0.491201 0.0208866 0.578321 0 0.66631 0C0.754299 0 0.841418 0.0208866 0.922641 0.0614545C1.00386 0.102022 1.07758 0.161469 1.13954 0.236365L5.99853 6.0696L10.8575 0.236365C10.983 0.0858961 11.1532 0.00136408 11.3307 0.00136408C11.4186 0.00136408 11.5057 0.0221168 11.5869 0.0624383C11.6681 0.10276 11.7418 0.16186 11.804 0.236365C11.8661 0.310869 11.9154 0.399318 11.9491 0.496663C11.9827 0.594008 12 0.698341 12 0.803707C12 1.0165 11.9295 1.22058 11.804 1.37105L6.47176 7.76364C6.4098 7.83853 6.33608 7.89798 6.25486 7.93855C6.17364 7.97911 6.08652 8 5.99853 8C5.91054 8 5.82342 7.97911 5.7422 7.93855C5.66097 7.89798 5.58726 7.83853 5.52529 7.76364L0.193076 1.37105C0.131301 1.29638 0.0824261 1.20783 0.0492573 1.11048C0.0160875 1.01312 -0.000724792 0.90887 -0.000217438 0.803707Z" fill="#BBB9B9"/>
</svg>
