<svg width="42" height="42" viewBox="0 0 42 42" fill="none" xmlns="http://www.w3.org/2000/svg">
<path d="M22.9688 21C22.9688 21.3894 22.8533 21.77 22.637 22.0938C22.4206 22.4175 22.1131 22.6699 21.7534 22.8189C21.3937 22.9679 20.9978 23.0069 20.6159 22.9309C20.234 22.855 19.8832 22.6675 19.6079 22.3921C19.3325 22.1168 19.145 21.766 19.0691 21.3841C18.9931 21.0022 19.0321 20.6063 19.1811 20.2466C19.3301 19.8869 19.5825 19.5794 19.9062 19.363C20.23 19.1467 20.6106 19.0313 21 19.0313C21.5221 19.0313 22.0229 19.2387 22.3921 19.6079C22.7613 19.9771 22.9688 20.4779 22.9688 21ZM21 11.8125C21.3894 11.8125 21.77 11.697 22.0938 11.4807C22.4175 11.2644 22.6699 10.9569 22.8189 10.5972C22.9679 10.2374 23.0069 9.84157 22.9309 9.45967C22.855 9.07777 22.6675 8.72697 22.3921 8.45163C22.1168 8.1763 21.766 7.98879 21.3841 7.91283C21.0022 7.83687 20.6063 7.87585 20.2466 8.02486C19.8869 8.17387 19.5794 8.42621 19.363 8.74997C19.1467 9.07373 19.0313 9.45437 19.0313 9.84375C19.0313 10.3659 19.2387 10.8667 19.6079 11.2359C19.9771 11.6051 20.4779 11.8125 21 11.8125ZM21 30.1875C20.6106 30.1875 20.23 30.303 19.9062 30.5193C19.5825 30.7356 19.3301 31.0431 19.1811 31.4028C19.0321 31.7626 18.9931 32.1584 19.0691 32.5403C19.145 32.9222 19.3325 33.273 19.6079 33.5484C19.8832 33.8237 20.234 34.0112 20.6159 34.0872C20.9978 34.1631 21.3937 34.1241 21.7534 33.9751C22.1131 33.8261 22.4206 33.5738 22.637 33.25C22.8533 32.9263 22.9688 32.5456 22.9688 32.1562C22.9688 31.6341 22.7613 31.1333 22.3921 30.7641C22.0229 30.3949 21.5221 30.1875 21 30.1875Z" fill="#2196F3"/>
</svg>
