<svg width="36" height="36" viewBox="0 0 36 36" fill="none" xmlns="http://www.w3.org/2000/svg">
<path d="M13.9359 0.112389C11.0109 0.604576 8.64844 2.78426 7.86094 5.7163C7.72734 6.21552 7.69922 6.54598 7.67109 8.12802C7.63594 9.69598 7.61484 9.9913 7.51641 10.0968C7.05234 10.6171 6.89766 11.6647 7.16484 12.3749C7.48125 13.2116 8.1 13.76 8.97187 13.971L9.46406 14.0975L9.58359 14.66C9.65391 15.0186 9.82969 15.4897 10.0617 15.9608C10.3852 16.6147 10.5047 16.7765 11.1234 17.3882L11.8125 18.0772V18.8788C11.8125 19.5819 11.7984 19.6874 11.6859 19.7507C11.6156 19.7858 9.88594 20.4679 7.85391 21.2554C3.81094 22.8233 3.56484 22.9499 2.7 23.8007C2.12344 24.3772 1.70859 25.0452 1.42734 25.8397L1.23047 26.4022V30.839V35.2757L1.42031 35.5218C1.81406 36.0421 0.710156 36.0069 15.3703 35.9858L28.5187 35.9647L28.7789 35.789C29.2359 35.4796 29.3203 35.1983 29.3203 33.989V32.9413L29.925 32.7374C32.175 31.971 33.968 30.0163 34.6078 27.6468C34.8258 26.8241 34.8609 25.2772 34.6781 24.3983C34.1016 21.621 32.0484 19.4413 29.3484 18.7382C28.7437 18.5835 28.5117 18.5975 28.343 18.8155C27.9984 19.2515 28.2234 19.5679 29.0039 19.7647C31.9219 20.503 33.8836 23.1608 33.7289 26.1561C33.5883 28.835 31.7531 31.1132 29.1445 31.8655C28.6594 32.0061 28.4273 32.0272 27.457 32.0202C26.4164 32.0202 26.2828 31.9991 25.7344 31.8233C23.4984 31.085 21.9375 29.4116 21.4031 27.1686C21.2203 26.4233 21.2414 25.1507 21.4383 24.3632C21.7406 23.1819 22.282 22.2397 23.1469 21.3819C23.9273 20.6015 24.7641 20.1304 25.9312 19.7858C26.2617 19.6944 26.5922 19.5608 26.6625 19.4975C26.9578 19.2304 26.6906 18.6327 26.2758 18.6327C25.6359 18.6327 23.9836 19.3077 23.2031 19.8913C22.9922 20.053 22.6266 20.3694 22.3945 20.5944L21.9727 21.0093L20.3414 20.3694L18.7031 19.7366V18.8366V17.9366L19.2516 17.3882C20.0672 16.5655 20.6016 15.5811 20.8125 14.5054L20.8969 14.0765L21.2977 13.9991C22.4859 13.7671 23.3438 12.7265 23.3438 11.5241C23.3438 11.0671 23.1398 10.4132 22.8937 10.0897C22.732 9.8788 22.725 9.83661 22.6969 8.12099C22.6617 6.49677 22.6477 6.30692 22.4789 5.66005C21.4664 1.88427 17.7609 -0.527454 13.9359 0.112389ZM19.8984 11.1093C19.8984 13.521 19.8422 14.2522 19.5891 14.9483C19.0898 16.3124 17.9859 17.3741 16.5938 17.803C15.8414 18.035 14.5266 18.035 13.8234 17.796C12.5016 17.3671 11.5664 16.5936 11.0039 15.4686C10.5328 14.5265 10.5258 14.4843 10.4906 11.7702L10.4625 9.30223L11.5453 9.26005C12.1359 9.23895 12.9094 9.16864 13.2539 9.10536C14.7234 8.85223 16.3266 8.2827 17.5781 7.56552L18.2461 7.17879L19.0688 8.03661L19.8914 8.89442L19.8984 11.1093ZM21.5578 10.2866C21.8602 10.4413 22.05 10.6804 22.1766 11.06C22.3172 11.4749 22.3172 11.6436 22.1836 12.0304C22.0148 12.5015 21.6914 12.7897 21.15 12.9444L20.9531 13.0007V11.5311V10.0616L21.15 10.1179C21.2625 10.153 21.4383 10.2233 21.5578 10.2866ZM9.42188 11.5593V12.9936L9.14766 12.9233C8.39531 12.7335 7.88203 11.7913 8.14922 11.0882C8.30391 10.6874 8.95781 10.139 9.30234 10.1249C9.41484 10.1249 9.42188 10.2374 9.42188 11.5593ZM17.6484 19.2233V19.8843L16.4461 21.3749C15.7852 22.1905 15.2156 22.8374 15.1875 22.8022C15.1594 22.7741 14.625 22.1132 14.0062 21.3327L12.8672 19.9194V19.2796C12.8672 18.921 12.8812 18.6327 12.9023 18.6327C12.9164 18.6327 13.057 18.6819 13.1977 18.7382C14.3086 19.16 16.2492 19.146 17.2406 18.703C17.4094 18.6327 17.5641 18.5694 17.5992 18.5694C17.6273 18.5624 17.6484 18.8577 17.6484 19.2233ZM12.5297 21.2132C12.7406 21.4804 13.268 22.1202 13.6969 22.6475L14.4773 23.6108L13.3172 24.4335C12.6773 24.8835 12.143 25.2421 12.1289 25.228C12.0586 25.1507 10.2656 21.4944 10.2867 21.4733C10.3148 21.4382 12.0375 20.7491 12.1008 20.7491C12.1289 20.7421 12.3187 20.953 12.5297 21.2132ZM19.2937 21.1007L20.243 21.4593L19.2937 23.3577C18.6398 24.6655 18.3234 25.235 18.2602 25.1999C18.218 25.1718 17.6906 24.8061 17.1 24.3843C16.1367 23.6952 16.0383 23.6038 16.1156 23.4913C16.2422 23.3155 18.3094 20.7491 18.3305 20.7421C18.3445 20.7421 18.7734 20.9038 19.2937 21.1007ZM10.2797 23.9343C11.3273 26.0225 11.4469 26.1983 11.8687 26.3319C12.1078 26.4022 12.4664 26.3179 12.7617 26.114C12.9094 26.0155 13.05 25.9663 13.0711 26.0015C13.0922 26.0366 13.2188 26.2265 13.3523 26.4233L13.5844 26.789L12.8953 30.8671L12.2062 34.9452H9.65391H7.10156V31.739C7.10156 29.8265 7.07344 28.4835 7.03125 28.4132C6.99609 28.3429 6.87656 28.2444 6.75703 28.2022C6.58828 28.1319 6.51797 28.1319 6.34219 28.2233C6.22969 28.2796 6.11719 28.385 6.08906 28.4413C6.06797 28.5046 6.04688 29.9952 6.04688 31.753V34.9452L4.16953 34.9311L2.28516 34.91V30.7616C2.28516 26.6202 2.28516 26.6132 2.44687 26.1491C2.77734 25.1858 3.60703 24.2015 4.46484 23.7515C4.70391 23.6179 9.1125 21.8741 9.21094 21.8671C9.23203 21.8671 9.71016 22.7952 10.2797 23.9343ZM21.1992 22.078C21.1359 22.1905 21.0727 22.289 21.0516 22.289C21.0375 22.289 21.0656 22.1905 21.1289 22.078C21.1922 21.9585 21.2555 21.8671 21.2766 21.8671C21.2906 21.8671 21.2625 21.9585 21.1992 22.078ZM20.6719 23.1749C20.4047 23.7866 20.243 24.6093 20.2008 25.5233C20.0953 27.8718 21.0586 30.0093 22.9078 31.521L23.4141 31.9429V33.4405V34.9452H20.8547H18.2953L18.2531 34.7483C18.232 34.6429 18.1195 33.989 18 33.2929C17.8031 32.1608 17.7609 32.0132 17.5992 31.8655C17.3602 31.6475 17.0437 31.6827 16.8469 31.9429L16.6992 32.1397L16.9312 33.4897C17.0578 34.235 17.1562 34.8608 17.1562 34.889C17.1562 34.9241 16.4742 34.9452 15.6445 34.9452C14.3578 34.9452 14.1328 34.9311 14.1328 34.8397C14.1328 34.7835 14.4211 33.0608 14.7656 31.0147C15.1172 28.9616 15.3984 27.2671 15.3984 27.246C15.3984 27.2249 15.5039 27.2108 15.6305 27.2108H15.8695L16.0242 28.1741C16.2844 29.7561 16.3547 30.0444 16.5234 30.178C16.7273 30.3468 16.9523 30.3397 17.1844 30.1569C17.4234 29.9671 17.4164 29.8897 17.1281 28.1811L16.8961 26.796L17.1773 26.3671C17.4445 25.9593 17.4656 25.9452 17.6062 26.0507C18.007 26.346 18.3375 26.4233 18.682 26.2897C19.0477 26.1561 19.2305 25.889 20.0039 24.335C20.7281 22.8725 21.0023 22.4015 20.6719 23.1749ZM25.0312 32.7233C25.7977 33.0046 26.55 33.1311 27.443 33.1382L28.2727 33.1452L28.2516 34.0311L28.2305 34.91L26.3531 34.9311L24.4688 34.9452V33.7499C24.4688 33.096 24.4898 32.5546 24.5109 32.5546C24.5391 32.5546 24.7711 32.6319 25.0312 32.7233Z" fill="#2196F3"/>
<path d="M26.5926 20.3906C24.5465 20.7633 22.8449 22.275 22.2192 24.293C22.0293 24.9117 21.959 26.0859 22.0715 26.7539C22.4371 28.8281 24.0895 30.6211 26.1356 31.1555C26.8949 31.3594 28.0903 31.3523 28.8567 31.1555C30.4246 30.7406 31.6973 29.693 32.4145 28.2305C32.8785 27.2742 33.0051 26.6625 32.9559 25.5656C32.9278 24.9047 32.8785 24.5883 32.7309 24.1523C32.1403 22.3734 30.741 21.0375 28.9551 20.5312C28.3645 20.3625 27.1551 20.2922 26.5926 20.3906ZM28.6528 21.5859C29.834 21.8883 30.8817 22.7391 31.4231 23.843C31.9082 24.8203 32.0207 25.6781 31.8098 26.6976C31.3668 28.8703 29.4403 30.3469 27.2535 30.2133C25.6645 30.1219 24.2371 29.1726 23.5621 27.7523C23.2317 27.0633 23.1192 26.557 23.1192 25.7766C23.1262 23.7937 24.5395 22.0148 26.4731 21.5437C27.0356 21.4031 28.027 21.4242 28.6528 21.5859Z" fill="#2196F3"/>
<path d="M28.3094 25.1718C27.7188 25.7483 27.2125 26.2264 27.1773 26.2264C27.1422 26.2264 26.9031 26.0155 26.643 25.7624C26.2773 25.3968 26.1367 25.3053 25.9539 25.2983C25.6586 25.2913 25.4336 25.5093 25.4336 25.8116C25.4336 26.0014 25.5461 26.1421 26.207 26.796C26.8047 27.3936 27.0227 27.5624 27.1703 27.5624C27.325 27.5624 27.6344 27.3022 28.7031 26.2827C30.25 24.7991 30.3484 24.6444 29.9898 24.2928C29.8844 24.1803 29.7438 24.1171 29.5961 24.1171C29.4062 24.1171 29.2305 24.2577 28.3094 25.1718Z" fill="#2196F3"/>
</svg>
