<svg width="36" height="36" viewBox="0 0 36 36" fill="none" xmlns="http://www.w3.org/2000/svg">
<path fill-rule="evenodd" clip-rule="evenodd" d="M34.875 12.996L21.8306 18.7729C21.6821 18.8381 21.528 18.8696 21.375 18.8696V20.2635C21.375 20.8856 20.871 21.3885 20.25 21.3885H15.75C15.129 21.3885 14.625 20.8856 14.625 20.2635V18.8651C14.472 18.8651 14.3167 18.8336 14.1683 18.7684L1.125 12.996V27C1.125 27.8955 1.4805 28.7539 2.11387 29.3861C2.74612 30.0195 3.6045 30.375 4.5 30.375C10.2983 30.375 25.7017 30.375 31.5 30.375C32.3955 30.375 33.2539 30.0195 33.8861 29.3861C34.5195 28.7539 34.875 27.8955 34.875 27V12.996ZM19.125 15.75V19.1385H16.875V15.75H19.125ZM7.875 5.625H4.5C3.6045 5.625 2.74612 5.9805 2.11387 6.61388C1.4805 7.24613 1.125 8.1045 1.125 9V10.5356L14.625 16.5105V14.625C14.625 14.004 15.129 13.5 15.75 13.5H20.25C20.871 13.5 21.375 14.004 21.375 14.625V16.5139L34.875 10.5345V9C34.875 8.1045 34.5195 7.24613 33.8861 6.61388C33.2539 5.9805 32.3955 5.625 31.5 5.625H28.125V4.5C28.125 2.63588 26.6141 1.125 24.75 1.125H11.25C9.38587 1.125 7.875 2.63588 7.875 4.5V5.625ZM25.875 5.625H10.125V4.5C10.125 3.879 10.629 3.375 11.25 3.375H24.75C25.371 3.375 25.875 3.879 25.875 4.5V5.625Z" fill="#2196F3"/>
</svg>
