<svg width="36" height="36" viewBox="0 0 36 36" fill="none" xmlns="http://www.w3.org/2000/svg">
<g clip-path="url(#clip0_467_19210)">
<path d="M10.3555 0.175781C9.63828 0.393749 9.11797 0.85078 8.79453 1.54688L8.61172 1.93359L8.59063 6.84141L8.56953 11.7563L8.90703 11.475C9.68047 10.8281 10.925 10.118 11.9164 9.75234C13.2242 9.26719 14.3492 9.07031 15.8539 9.07031C17.7313 9.07031 19.3695 9.46406 20.9445 10.3008L21.5281 10.6172H26.2391C30.8164 10.6172 30.95 10.6242 31.2172 10.7578C31.5336 10.9195 31.7797 11.3203 31.7797 11.6719C31.7797 11.9883 31.5336 12.4242 31.2664 12.5648C31.0625 12.6773 30.718 12.6914 27.575 12.7266L24.1086 12.7617L24.4531 13.1906C24.643 13.4297 24.9664 13.8938 25.1773 14.2313L25.557 14.8359H28.25C30.8094 14.8359 30.957 14.843 31.2172 14.9766C31.5336 15.1383 31.7797 15.5391 31.7797 15.8906C31.7797 16.2422 31.5336 16.643 31.2172 16.8047C30.957 16.9383 30.8094 16.9453 28.6859 16.9453C26.5695 16.9453 26.4289 16.9523 26.4641 17.0648C26.5766 17.4516 26.7102 18.0773 26.7523 18.3867C26.7734 18.5766 26.8086 18.8086 26.8297 18.893L26.8578 19.0547H28.9039C30.8094 19.0547 30.957 19.0617 31.2172 19.1953C31.5336 19.357 31.7797 19.7578 31.7797 20.1094C31.7797 20.4609 31.5336 20.8617 31.2172 21.0234C30.957 21.157 30.8094 21.1641 28.9039 21.1641H26.8578L26.8297 21.3188C26.8086 21.4102 26.7734 21.6352 26.7523 21.832C26.7102 22.1414 26.5766 22.7672 26.4641 23.1469C26.4289 23.2664 26.5695 23.2734 28.6859 23.2734C30.8094 23.2734 30.957 23.2805 31.2172 23.4141C31.5336 23.5758 31.7797 23.9766 31.7797 24.3281C31.7797 24.6797 31.5336 25.0805 31.2172 25.2422C30.957 25.3758 30.8094 25.3828 28.25 25.3828H25.557L25.318 25.7836C24.1086 27.8508 21.9992 29.6156 19.7211 30.4664C18.2938 31.0008 17.1477 31.1766 15.4391 31.1273C14.0539 31.0852 13.6391 31.0148 12.3523 30.607L11.5227 30.3469L10.0461 31.8234L8.5625 33.293L8.59766 33.6938C8.66797 34.5305 9.18828 35.2828 9.96875 35.6625L10.4398 35.8945H22.2875H34.1352L34.6063 35.6625C35.1477 35.3953 35.5203 35.0156 35.7805 34.4602L35.9633 34.0664L35.9844 21.2836L35.9984 8.50781H32.1945H28.3906L28.1094 8.35313C27.9406 8.25469 27.7719 8.08594 27.6945 7.93125C27.568 7.68516 27.5609 7.46016 27.5609 3.86719V0.0703125L19.1094 0.077343C12.3172 0.077343 10.5945 0.0984383 10.3555 0.175781ZM24.8891 6.53906C25.2055 6.70078 25.4516 7.10156 25.4516 7.45312C25.4516 7.80469 25.2055 8.20547 24.8891 8.36719C24.6219 8.50781 24.4883 8.50781 19.1164 8.50781H13.625L13.3438 8.35313C12.6336 7.95234 12.6266 6.98906 13.3297 6.56719L13.6039 6.39844H19.1094C24.4883 6.39844 24.6219 6.39844 24.8891 6.53906ZM31.2172 27.6328C31.5336 27.7945 31.7797 28.1953 31.7797 28.5469C31.7797 28.8984 31.5336 29.2992 31.2172 29.4609C30.957 29.5945 30.8094 29.6016 27.9125 29.6016C25.0156 29.6016 24.868 29.5945 24.6078 29.4609C24.2914 29.2992 24.0453 28.8984 24.0453 28.5469C24.0453 28.2094 24.2914 27.7945 24.5938 27.6398C24.8398 27.5063 25.0086 27.4992 27.8984 27.4922C30.8094 27.4922 30.95 27.4992 31.2172 27.6328Z" fill="#2196F3"/>
<path d="M29.6699 3.55078V6.39844H32.5316H35.4004L32.5527 3.55078C30.9848 1.98281 29.698 0.703125 29.691 0.703125C29.677 0.703125 29.6699 1.98281 29.6699 3.55078Z" fill="#2196F3"/>
<path d="M14.2357 11.2852C10.9029 11.9602 8.35762 14.175 7.30996 17.2969C6.74043 18.9844 6.74043 21.2344 7.30996 22.9219C7.66152 23.9766 8.50527 25.4391 9.06074 25.9735C9.26465 26.1703 9.27871 26.1774 9.27871 26.0297C9.27871 25.7485 9.68652 24.7641 10.0029 24.2789C10.4951 23.5266 11.0928 22.9641 11.8451 22.5352C12.042 22.4297 12.2107 22.3313 12.2248 22.3172C12.2389 22.3032 12.1545 22.1414 12.035 21.9586C11.0998 20.5032 11.0014 18.893 11.7467 17.3672C12.3303 16.1789 13.5748 15.2086 14.8686 14.9414C15.8951 14.7235 16.8725 14.8571 17.8568 15.3352C19.0451 15.9188 20.0154 17.1633 20.2826 18.4571C20.5357 19.6664 20.3037 20.8618 19.6006 21.9586C19.4811 22.1414 19.3967 22.3032 19.4107 22.3172C19.4248 22.3243 19.6146 22.4368 19.8256 22.5563C20.9084 23.168 21.7451 24.1805 22.174 25.3688C22.2725 25.65 22.3568 25.9524 22.3568 26.0297C22.3568 26.1703 22.3709 26.1703 22.5748 25.9735C23.1303 25.4391 23.974 23.9766 24.3256 22.9219C24.86 21.3328 24.8951 19.2446 24.417 17.5782C23.6857 15.0328 21.717 12.8532 19.1928 11.8125C18.1029 11.3625 17.4561 11.236 16.0287 11.2078C15.0936 11.1938 14.5873 11.2149 14.2357 11.2852Z" fill="#2196F3"/>
<path d="M15.1363 17.0437C14.4121 17.2828 13.8988 17.7328 13.5754 18.4219C13.4207 18.7453 13.3926 18.907 13.3926 19.4062C13.3926 19.9406 13.4207 20.0602 13.6246 20.475C13.8918 21.0164 14.2715 21.3891 14.827 21.6492C15.1574 21.8039 15.3191 21.832 15.8184 21.832C16.3176 21.832 16.4793 21.8039 16.8098 21.6492C17.3652 21.3891 17.7449 21.0164 18.0121 20.475C18.216 20.0602 18.2441 19.9406 18.2441 19.4062C18.2441 18.907 18.216 18.7453 18.0613 18.4148C17.6535 17.543 16.873 17.0156 15.9379 16.9734C15.6355 16.9523 15.3121 16.9875 15.1363 17.0437Z" fill="#2196F3"/>
<path d="M13.7304 24.0471C12.9218 24.2088 11.9585 24.9682 11.5858 25.7416C11.3397 26.2479 11.0655 27.7033 11.1921 27.7877C11.4663 27.9705 12.6265 28.4979 13.1116 28.6526C14.8202 29.201 16.9929 29.1729 18.7436 28.5822C19.2077 28.4205 20.1077 28.0057 20.4452 27.7877C20.5718 27.7033 20.2975 26.2479 20.0515 25.7416C19.6647 24.933 18.7296 24.2158 17.8507 24.0471C17.4147 23.9627 14.1522 23.9697 13.7304 24.0471Z" fill="#2196F3"/>
<path d="M3.47176 29.475C-0.0649606 33.0258 0.0334768 32.8992 0.0334768 33.8555C0.0405081 34.6922 0.441289 35.332 1.17957 35.6977C1.51004 35.8594 1.67176 35.8945 2.1077 35.8945C3.03582 35.8945 3.00066 35.9156 6.52332 32.393L9.63816 29.2781L9.23035 28.9898C8.43582 28.4273 7.2616 27.225 6.74832 26.4516C6.64285 26.2969 6.5866 26.3461 3.47176 29.475Z" fill="#2196F3"/>
</g>
<defs>
<clipPath id="clip0_467_19210">
<rect width="36" height="36" fill="white"/>
</clipPath>
</defs>
</svg>
