<svg width="89" height="89" viewBox="0 0 89 89" fill="none" xmlns="http://www.w3.org/2000/svg">
<g clip-path="url(#clip0_921_4231)">
<path d="M57.1251 21.7093C53.2054 19.5147 48.7843 18.3723 44.2922 18.3933C39.8 18.4143 35.3898 19.5979 31.4908 21.829C27.5918 24.0601 24.3368 27.2627 22.0427 31.1249C19.7486 34.9872 18.4936 39.3777 18.3997 43.8689L11.7615 49.9162C11.2118 50.4169 10.8124 51.0607 10.608 51.7756C10.4037 52.4904 10.4025 53.2481 10.6045 53.9636C10.8065 54.6792 11.2039 55.3243 11.752 55.8267C12.3 56.3291 12.9772 56.6689 13.7076 56.8081L22.5283 58.4902C24.6671 61.814 27.535 64.6068 30.9143 66.6567C34.2936 68.7067 38.0955 69.9598 42.0314 70.321C45.9673 70.6822 49.9338 70.142 53.6298 68.7413C57.3257 67.3407 60.654 65.1165 63.3621 62.2375C66.0701 59.3586 68.0866 55.9005 69.2586 52.1258C70.4307 48.3511 70.7274 44.3591 70.1262 40.4526C69.525 36.5461 68.0418 32.828 65.7891 29.5803C63.5364 26.3327 60.5734 23.6409 57.1251 21.7093ZM33.6669 63.6283C30.2881 61.7405 27.4675 58.994 25.4903 55.6667C25.3457 55.4227 25.151 55.2123 24.9189 55.0493C24.6869 54.8864 24.4228 54.7746 24.1443 54.7213L14.4541 52.8766L21.7461 46.2347C21.9559 46.044 22.1227 45.8109 22.2357 45.5508C22.3486 45.2908 22.4049 45.0097 22.401 44.7262C22.3322 39.8795 23.8648 35.1455 26.761 31.2587C29.6572 27.3719 33.7551 24.5495 38.4191 23.2293C43.0831 21.9092 48.0523 22.1651 52.556 23.9573C57.0597 25.7495 60.8461 28.978 63.3277 33.1417C65.8094 37.3054 66.8476 42.1718 66.2813 46.9858C65.715 51.7998 63.5759 56.2924 60.1958 59.7666C56.8157 63.2408 52.3835 65.5024 47.5869 66.2007C42.7902 66.8989 37.8972 65.9947 33.6669 63.6283Z" fill="#2196F3"/>
<path d="M31.2092 44.5683C31.5726 44.4443 31.9051 44.3637 32.2068 44.3265C32.5865 44.2797 32.9293 44.2959 33.235 44.3753C33.5404 44.4512 33.8037 44.577 34.025 44.7528C34.2493 44.9248 34.4273 45.1403 34.559 45.3994C34.6938 45.6547 34.7806 45.94 34.8195 46.2553C34.8671 46.6418 34.8426 47.001 34.7459 47.333C34.6491 47.6651 34.4959 47.9576 34.2862 48.2106C34.0764 48.4636 33.8164 48.6712 33.506 48.8334C33.1985 48.9918 32.8583 49.0939 32.4854 49.1399C32.265 49.1671 32.0521 49.171 31.8467 49.1516C31.6446 49.1317 31.4527 49.0969 31.271 49.047C31.0889 48.9937 30.9175 48.9288 30.7566 48.8523C30.5991 48.7754 30.4562 48.6914 30.328 48.6006L30.5805 48.1358C30.6332 48.0329 30.7138 47.9748 30.8223 47.9614C30.8935 47.9526 30.9748 47.9701 31.0662 48.0139C31.1606 48.0539 31.2711 48.0988 31.3977 48.1486C31.5243 48.1984 31.6724 48.2403 31.8418 48.2745C32.0108 48.3053 32.2072 48.3069 32.4309 48.2793C32.6784 48.2488 32.8957 48.1824 33.0827 48.0802C33.2727 47.9742 33.4265 47.8399 33.5441 47.6774C33.6651 47.5145 33.7487 47.3269 33.7948 47.1147C33.8443 46.9021 33.8538 46.6721 33.8233 46.4246C33.7961 46.2042 33.7395 46.0099 33.6533 45.8415C33.5672 45.6732 33.4519 45.5342 33.3076 45.4247C33.1633 45.3151 32.9906 45.24 32.7894 45.1995C32.5878 45.1555 32.3582 45.1494 32.1005 45.1811C31.7412 45.2255 31.366 45.3371 30.9751 45.5161L30.327 45.4102L30.4968 41.8889L33.9955 41.4575L34.0488 41.8898C34.0664 42.0322 34.0351 42.1548 33.9548 42.2576C33.8775 42.3566 33.7338 42.4191 33.5236 42.445L31.3013 42.719L31.2092 44.5683Z" fill="#4A4A4A"/>
<path d="M39.8698 42.9015L40.547 48.3937C40.5734 48.6073 40.569 48.8091 40.534 48.9993C40.5027 49.1925 40.4344 49.3644 40.3291 49.515C40.2276 49.6687 40.085 49.7964 39.9014 49.8982C39.7211 49.9996 39.4954 50.067 39.2242 50.1004C39.1123 50.1142 39.0096 50.1183 38.9159 50.1126C38.8189 50.1074 38.7211 50.0954 38.6224 50.0765L38.5966 49.5325C38.6022 49.4664 38.6283 49.427 38.675 49.4144C38.7182 49.4022 38.8042 49.3881 38.9331 49.3723C39.1941 49.3401 39.3716 49.258 39.4654 49.1259C39.5593 48.9939 39.5893 48.7906 39.5554 48.516L38.8782 43.0238L39.8698 42.9015ZM39.8611 41.2815C39.8724 41.373 39.8646 41.4635 39.8378 41.5528C39.8105 41.6388 39.7686 41.718 39.7122 41.7903C39.6553 41.8593 39.5868 41.9176 39.5066 41.9654C39.4294 42.0093 39.3434 42.0371 39.2484 42.0488C39.1569 42.0601 39.0683 42.0538 38.9828 42.03C38.8968 42.0027 38.8179 41.9625 38.7459 41.9094C38.677 41.8526 38.6188 41.7857 38.5715 41.709C38.5272 41.6284 38.4993 41.5423 38.488 41.4508C38.4763 41.3559 38.4824 41.2656 38.5063 41.1801C38.5331 41.0907 38.5733 41.0118 38.6268 40.9432C38.6833 40.8709 38.7501 40.8127 38.8273 40.7688C38.9041 40.7215 38.9882 40.6922 39.0797 40.6809C39.1747 40.6692 39.2651 40.6769 39.3511 40.7042C39.44 40.7277 39.5207 40.7676 39.593 40.8241C39.665 40.8772 39.7248 40.9438 39.7725 41.024C39.8199 41.1007 39.8494 41.1866 39.8611 41.2815ZM43.7094 42.3454C44.0891 42.2986 44.4392 42.3191 44.7598 42.4069C45.0834 42.4909 45.3664 42.6367 45.6088 42.8443C45.8542 43.0481 46.0548 43.3073 46.2106 43.622C46.366 43.9332 46.4688 44.2923 46.519 44.6991C46.5692 45.1059 46.5569 45.4809 46.4822 45.8239C46.4074 46.167 46.2758 46.4672 46.0873 46.7245C45.9021 46.9813 45.663 47.1915 45.37 47.355C45.0799 47.5147 44.745 47.6179 44.3653 47.6647C43.9822 47.712 43.6289 47.6936 43.3053 47.6096C42.9847 47.5218 42.7017 47.376 42.4563 47.1722C42.2109 46.9684 42.0086 46.7094 41.8494 46.3952C41.6936 46.0805 41.5906 45.7198 41.5404 45.313C41.4903 44.9061 41.5027 44.5329 41.5779 44.1932C41.656 43.8497 41.7893 43.5493 41.9779 43.2921C42.166 43.0314 42.4051 42.8212 42.6952 42.6615C42.9882 42.498 43.3263 42.3927 43.7094 42.3454ZM44.27 46.8918C44.7582 46.8316 45.1023 46.6222 45.3025 46.2637C45.5027 45.9051 45.5659 45.4275 45.4924 44.8308C45.4188 44.2342 45.2414 43.7862 44.9601 43.4871C44.6785 43.1845 44.2935 43.0633 43.8053 43.1235C43.3103 43.1845 42.9613 43.3962 42.7582 43.7586C42.558 44.1171 42.4947 44.5947 42.5683 45.1914C42.6419 45.7881 42.8193 46.236 43.1005 46.5352C43.3852 46.8339 43.775 46.9528 44.27 46.8918ZM48.9919 45.7313C49.1809 45.9248 49.3756 46.0522 49.5759 46.1136C49.7762 46.1749 49.9883 46.1918 50.212 46.1642C50.6731 46.1074 51.0071 45.8993 51.214 45.5399C51.4244 45.1801 51.4886 44.668 51.4066 44.0035C51.331 43.3899 51.1654 42.9542 50.9099 42.6966C50.654 42.4356 50.3243 42.33 49.9209 42.3797C49.6361 42.4149 49.3966 42.5098 49.2023 42.6645C49.0113 42.8189 48.8407 43.0258 48.6903 43.2852L48.9919 45.7313ZM48.5993 42.5479C48.7837 42.2842 49.0024 42.0628 49.2557 41.8836C49.5089 41.7043 49.8084 41.5934 50.1542 41.5508C50.456 41.5136 50.7345 41.5394 50.9899 41.6284C51.2482 41.7136 51.4757 41.8559 51.6723 42.0554C51.8686 42.2514 52.0317 42.4998 52.1617 42.8004C52.2917 43.101 52.381 43.448 52.4295 43.8412C52.4809 44.2582 52.4752 44.6444 52.4123 44.9998C52.3528 45.3547 52.2415 45.6662 52.0783 45.9341C51.9186 46.2016 51.7098 46.4201 51.4519 46.5896C51.1936 46.7556 50.8932 46.8598 50.5508 46.902C50.3847 46.9225 50.23 46.9244 50.0868 46.9076C49.9441 46.8942 49.8096 46.8643 49.6834 46.818C49.5606 46.7711 49.4446 46.7097 49.3355 46.6337C49.2263 46.5577 49.1207 46.4692 49.0188 46.3682L49.0263 46.8061C49.0163 46.9484 48.9401 47.0283 48.7977 47.0459L48.157 47.1249L47.2315 39.6189L48.2231 39.4967L48.5993 42.5479ZM56.5987 41.7422C56.5771 41.7896 56.5522 41.8254 56.5242 41.8495C56.4958 41.8702 56.4578 41.8835 56.4104 41.8893C56.3561 41.896 56.2928 41.8849 56.2204 41.8559C56.1514 41.8266 56.0667 41.7957 55.9663 41.7634C55.8694 41.7306 55.7559 41.7033 55.6258 41.6815C55.4958 41.6596 55.3443 41.6594 55.1714 41.6807C55.029 41.6983 54.9008 41.733 54.7867 41.7849C54.6757 41.833 54.5834 41.8943 54.51 41.9688C54.4361 42.0398 54.3826 42.1221 54.3494 42.2157C54.3158 42.3059 54.305 42.4002 54.3172 42.4985C54.333 42.6273 54.3835 42.7295 54.4685 42.8051C54.557 42.8802 54.666 42.9408 54.7955 42.9867C54.9285 43.0323 55.0761 43.0709 55.2383 43.1025C55.4035 43.1303 55.5708 43.1613 55.7402 43.1955C55.9131 43.2293 56.0818 43.2721 56.2466 43.3241C56.4143 43.3722 56.5656 43.4413 56.7006 43.5314C56.8386 43.6176 56.9539 43.729 57.0464 43.8656C57.1424 44.0018 57.2033 44.175 57.2292 44.3852C57.2589 44.6259 57.2424 44.8551 57.1798 45.0727C57.1201 45.2866 57.0147 45.4786 56.8636 45.6486C56.7159 45.8183 56.5235 45.9608 56.2864 46.076C56.0494 46.1913 55.7716 46.2686 55.4529 46.3079C55.0969 46.3518 54.7607 46.333 54.4444 46.2515C54.128 46.1701 53.8568 46.0504 53.6308 45.8924L53.8177 45.4821C53.839 45.4313 53.8685 45.3916 53.9063 45.3628C53.9436 45.3307 53.9962 45.3104 54.064 45.3021C54.1284 45.2941 54.1974 45.3097 54.2711 45.3488C54.3448 45.3879 54.4326 45.4304 54.5346 45.4763C54.6363 45.5189 54.7578 45.5555 54.8993 45.5863C55.0403 45.6136 55.2125 45.6147 55.4159 45.5897C55.5854 45.5688 55.7304 45.5302 55.8508 45.4741C55.9708 45.4145 56.0671 45.3442 56.1397 45.2629C56.2153 45.1779 56.2676 45.0854 56.2965 44.9855C56.3255 44.8855 56.3335 44.783 56.3206 44.6779C56.3038 44.5423 56.2511 44.4352 56.1622 44.3567C56.0763 44.2744 55.9667 44.2087 55.8333 44.1598C55.7033 44.1104 55.5557 44.0718 55.3906 44.044C55.2254 44.0162 55.0564 43.9854 54.8835 43.9516C54.7107 43.9179 54.5403 43.8752 54.3722 43.8237C54.204 43.7721 54.0506 43.6998 53.9117 43.6068C53.7763 43.5134 53.66 43.3935 53.5628 43.2472C53.469 43.1004 53.4083 42.9151 53.3807 42.6914C53.356 42.4914 53.3731 42.2948 53.4319 42.1017C53.4941 41.9082 53.5946 41.7323 53.7334 41.5741C53.8756 41.4154 54.0569 41.2812 54.2774 41.1714C54.5009 41.0578 54.7618 40.9826 55.0602 40.9458C55.4026 40.9036 55.7178 40.9198 56.0058 40.9944C56.2971 41.0686 56.5528 41.1886 56.7729 41.3542L56.5987 41.7422Z" fill="#8B8B8B"/>
</g>
<defs>
<clipPath id="clip0_921_4231">
<rect width="64.0483" height="64.0483" fill="white" transform="translate(32.1484 0.870667) rotate(29.2317)"/>
</clipPath>
</defs>
</svg>
