<svg width="24" height="24" viewBox="0 0 24 24" fill="none" xmlns="http://www.w3.org/2000/svg">
<path d="M4.92213 1.61692C4.65495 1.70129 4.34088 1.96379 4.20495 2.2216L4.10182 2.41379L4.08776 12.07C4.07838 17.381 4.08776 21.82 4.10182 21.9325C4.15807 22.3263 4.50963 22.481 4.8612 22.27C4.94088 22.2185 6.37995 21.0841 8.0487 19.7435C10.2143 18.0138 11.1612 17.2872 11.3253 17.2216C11.6206 17.1091 12.1268 17.1044 12.4456 17.2169C12.619 17.2779 13.4956 17.9294 15.9096 19.8044C17.9346 21.3794 19.2003 22.331 19.3081 22.3638C19.519 22.4247 19.6971 22.3638 19.8143 22.1857C19.894 22.0638 19.8987 21.6138 19.9128 12.3325C19.9221 1.5466 19.9456 2.36692 19.6174 1.97785C19.5284 1.87473 19.3549 1.73879 19.2284 1.67785L19.0081 1.57004L12.0706 1.56067C6.22526 1.55598 5.10026 1.56067 4.92213 1.61692Z" fill="#2196F3"/>
</svg>
