<svg width="85" height="85" viewBox="0 0 85 85" fill="none" xmlns="http://www.w3.org/2000/svg">
<g clip-path="url(#clip0_921_4228)">
<path d="M32.9151 66.7108C37.0889 68.372 41.6216 68.9243 46.0722 68.314C50.5228 67.7037 54.7395 65.9515 58.312 63.2279C61.8845 60.5044 64.691 56.9024 66.4583 52.7725C68.2257 48.6425 68.8937 44.1253 68.3973 39.6606L74.1844 32.7944C74.6637 32.2259 74.9751 31.5353 75.0839 30.7998C75.1927 30.0642 75.0945 29.313 74.8002 28.6302C74.506 27.9473 74.0275 27.3599 73.4182 26.9338C72.8089 26.5077 72.093 26.2597 71.3507 26.2176L62.3855 25.7076C59.829 22.6933 56.6194 20.301 53.0002 18.7123C49.3811 17.1236 45.4477 16.3803 41.4984 16.5388C37.5491 16.6972 33.6879 17.7533 30.2077 19.6269C26.7275 21.5005 23.7199 24.1422 21.4131 27.3517C19.1064 30.5612 17.5611 34.254 16.8946 38.1499C16.2281 42.0457 16.4579 46.0422 17.5666 49.836C18.6753 53.6297 20.6336 57.1211 23.2931 60.045C25.9525 62.9689 29.2431 65.2485 32.9151 66.7108ZM50.6689 22.0758C54.2663 23.5039 57.4229 25.8564 59.8197 28.8955C59.995 29.1183 60.2157 29.3014 60.4672 29.4325C60.7186 29.5636 60.995 29.6398 61.2781 29.656L71.1266 30.213L64.7694 37.7544C64.5864 37.971 64.4516 38.224 64.3738 38.4967C64.296 38.7693 64.277 39.0553 64.3181 39.3359C65.0224 44.1316 64.1243 49.0258 61.7633 53.2591C59.4022 57.4924 55.7102 60.8282 51.2598 62.749C46.8094 64.6698 41.8496 65.0683 37.1496 63.8827C32.4497 62.697 28.2724 59.9934 25.2657 56.1914C22.2591 52.3894 20.5912 47.7014 20.5208 42.8547C20.4504 38.008 21.9814 33.2735 24.8763 29.3858C27.7712 25.498 31.8682 22.6742 36.5318 21.3525C41.1953 20.0308 46.1646 20.2851 50.6689 22.0758Z" fill="#2196F3"/>
<path d="M28.4866 45.6426C28.4207 45.3035 28.4103 44.9882 28.4555 44.6967C28.5007 44.4053 28.594 44.142 28.7354 43.907C28.8756 43.6688 29.0596 43.4622 29.2875 43.2871C29.5186 43.1109 29.7838 42.9697 30.0832 42.8635C30.3826 42.7573 30.6733 42.7031 30.9552 42.7009C31.236 42.6955 31.4929 42.7403 31.7259 42.8353C31.961 42.9258 32.1673 43.0629 32.3448 43.2464C32.5222 43.4299 32.6578 43.6537 32.7514 43.9176C32.8302 44.1398 32.8725 44.3459 32.8783 44.5359C32.8841 44.7259 32.8584 44.9036 32.801 45.0689C32.7469 45.2331 32.6634 45.386 32.5505 45.5275C32.4365 45.6658 32.2996 45.7959 32.1399 45.9178C32.6243 45.8837 33.0267 45.9657 33.3471 46.1637C33.6663 46.3586 33.9007 46.6669 34.0503 47.0886C34.1656 47.4138 34.2084 47.7284 34.1786 48.0326C34.1476 48.3335 34.0578 48.6118 33.9093 48.8675C33.7597 49.1199 33.5603 49.3447 33.3113 49.5418C33.0643 49.7345 32.7815 49.8874 32.4627 50.0004C32.099 50.1295 31.7713 50.1968 31.4797 50.2024C31.1869 50.2048 30.9208 50.1596 30.6813 50.067C30.4407 49.9711 30.2199 49.8338 30.0187 49.655C29.8197 49.4719 29.6309 49.2616 29.4524 49.0241L29.8012 48.7047C29.8915 48.6219 29.9899 48.5725 30.0966 48.5564C30.2032 48.5403 30.2956 48.571 30.3738 48.6483C30.4564 48.7278 30.5499 48.8178 30.6545 48.9185C30.7611 49.0147 30.887 49.0988 31.0321 49.1705C31.176 49.2391 31.34 49.2824 31.524 49.3005C31.7112 49.3174 31.9256 49.2831 32.167 49.1974C32.3988 49.1152 32.5885 49.0062 32.7361 48.8705C32.8825 48.7316 32.9925 48.582 33.0662 48.4218C33.1387 48.2583 33.1776 48.0923 33.183 47.9236C33.1885 47.755 33.1655 47.5982 33.1141 47.4533C33.0501 47.2731 32.9688 47.1153 32.87 46.9799C32.7713 46.8446 32.6387 46.7467 32.4722 46.6861C32.3078 46.6212 32.1021 46.5981 31.8551 46.6169C31.608 46.6357 31.3042 46.709 30.9436 46.8369L30.7004 46.1512C30.9954 46.0429 31.2341 45.9238 31.4163 45.7939C31.6018 45.6629 31.7391 45.5236 31.8281 45.376C31.9171 45.2285 31.9638 45.0742 31.9683 44.9131C31.976 44.7509 31.949 44.5829 31.8873 44.409C31.82 44.2191 31.7322 44.0636 31.624 43.9425C31.5158 43.8214 31.392 43.733 31.2526 43.6773C31.1154 43.6173 30.9663 43.5904 30.8054 43.5967C30.6466 43.5987 30.4836 43.6294 30.3161 43.6888C30.1487 43.7482 30.0028 43.8271 29.8783 43.9257C29.7537 44.0242 29.6522 44.1363 29.5735 44.2621C29.4949 44.3878 29.4397 44.5234 29.4079 44.6688C29.3761 44.8142 29.3687 44.9618 29.3856 45.1116C29.3839 45.25 29.3551 45.3526 29.2991 45.4196C29.2464 45.4854 29.1516 45.5299 29.0148 45.5531L28.4866 45.6426Z" fill="#4A4A4A"/>
<path d="M38.0318 42.4142L39.8819 47.6295C39.9539 47.8323 39.9933 48.0304 40.0003 48.2236C40.0116 48.419 39.9821 48.6016 39.9119 48.7715C39.846 48.9434 39.7345 49.099 39.5773 49.2381C39.4233 49.3761 39.2175 49.4908 38.9599 49.5822C38.8537 49.6199 38.7542 49.6461 38.6616 49.6608C38.5658 49.6767 38.4676 49.6861 38.3672 49.6891L38.2243 49.1635C38.2154 49.0978 38.2324 49.0537 38.2752 49.0313C38.3148 49.01 38.3957 48.9777 38.5181 48.9343C38.7659 48.8463 38.9214 48.7278 38.9845 48.5785C39.0475 48.4293 39.0328 48.2243 38.9403 47.9636L37.0902 42.7482L38.0318 42.4142ZM37.6726 40.8345C37.7034 40.9214 37.7154 41.0114 37.7086 41.1044C37.7006 41.1942 37.6768 41.2806 37.6374 41.3635C37.5968 41.4431 37.5425 41.5149 37.4746 41.5789C37.4087 41.6385 37.3307 41.6843 37.2406 41.7162C37.1537 41.7471 37.0659 41.7601 36.9772 41.7553C36.8873 41.7473 36.8016 41.7252 36.7198 41.6889C36.6402 41.6483 36.569 41.5957 36.5061 41.531C36.4454 41.4619 36.3996 41.3839 36.3688 41.297C36.3368 41.2069 36.3232 41.1174 36.328 41.0288C36.3348 40.9357 36.357 40.8499 36.3944 40.7714C36.4338 40.6886 36.4865 40.6173 36.5523 40.5577C36.617 40.4949 36.6929 40.4481 36.7798 40.4172C36.8699 40.3853 36.9599 40.3733 37.0497 40.3813C37.1416 40.3849 37.229 40.4065 37.3119 40.4459C37.3936 40.4822 37.4664 40.5343 37.5304 40.6022C37.5932 40.6669 37.6406 40.7443 37.6726 40.8345ZM41.66 41.0401C42.0205 40.9122 42.3668 40.8564 42.6988 40.8728C43.0329 40.8847 43.3407 40.9658 43.6224 41.116C43.9061 41.2618 44.158 41.4715 44.3783 41.7449C44.5974 42.0151 44.7754 42.3434 44.9125 42.7297C45.0495 43.1161 45.1187 43.4848 45.12 43.8359C45.1213 44.187 45.0578 44.5085 44.9294 44.8005C44.8043 45.0914 44.6163 45.3484 44.3656 45.5714C44.117 45.7901 43.8124 45.9634 43.4518 46.0913C43.088 46.2203 42.7391 46.2789 42.405 46.2669C42.073 46.2506 41.7652 46.1695 41.4815 46.0237C41.1978 45.8778 40.9442 45.6688 40.7208 45.3965C40.5005 45.123 40.3219 44.7931 40.1849 44.4068C40.0478 44.0205 39.9792 43.6534 39.979 43.3055C39.9809 42.9533 40.0461 42.6311 40.1744 42.3391C40.3017 42.0439 40.4896 41.7869 40.7382 41.5683C40.9889 41.3452 41.2962 41.1692 41.66 41.0401ZM43.1914 45.3573C43.655 45.1928 43.9457 44.9139 44.0635 44.5205C44.1813 44.1272 44.1397 43.6472 43.9387 43.0806C43.7377 42.514 43.4675 42.1151 43.1282 41.8839C42.7877 41.6495 42.3857 41.6145 41.9221 41.779C41.452 41.9457 41.1571 42.2279 41.0372 42.6257C40.9194 43.019 40.961 43.499 41.162 44.0656C41.363 44.6322 41.6332 45.0311 41.9726 45.2623C42.3151 45.4924 42.7214 45.524 43.1914 45.3573ZM47.5502 43.2021C47.7766 43.3501 47.9943 43.4324 48.2031 43.4489C48.412 43.4655 48.6226 43.436 48.8351 43.3607C49.2729 43.2054 49.554 42.9299 49.6782 42.5342C49.8056 42.1374 49.7575 41.6236 49.5336 40.9926C49.3269 40.4099 49.071 40.0204 48.7658 39.8242C48.4594 39.6248 48.1147 39.593 47.7316 39.729C47.4612 39.8249 47.2479 39.9694 47.0917 40.1626C46.9387 40.3546 46.8169 40.5935 46.7262 40.8794L47.5502 43.2021ZM46.4778 40.1792C46.6007 39.8819 46.7663 39.6183 46.9748 39.3885C47.1832 39.1587 47.4516 38.9856 47.78 38.8691C48.0665 38.7675 48.344 38.7324 48.6126 38.764C48.8832 38.7913 49.1361 38.881 49.3713 39.0331C49.6054 39.182 49.8184 39.3892 50.0104 39.6545C50.2024 39.9199 50.3646 40.2393 50.4971 40.6127C50.6376 41.0087 50.7156 41.387 50.7311 41.7475C50.7499 42.1069 50.7086 42.4351 50.6073 42.732C50.5093 43.0277 50.3527 43.2862 50.1376 43.5075C49.9214 43.7256 49.6507 43.8923 49.3256 44.0076C49.1678 44.0636 49.0172 44.0989 48.8738 44.1135C48.7315 44.1314 48.5938 44.1313 48.4606 44.1133C48.3305 44.0942 48.204 44.0594 48.081 44.0088C47.9579 43.9582 47.8357 43.8946 47.7143 43.8181L47.8164 44.244C47.8375 44.3851 47.7804 44.4796 47.6452 44.5276L47.0368 44.7434L44.5083 37.6158L45.4499 37.2818L46.4778 40.1792ZM54.1131 37.6609C54.1022 37.7119 54.0857 37.7522 54.0635 37.7818C54.0403 37.8081 54.0061 37.8293 53.961 37.8453C53.9095 37.8636 53.8453 37.8664 53.7684 37.8539C53.6946 37.8402 53.6053 37.8284 53.5003 37.8185C53.3985 37.8075 53.2818 37.8054 53.1501 37.8122C53.0184 37.8191 52.8705 37.8516 52.7063 37.9099C52.5711 37.9578 52.4534 38.0195 52.3533 38.0949C52.2553 38.1659 52.1785 38.2457 52.1229 38.3343C52.0662 38.4196 52.0318 38.5116 52.0196 38.6101C52.0063 38.7055 52.0162 38.7998 52.0493 38.8932C52.0927 39.0155 52.1641 39.1044 52.2635 39.1597C52.3661 39.2139 52.4856 39.2495 52.6221 39.2663C52.7618 39.282 52.9142 39.2877 53.0794 39.2835C53.2467 39.2749 53.4168 39.2689 53.5896 39.2656C53.7656 39.2611 53.9396 39.2665 54.1117 39.2815C54.2859 39.2922 54.4486 39.3269 54.5999 39.3856C54.7533 39.44 54.8899 39.5238 55.0098 39.6371C55.133 39.7492 55.23 39.9051 55.3008 40.1047C55.3819 40.3333 55.4154 40.5606 55.4014 40.7867C55.3894 41.0084 55.3281 41.2186 55.2173 41.4174C55.1098 41.615 54.9529 41.7957 54.7464 41.9596C54.5399 42.1234 54.2854 42.259 53.9828 42.3664C53.6447 42.4863 53.3125 42.5407 52.986 42.5297C52.6595 42.5187 52.3688 42.4605 52.114 42.3552L52.2077 41.9142C52.2174 41.86 52.2376 41.8148 52.2683 41.7785C52.2978 41.7391 52.3447 41.7079 52.4091 41.6851C52.4703 41.6634 52.541 41.6636 52.6214 41.6859C52.7018 41.7081 52.7967 41.7306 52.9063 41.7533C53.0147 41.7729 53.1413 41.7823 53.2861 41.7817C53.4297 41.7779 53.5981 41.7417 53.7912 41.6732C53.9522 41.6161 54.0854 41.5471 54.1908 41.4662C54.2951 41.3821 54.3739 41.2925 54.4271 41.1975C54.4825 41.0982 54.5135 40.9965 54.5202 40.8927C54.5268 40.7888 54.5124 40.687 54.477 40.5872C54.4314 40.4585 54.3566 40.3653 54.2529 40.3079C54.1512 40.2461 54.03 40.2058 53.8892 40.1868C53.7516 40.1668 53.5991 40.1611 53.4319 40.1697C53.2646 40.1783 53.0929 40.1848 52.9169 40.1893C52.7409 40.1937 52.5652 40.189 52.3899 40.175C52.2146 40.1611 52.0491 40.1238 51.8935 40.063C51.741 40.0011 51.6015 39.9092 51.4749 39.7874C51.3516 39.6644 51.2522 39.4967 51.1768 39.2842C51.1095 39.0943 51.0836 38.8987 51.0992 38.6974C51.118 38.495 51.178 38.3016 51.2793 38.1171C51.3838 37.9314 51.5318 37.7611 51.7233 37.6062C51.9169 37.4469 52.1553 37.317 52.4386 37.2165C52.7638 37.1012 53.075 37.0487 53.3723 37.0592C53.6728 37.0686 53.9484 37.1303 54.1991 37.2444L54.1131 37.6609Z" fill="#8B8B8B"/>
</g>
<defs>
<clipPath id="clip0_921_4228">
<rect width="64.0483" height="64.0483" fill="white" transform="translate(60.4531 84.126) rotate(-158.31)"/>
</clipPath>
</defs>
</svg>
