<svg width="32" height="32" viewBox="0 0 32 32" fill="none" xmlns="http://www.w3.org/2000/svg">
<g clip-path="url(#clip0_793_10797)">
<path d="M7.84375 0.15C7.46875 0.325 7.3 0.5 7.13125 0.875C7.00625 1.15 7 1.2625 7 5.325V9.5H8.125H9.25V5.8125V2.125H16.9062H24.5625V7.3125V12.5H25.625H26.6875L26.675 6.73125C26.6562 1.50625 26.6438 0.95 26.55 0.78125C26.4 0.5 26.125 0.25 25.8438 0.11875C25.6063 0.00624943 25.2 0 16.875 0H8.15625L7.84375 0.15Z" fill="#2196F3"/>
<path d="M12.0312 4.5875C11.6688 4.75 11.375 5.21875 11.375 5.6375C11.3813 6.05625 11.7063 6.5375 12.0813 6.68125C12.2 6.73125 13.7625 6.75 16.8938 6.75C21.35 6.75 21.5375 6.74375 21.725 6.63125C21.8375 6.5625 22.0063 6.40625 22.1 6.275C22.2563 6.06875 22.2812 5.9875 22.2812 5.625C22.2812 5.2625 22.2563 5.18125 22.1 4.975C22.0063 4.84375 21.8375 4.6875 21.725 4.61875C21.5375 4.50625 21.35 4.5 16.875 4.5C13.1313 4.50625 12.1813 4.51875 12.0312 4.5875Z" fill="#2196F3"/>
<path d="M12.1626 8.75C11.7064 8.8875 11.2126 9.6875 11.5876 9.6875C11.8126 9.6875 12.7001 10.2188 13.1126 10.5938L13.5501 11H17.4751C21.1564 11 21.4251 10.9875 21.6564 10.8813C21.9564 10.7438 22.0876 10.6062 22.2189 10.2937C22.4251 9.7875 22.2501 9.1875 21.7939 8.8875L21.5376 8.71875L16.9439 8.70625C14.4126 8.7 12.2626 8.71875 12.1626 8.75Z" fill="#2196F3"/>
<path d="M2.64379 11.1116C2.01254 11.3366 1.63129 11.7804 1.48754 12.4616C1.42504 12.7491 1.43129 12.9179 1.51879 13.4491C1.58129 13.8054 1.62504 14.1241 1.62504 14.1616C1.62504 14.1991 1.48754 14.2491 1.31879 14.2679C0.731291 14.3366 0.243791 14.8116 0.156291 15.4054C0.100041 15.7866 2.39379 30.5991 2.56879 30.9741C2.64379 31.1241 2.83754 31.3741 3.00004 31.5179C3.58129 32.0429 2.45004 31.9991 15.9313 31.9991H27.9063L28.225 31.8491C28.725 31.6179 29 31.1804 29 30.6179C29 30.1491 26.825 15.4491 26.7063 15.1241C26.5813 14.7741 26.225 14.4241 25.8938 14.3241C25.7063 14.2679 24.2313 14.2491 19.95 14.2491H14.25L13.5813 13.4554C12.0563 11.6554 11.7 11.3054 11.2 11.1179C11.0125 11.0491 10.1563 11.0304 6.96879 11.0179C3.25004 10.9991 2.94379 11.0116 2.64379 11.1116Z" fill="#2196F3"/>
<path d="M28.0625 12.1113C28.0625 12.1425 28.1875 13.33 28.3437 14.7613C28.5125 16.3238 28.8875 19.1175 29.2812 21.7863C29.6437 24.2238 29.9375 26.2425 29.9375 26.2738C29.9375 26.58 30.125 25.3988 30.9375 19.8738C31.5687 15.5613 31.8687 13.3863 31.8437 13.2113C31.7875 12.7925 31.4875 12.3925 31.1062 12.2175C30.7937 12.0675 30.7312 12.0613 29.425 12.0613C28.675 12.0613 28.0625 12.0863 28.0625 12.1113Z" fill="#2196F3"/>
</g>
<defs>
<clipPath id="clip0_793_10797">
<rect width="32" height="32" fill="white"/>
</clipPath>
</defs>
</svg>
