<svg width="78" height="78" viewBox="0 0 78 78" fill="none" xmlns="http://www.w3.org/2000/svg">
<g clip-path="url(#clip0_921_4225)">
<path d="M13.4093 44.8474C14.4711 49.2123 16.6449 53.2279 19.7191 56.5035C22.7934 59.779 26.6633 62.2029 30.9522 63.539C35.2411 64.8752 39.8029 65.0782 44.1935 64.1284C48.5842 63.1785 52.6541 61.108 56.0072 58.1185L64.9561 58.8621C65.697 58.9238 66.4405 58.7779 67.1032 58.4408C67.7658 58.1036 68.3215 57.5886 68.708 56.9534C69.0944 56.3182 69.2963 55.588 69.291 54.8445C69.2858 54.101 69.0735 53.3737 68.6781 52.744L63.9036 45.1387C64.8814 41.3091 64.9739 37.3071 64.1741 33.4365C63.3742 29.5658 61.7031 25.9282 59.2875 22.7998C56.8719 19.6714 53.7754 17.1344 50.233 15.3814C46.6905 13.6284 42.7953 12.7055 38.8429 12.6827C34.8905 12.6599 30.9849 13.5378 27.4224 15.2498C23.86 16.9618 20.7344 19.4629 18.2829 22.5632C15.8314 25.6635 14.1184 29.2815 13.2739 33.1427C12.4295 37.0039 12.4757 41.0067 13.4093 44.8474ZM60.0818 33.4828C61.0001 37.2428 60.9094 41.1785 59.8189 44.8922C59.7387 45.1642 59.7173 45.4501 59.7559 45.731C59.7946 46.0119 59.8925 46.2814 60.0431 46.5217L65.2906 54.8744L55.4611 54.0568C55.1785 54.0331 54.8942 54.0696 54.6269 54.164C54.3595 54.2584 54.1153 54.4085 53.9103 54.6044C50.4077 57.955 45.8973 60.0562 41.0787 60.5818C36.26 61.1075 31.4026 60.0283 27.26 57.5116C23.1173 54.9949 19.921 51.1814 18.1668 46.6628C16.4126 42.1441 16.1986 37.1729 17.5581 32.5202C18.9176 27.8676 21.7744 23.7936 25.6855 20.9303C29.5967 18.067 34.3434 16.5744 39.1893 16.6841C44.0353 16.7938 48.7096 18.4996 52.4871 21.537C56.2647 24.5743 58.9343 28.7734 60.0818 33.4828Z" fill="#2196F3"/>
<path d="M27.508 44.6293L27.6886 45.3711L23.8254 46.3118L23.6448 45.57L25.1582 45.2015L24.0175 40.5168C23.9812 40.3674 23.9486 40.2119 23.9197 40.0501L22.9559 41.3765C22.9183 41.4243 22.8775 41.4588 22.8335 41.4801C22.7895 41.5014 22.745 41.5139 22.7003 41.5178C22.6588 41.5209 22.6191 41.5165 22.5811 41.5046C22.5455 41.4887 22.515 41.4715 22.4894 41.4531L22.0827 41.1039L23.7737 38.7357L24.5652 38.5429L26.129 44.9651L27.508 44.6293ZM29.3498 40.2204C29.6963 40.0551 30.0173 39.9365 30.3127 39.8646C30.6844 39.7741 31.0267 39.7505 31.3396 39.7939C31.6517 39.8339 31.9278 39.9284 32.168 40.0773C32.4107 40.2221 32.6125 40.4156 32.7734 40.6577C32.9368 40.8956 33.0561 41.1689 33.1312 41.4776C33.2234 41.8559 33.2406 42.2156 33.183 42.5566C33.1254 42.8976 33.0071 43.2059 32.8282 43.4815C32.6492 43.7571 32.4149 43.9935 32.1254 44.1905C31.8384 44.3835 31.5123 44.5244 31.1472 44.6133C30.9315 44.6658 30.7205 44.6944 30.5142 44.6989C30.3112 44.7026 30.1165 44.6902 29.9303 44.6618C29.7433 44.63 29.5654 44.5854 29.3967 44.528C29.2314 44.4698 29.0798 44.403 28.9419 44.3276L29.1388 43.8367C29.1792 43.7284 29.2525 43.6613 29.3587 43.6355C29.4284 43.6185 29.5112 43.6265 29.6071 43.6594C29.7055 43.6881 29.8205 43.7199 29.952 43.7547C30.0835 43.7895 30.2354 43.814 30.4077 43.8283C30.5791 43.8393 30.7743 43.8181 30.9934 43.7648C31.2357 43.7058 31.4438 43.6147 31.6177 43.4915C31.7941 43.3642 31.9313 43.213 32.0293 43.0379C32.1306 42.8621 32.1919 42.6661 32.2131 42.45C32.2376 42.2331 32.2204 42.0035 32.1614 41.7612C32.1089 41.5455 32.0301 41.359 31.925 41.2018C31.8199 41.0445 31.6894 40.9199 31.5333 40.8278C31.3773 40.7357 31.197 40.6811 30.9925 40.6641C30.7872 40.6438 30.5584 40.6644 30.3061 40.7258C29.9543 40.8115 29.5946 40.9658 29.2271 41.1889L28.5711 41.1588L28.3317 37.6416L31.7568 36.8076L31.8599 37.2308C31.8938 37.3702 31.8769 37.4956 31.8091 37.607C31.7438 37.7143 31.6083 37.793 31.4025 37.8431L29.2269 38.3729L29.3498 40.2204Z" fill="#4A4A4A"/>
<path d="M37.7589 37.5611L39.0681 42.9377C39.119 43.1468 39.1381 43.3479 39.1253 43.5408C39.1166 43.7363 39.0687 43.915 38.9816 44.0768C38.8985 44.2412 38.7717 44.3845 38.6011 44.5069C38.4338 44.6285 38.2175 44.7217 37.9519 44.7863C37.8424 44.813 37.7408 44.8289 37.6472 44.8342C37.5502 44.8402 37.4516 44.8396 37.3514 44.8323L37.2627 44.2949C37.2607 44.2286 37.282 44.1865 37.3269 44.1686C37.3684 44.1514 37.4523 44.1275 37.5784 44.0968C37.8339 44.0346 38.0007 43.9324 38.0786 43.7904C38.1565 43.6484 38.1627 43.443 38.0973 43.1741L36.7881 37.7974L37.7589 37.5611ZM37.5624 35.953C37.5843 36.0426 37.587 36.1333 37.5707 36.2252C37.5536 36.3137 37.5212 36.3972 37.4735 36.4756C37.425 36.5507 37.3637 36.6166 37.2896 36.6733C37.218 36.7259 37.1358 36.7635 37.0428 36.7862C36.9532 36.808 36.8645 36.812 36.7768 36.7982C36.6883 36.7811 36.6052 36.7503 36.5276 36.706C36.4525 36.6574 36.387 36.5978 36.3311 36.527C36.2777 36.4521 36.2401 36.3699 36.2183 36.2803C36.1956 36.1874 36.1912 36.097 36.205 36.0093C36.2213 35.9174 36.2521 35.8343 36.2973 35.7601C36.345 35.6816 36.4046 35.6161 36.4762 35.5636C36.5469 35.5077 36.6271 35.4688 36.7167 35.447C36.8097 35.4243 36.9004 35.4216 36.989 35.4387C37.08 35.4517 37.1647 35.482 37.2432 35.5297C37.3208 35.5741 37.3879 35.6334 37.4446 35.7074C37.5005 35.7782 37.5398 35.8601 37.5624 35.953ZM41.5081 36.5638C41.8798 36.4732 42.23 36.453 42.5586 36.5031C42.8897 36.549 43.1877 36.661 43.4526 36.8391C43.7199 37.0131 43.9492 37.2473 44.1405 37.5418C44.3309 37.8329 44.4746 38.1776 44.5716 38.5759C44.6685 38.9742 44.6998 39.348 44.6653 39.6974C44.6309 40.0468 44.5349 40.3603 44.3775 40.6377C44.2233 40.9143 44.0102 41.1507 43.7381 41.3471C43.4685 41.5393 43.1478 41.6807 42.7761 41.7712C42.4011 41.8625 42.048 41.8852 41.7169 41.8392C41.3882 41.7892 41.0903 41.6772 40.8229 41.5032C40.5555 41.3292 40.3246 41.0954 40.13 40.8018C39.9388 40.5073 39.7947 40.1609 39.6977 39.7627C39.6007 39.3644 39.5699 38.9922 39.6051 38.6461C39.6429 38.2959 39.7405 37.9821 39.898 37.7047C40.0546 37.4239 40.2678 37.1875 40.5374 36.9953C40.8095 36.7989 41.1331 36.6551 41.5081 36.5638ZM42.5918 41.0145C43.0698 40.8981 43.3874 40.6502 43.5446 40.2709C43.7019 39.8916 43.7094 39.4099 43.5671 38.8257C43.4249 38.2416 43.1968 37.8173 42.8827 37.5527C42.5679 37.2848 42.1715 37.2091 41.6936 37.3255C41.209 37.4434 40.8868 37.6942 40.7271 38.0776C40.5698 38.4569 40.5623 38.9386 40.7046 39.5228C40.8468 40.1069 41.0749 40.5313 41.389 40.7958C41.7063 41.0596 42.1073 41.1324 42.5918 41.0145ZM47.1474 39.3146C47.3576 39.4849 47.5658 39.5889 47.7718 39.6266C47.9779 39.6643 48.1905 39.6565 48.4095 39.6031C48.8609 39.4932 49.1685 39.2478 49.3324 38.8669C49.4996 38.4851 49.504 37.969 49.3456 37.3185C49.1994 36.7178 48.9844 36.3043 48.7008 36.078C48.4164 35.8484 48.0767 35.7817 47.6817 35.8779C47.4029 35.9458 47.176 36.0679 47.0009 36.2441C46.8292 36.4195 46.6837 36.6448 46.5643 36.9199L47.1474 39.3146ZM46.3886 36.1981C46.5411 35.9148 46.7327 35.6695 46.9635 35.4622C47.1943 35.2548 47.4789 35.1099 47.8174 35.0275C48.1128 34.9555 48.3925 34.949 48.6564 35.0078C48.9228 35.0624 49.1653 35.1774 49.3838 35.3527C49.6015 35.5247 49.7923 35.7525 49.9562 36.036C50.1202 36.3195 50.249 36.6538 50.3428 37.0388C50.4422 37.447 50.4813 37.8313 50.46 38.1915C50.442 38.551 50.3676 38.8732 50.2366 39.1583C50.1089 39.4425 49.9268 39.6837 49.6903 39.8819C49.453 40.0768 49.1667 40.2151 48.8315 40.2967C48.6689 40.3363 48.5155 40.3561 48.3713 40.356C48.228 40.3593 48.091 40.3452 47.9603 40.3137C47.8329 40.2815 47.7105 40.2339 47.5933 40.1711C47.476 40.1082 47.3609 40.0325 47.2479 39.944L47.3062 40.3781C47.3128 40.5206 47.2463 40.6089 47.107 40.6428L46.4797 40.7955L44.6904 33.4474L45.6612 33.211L46.3886 36.1981ZM54.2407 34.4707C54.2246 34.5203 54.2041 34.5587 54.1791 34.5859C54.1533 34.6098 54.1171 34.6273 54.0706 34.6387C54.0175 34.6516 53.9534 34.6479 53.8781 34.6275C53.8061 34.6064 53.7184 34.5855 53.615 34.565C53.5149 34.5437 53.399 34.5297 53.2673 34.5231C53.1356 34.5165 52.9851 34.5338 52.8159 34.575C52.6765 34.609 52.5531 34.6583 52.4459 34.7231C52.3411 34.7838 52.2566 34.8554 52.1923 34.9378C52.1272 35.017 52.0835 35.1049 52.0614 35.2017C52.0385 35.2952 52.0387 35.3901 52.0621 35.4863C52.0929 35.6124 52.1548 35.7081 52.248 35.7733C52.3446 35.8377 52.4599 35.8852 52.5939 35.9158C52.7312 35.9457 52.8823 35.9669 53.0471 35.9795C53.2144 35.988 53.3842 35.9994 53.5564 36.0137C53.732 36.0272 53.9046 36.0502 54.0742 36.0827C54.2464 36.1111 54.4047 36.1622 54.5492 36.236C54.6963 36.3057 54.8237 36.403 54.9315 36.5279C55.0425 36.6521 55.1231 36.817 55.1733 37.0228C55.2306 37.2584 55.2408 37.488 55.2038 37.7115C55.1693 37.9308 55.0869 38.1337 54.9565 38.3201C54.8294 38.5058 54.6549 38.6696 54.4328 38.8115C54.2107 38.9535 53.9437 39.0625 53.6317 39.1384C53.2832 39.2233 52.9471 39.2436 52.6235 39.1994C52.2998 39.1551 52.0166 39.0676 51.7738 38.9369L51.9119 38.5078C51.9271 38.4548 51.9518 38.4119 51.986 38.379C52.0194 38.3427 52.0692 38.3165 52.1356 38.3003C52.1987 38.285 52.269 38.2925 52.3467 38.3228C52.4244 38.3531 52.5166 38.3851 52.6233 38.4189C52.7291 38.4494 52.8541 38.4717 52.9982 38.4858C53.1414 38.4966 53.3126 38.4778 53.5118 38.4293C53.6777 38.3889 53.8172 38.3339 53.9304 38.2641C54.0426 38.1911 54.1301 38.11 54.1928 38.0209C54.258 37.9277 54.2992 37.8298 54.3164 37.7271C54.3336 37.6245 54.3297 37.5218 54.3046 37.4189C54.2723 37.2861 54.2075 37.1859 54.1101 37.1182C54.0153 37.0463 53.8988 36.9938 53.7606 36.9607C53.6258 36.9267 53.4747 36.9055 53.3074 36.897C53.1401 36.8885 52.9687 36.8775 52.7931 36.864C52.6176 36.8505 52.4433 36.8279 52.2703 36.7962C52.0974 36.7645 51.9366 36.7105 51.7879 36.6342C51.6426 36.5571 51.5131 36.4515 51.3996 36.3174C51.2894 36.1825 51.2077 36.0055 51.1543 35.7865C51.1067 35.5907 51.1008 35.3934 51.1368 35.1948C51.1762 34.9954 51.2556 34.8091 51.3751 34.6358C51.498 34.4617 51.6626 34.3074 51.8689 34.1728C52.0777 34.0341 52.3281 33.9291 52.6202 33.858C52.9554 33.7764 53.2703 33.756 53.565 33.7967C53.863 33.8366 54.1309 33.9261 54.3687 34.0651L54.2407 34.4707Z" fill="#8B8B8B"/>
</g>
<defs>
<clipPath id="clip0_921_4225">
<rect width="64.0483" height="64.0483" fill="white" transform="translate(15.1523 77.3829) rotate(-103.685)"/>
</clipPath>
</defs>
</svg>
