<svg width="73" height="71" viewBox="0 0 73 71" fill="none" xmlns="http://www.w3.org/2000/svg">
<g clip-path="url(#clip0_921_4234)">
<path d="M62.5225 38.5193C63.0297 34.1516 62.3649 29.7232 60.593 25.6651C58.8211 21.6071 56.0023 18.0577 52.411 15.3624C48.8198 12.6671 44.5784 10.9178 40.0998 10.2846C35.6211 9.65146 31.0577 10.1561 26.8538 11.7493L18.653 8.00084C17.974 7.69038 17.2208 7.56945 16.4778 7.65161C15.7347 7.73378 15.0313 8.01578 14.4462 8.46602C13.8611 8.91626 13.4175 9.51694 13.1651 10.2007C12.9128 10.8845 12.8616 11.6244 13.0174 12.3375L14.8978 20.9497C12.6481 24.1275 11.1756 27.7668 10.5918 31.5914C10.0081 35.416 10.3286 39.3253 11.5289 43.0227C12.7292 46.72 14.7778 50.1082 17.5193 52.93C20.2607 55.7519 23.623 57.9332 27.3507 59.3084C31.0785 60.6837 35.0738 61.2167 39.0335 60.867C42.9931 60.5173 46.813 59.2941 50.2031 57.2903C53.5933 55.2864 56.4647 52.5546 58.5992 49.3022C60.7338 46.0497 62.0755 42.3621 62.5225 38.5193ZM14.4757 32.9511C14.9092 29.1875 16.3571 25.6084 18.6732 22.5755C18.8431 22.3535 18.9624 22.0986 19.0231 21.8277C19.0838 21.5567 19.0845 21.276 19.0252 21.004L16.9566 11.5441L25.9641 15.6622C26.2229 15.7808 26.5043 15.8447 26.7897 15.8498C27.075 15.8548 27.3578 15.8008 27.6193 15.6913C32.0896 13.818 37.08 13.4362 41.8163 14.6051C46.5526 15.7741 50.7701 18.4285 53.8146 22.1565C56.859 25.8846 58.5602 30.4778 58.6542 35.2238C58.7482 39.9698 57.2298 44.6032 54.3345 48.4052C51.4392 52.2071 47.3289 54.9652 42.6412 56.2515C37.9536 57.5378 32.9505 57.2805 28.4082 55.5193C23.866 53.7582 20.0384 50.5918 17.5193 46.5113C15.0001 42.4307 13.9303 37.6642 14.4757 32.9511Z" fill="#2196F3"/>
<path d="M26.4134 40.142C26.641 40.0954 26.8378 40.0219 27.0039 39.9217C27.17 39.8214 27.3049 39.7014 27.4086 39.5617C27.5117 39.4186 27.5808 39.2597 27.6159 39.0852C27.6511 38.9107 27.6518 38.7276 27.618 38.5358C27.5766 38.3003 27.5025 38.1064 27.396 37.9539C27.2888 37.7981 27.1605 37.6798 27.011 37.5989C26.861 37.5146 26.6945 37.465 26.5116 37.4502C26.3281 37.432 26.1393 37.4428 25.9452 37.4826C25.7478 37.5231 25.5668 37.588 25.4023 37.6775C25.2371 37.7636 25.0991 37.8756 24.9881 38.0133C24.8766 38.1477 24.7974 38.3086 24.7506 38.4959C24.7066 38.6792 24.7054 38.8886 24.7468 39.1241C24.7806 39.3158 24.8435 39.4859 24.9355 39.6344C25.0275 39.7829 25.1458 39.9033 25.2903 39.9957C25.4343 40.0847 25.6005 40.143 25.7892 40.1705C25.9778 40.1981 26.1858 40.1886 26.4134 40.142ZM25.3802 34.2732C25.1727 34.3157 24.996 34.385 24.8499 34.4812C24.7067 34.5733 24.5926 34.6838 24.5079 34.8127C24.4231 34.9416 24.3663 35.0822 24.3377 35.2344C24.3124 35.386 24.3139 35.5425 24.3423 35.704C24.3702 35.8621 24.4192 36.0124 24.4893 36.1549C24.5622 36.2933 24.6576 36.4115 24.7753 36.5093C24.8959 36.6031 25.041 36.6693 25.2107 36.7077C25.3804 36.7461 25.5791 36.742 25.8066 36.6954C26.0308 36.6495 26.2154 36.5751 26.3602 36.4722C26.5084 36.3686 26.6209 36.2497 26.6979 36.1154C26.7775 35.9771 26.8261 35.8295 26.8435 35.6726C26.8637 35.5116 26.8599 35.352 26.8321 35.1939C26.8036 35.0324 26.7502 34.8865 26.6718 34.7562C26.5967 34.6252 26.4978 34.5165 26.3751 34.4301C26.2525 34.3437 26.1071 34.2863 25.9392 34.258C25.774 34.2256 25.5877 34.2307 25.3802 34.2732ZM26.9507 36.8427C27.4228 36.8854 27.8007 37.0328 28.0843 37.2849C28.3712 37.5363 28.555 37.8908 28.6355 38.3483C28.6912 38.6645 28.6813 38.9628 28.6059 39.2432C28.5337 39.5228 28.4049 39.7758 28.2194 40.002C28.0366 40.2242 27.8032 40.4149 27.5192 40.5742C27.2352 40.7335 26.9125 40.8501 26.5511 40.9242C26.1897 40.9982 25.8498 41.0173 25.5315 40.9814C25.2131 40.9456 24.9295 40.8608 24.6806 40.7271C24.4344 40.5893 24.2286 40.4049 24.0631 40.1739C23.901 39.9422 23.7921 39.6682 23.7364 39.352C23.6559 38.8945 23.7047 38.4924 23.8829 38.1456C24.0644 37.7982 24.3675 37.5113 24.7923 37.2849C24.3959 37.2197 24.0795 37.0667 23.8429 36.8258C23.6058 36.5816 23.4532 36.2661 23.3851 35.8792C23.3377 35.6101 23.3454 35.3488 23.4083 35.0954C23.4739 34.838 23.587 34.604 23.7475 34.3933C23.9114 34.182 24.1203 33.9998 24.3742 33.8467C24.6281 33.6936 24.919 33.5834 25.2469 33.5162C25.5749 33.4491 25.883 33.4365 26.1712 33.4785C26.4594 33.5205 26.714 33.6078 26.935 33.7403C27.1593 33.8721 27.344 34.0451 27.4892 34.2594C27.6372 34.4695 27.7348 34.7092 27.7822 34.9783C27.8503 35.3652 27.8156 35.7191 27.6779 36.0401C27.5397 36.3578 27.2973 36.6253 26.9507 36.8427Z" fill="#4A4A4A"/>
<path d="M33.2156 34.1632L34.1751 39.6131C34.2124 39.8251 34.2186 40.0277 34.1937 40.221C34.1727 40.417 34.1139 40.5946 34.0171 40.7539C33.9242 40.9158 33.7893 41.055 33.6121 41.1715C33.4384 41.2872 33.2176 41.3725 32.9499 41.4274C32.8395 41.45 32.7376 41.4622 32.6443 41.4639C32.5476 41.4662 32.4498 41.4619 32.3508 41.4508L32.2967 40.9077C32.2989 40.841 32.3228 40.7995 32.3684 40.7832C32.4108 40.7676 32.4955 40.7467 32.6227 40.7207C32.8803 40.6679 33.0523 40.5716 33.1387 40.4319C33.2251 40.2923 33.2442 40.0862 33.1963 39.8137L32.2368 34.3637L33.2156 34.1632ZM33.1224 32.5406C33.1384 32.6314 33.1354 32.7227 33.1134 32.8143C33.0908 32.9026 33.0533 32.9852 33.001 33.0621C32.9481 33.1357 32.883 33.1996 32.8059 33.2537C32.7315 33.3038 32.6475 33.3385 32.5538 33.3577C32.4634 33.3762 32.3751 33.3768 32.2889 33.3597C32.202 33.3391 32.1215 33.3051 32.0473 33.2575C31.9758 33.206 31.9145 33.1436 31.8635 33.0704C31.8152 32.9931 31.7831 32.9091 31.7671 32.8183C31.7505 32.7241 31.7519 32.6332 31.7711 32.5456C31.7931 32.4539 31.8289 32.3716 31.8785 32.2988C31.9308 32.2218 31.9942 32.1583 32.0686 32.1082C32.1424 32.0547 32.2244 32.0187 32.3148 32.0002C32.4085 31.981 32.4987 31.9817 32.5856 32.0023C32.6752 32.0188 32.7574 32.0525 32.8322 32.1034C32.9064 32.1509 32.9694 32.2129 33.021 32.2895C33.072 32.3627 33.1058 32.4464 33.1224 32.5406ZM37.0012 33.3039C37.376 33.2271 37.725 33.2201 38.0481 33.2829C38.3739 33.3416 38.6627 33.4654 38.9144 33.6544C39.1688 33.8393 39.3816 34.0832 39.5529 34.3862C39.7235 34.6859 39.8444 35.0376 39.9154 35.4413C39.9865 35.845 39.9939 36.2216 39.9375 36.5713C39.8812 36.9209 39.7661 37.232 39.5922 37.5047C39.4217 37.7766 39.1951 38.006 38.9125 38.1929C38.6326 38.3757 38.3053 38.5055 37.9305 38.5823C37.5523 38.6598 37.2004 38.6692 36.8745 38.6104C36.5514 38.5477 36.2627 38.4238 36.0082 38.239C35.7538 38.0541 35.5393 37.8105 35.3647 37.5081C35.1935 37.2051 35.0723 36.8518 35.0012 36.4481C34.9302 36.0444 34.9231 35.6694 34.98 35.3231C35.0397 34.9728 35.1565 34.6613 35.3304 34.3887C35.5037 34.1127 35.7302 33.8832 36.0101 33.7004C36.2927 33.5136 36.6231 33.3814 37.0012 33.3039ZM37.7955 37.8153C38.2773 37.7166 38.6083 37.4797 38.7885 37.1047C38.9686 36.7297 39.0066 36.2461 38.9024 35.654C38.7981 35.0619 38.5985 34.6271 38.3034 34.3494C38.0078 34.0684 37.619 33.9773 37.1372 34.076C36.6486 34.1761 36.3128 34.4157 36.1299 34.7947C35.9498 35.1697 35.9118 35.6533 36.0161 36.2454C36.1203 36.8375 36.32 37.2723 36.615 37.55C36.9134 37.827 37.3069 37.9154 37.7955 37.8153ZM42.4261 36.281C42.6241 36.46 42.8241 36.5724 43.0263 36.6181C43.2285 36.6638 43.4401 36.6641 43.6609 36.6188C44.116 36.5256 44.437 36.2908 44.6239 35.9144C44.814 35.5373 44.8511 35.0191 44.735 34.3597C44.6278 33.7508 44.4406 33.3273 44.1733 33.0893C43.9055 32.8479 43.5724 32.768 43.1742 32.8496C42.8931 32.9072 42.6601 33.0212 42.4751 33.1915C42.2935 33.3612 42.1347 33.5819 41.9988 33.8537L42.4261 36.281ZM41.87 33.122C42.0393 32.8433 42.2452 32.6043 42.4874 32.4047C42.7296 32.2052 43.0214 32.0705 43.3628 32.0006C43.6606 31.9396 43.9387 31.9436 44.197 32.0127C44.4581 32.0777 44.6915 32.2024 44.8973 32.3868C45.1026 32.5678 45.2776 32.8038 45.4224 33.0948C45.5673 33.3858 45.674 33.7264 45.7427 34.1167C45.8156 34.5305 45.8301 34.9179 45.7861 35.2789C45.7456 35.6393 45.6512 35.9601 45.5031 36.2414C45.3584 36.522 45.1623 36.7574 44.9149 36.9475C44.667 37.1342 44.374 37.2622 44.036 37.3314C43.872 37.365 43.7185 37.3791 43.5754 37.3735C43.4328 37.3714 43.2977 37.352 43.1699 37.3154C43.0455 37.2782 42.927 37.2258 42.8146 37.1582C42.7021 37.0906 42.5926 37.0102 42.4861 36.917L42.5164 37.3552C42.5139 37.4986 42.4424 37.5847 42.3019 37.6135L41.6694 37.7431L40.3581 30.2948L41.3369 30.0943L41.87 33.122ZM49.7754 31.6854C49.7563 31.7346 49.7335 31.7724 49.7069 31.7987C49.6798 31.8217 49.6428 31.838 49.5959 31.8476C49.5424 31.8586 49.4789 31.8524 49.4055 31.8291C49.3354 31.8052 49.2496 31.7809 49.1482 31.7564C49.0502 31.7311 48.936 31.7127 48.8056 31.7011C48.6753 31.6894 48.5248 31.7011 48.3541 31.7361C48.2136 31.7649 48.088 31.8098 47.9774 31.8708C47.8695 31.9277 47.7811 31.9964 47.712 32.0767C47.6424 32.1538 47.5935 32.2405 47.5654 32.3368C47.5367 32.4299 47.5309 32.5251 47.5481 32.6227C47.5706 32.7505 47.6261 32.849 47.7145 32.918C47.8063 32.9863 47.9177 33.0384 48.0489 33.0743C48.1833 33.1095 48.332 33.1365 48.4948 33.1555C48.6604 33.1703 48.8282 33.1882 48.9983 33.2092C49.1718 33.2294 49.3417 33.2591 49.5081 33.2982C49.6772 33.3332 49.8312 33.3906 49.97 33.4702C50.1116 33.5457 50.2319 33.6483 50.331 33.7779C50.4334 33.9068 50.503 34.0755 50.5397 34.2841C50.5818 34.5229 50.5774 34.7539 50.5265 34.9769C50.4784 35.1959 50.3837 35.3966 50.2424 35.5789C50.1045 35.7605 49.9208 35.9184 49.6913 36.0525C49.4618 36.1867 49.1898 36.286 48.8753 36.3504C48.5239 36.4224 48.1889 36.43 47.8704 36.3733C47.5518 36.3166 47.2761 36.218 47.0434 36.0774L47.2076 35.6517C47.2261 35.5991 47.2534 35.5569 47.2894 35.5251C47.3248 35.49 47.376 35.4656 47.4429 35.4518C47.5065 35.4388 47.5759 35.449 47.6511 35.4824C47.7263 35.5158 47.8158 35.5515 47.9196 35.5895C48.0228 35.6241 48.1454 35.6512 48.2876 35.6709C48.4291 35.6872 48.6003 35.6748 48.8011 35.6337C48.9684 35.5994 49.1104 35.5494 49.2271 35.4836C49.3432 35.4145 49.4352 35.3364 49.5031 35.2493C49.5737 35.1582 49.6208 35.0614 49.6444 34.959C49.668 34.8565 49.6706 34.7532 49.6522 34.6489C49.6285 34.5143 49.5705 34.4112 49.4782 34.3395C49.3885 34.2638 49.2762 34.2066 49.1411 34.168C49.0094 34.1288 48.8608 34.1018 48.6952 34.0869C48.5296 34.072 48.3601 34.0545 48.1867 34.0342C48.0132 34.014 47.8416 33.9847 47.6719 33.9462C47.5022 33.9078 47.3459 33.8475 47.2032 33.7652C47.0637 33.6822 46.9419 33.5712 46.8377 33.4322C46.7369 33.2926 46.6669 33.1117 46.6278 32.8897C46.5928 32.6912 46.5995 32.4929 46.6479 32.2948C46.6995 32.096 46.7902 31.9118 46.9199 31.7424C47.0529 31.5722 47.226 31.4234 47.4394 31.2961C47.6555 31.1647 47.9108 31.0688 48.2052 31.0085C48.5432 30.9392 48.8572 30.9307 49.1472 30.9828C49.4406 31.0342 49.7009 31.1342 49.9282 31.2829L49.7754 31.6854Z" fill="#8B8B8B"/>
</g>
<defs>
<clipPath id="clip0_921_4234">
<rect width="62.6918" height="64.4912" fill="white" transform="translate(72.1367 8.07788) rotate(96.6105)"/>
</clipPath>
</defs>
</svg>
