<svg width="32" height="32" viewBox="0 0 32 32" fill="none" xmlns="http://www.w3.org/2000/svg">
<g clip-path="url(#clip0_793_10790)">
<path d="M17.825 1.4557C17.5062 1.57445 17.2125 1.8432 17.0625 2.1557C16.95 2.38695 16.9312 2.52445 16.95 2.83695C16.9812 3.3307 17.1875 3.6682 17.6062 3.9182L17.9062 4.0932L21.925 4.12445L25.9375 4.1557L20.1812 9.9057C16.2312 13.8495 14.3875 15.737 14.3062 15.9057C14.0812 16.3807 14.1875 17.012 14.55 17.3995C14.9312 17.8057 15.5875 17.9245 16.125 17.6807C16.3437 17.587 17.6937 16.2682 22.1375 11.8245L27.8687 6.09945L27.8875 10.0932L27.9062 14.0932L28.0812 14.3932C28.425 14.9745 29.1375 15.2182 29.7812 14.9682C30.1062 14.8495 30.475 14.4557 30.5625 14.1307C30.6 13.987 30.625 11.7682 30.625 8.1807V2.46195L30.4562 2.1182C30.325 1.8682 30.2062 1.73695 29.975 1.5932L29.6687 1.4057L23.85 1.3932C19.4812 1.38695 17.9812 1.39945 17.825 1.4557Z" fill="#2196F3"/>
<path d="M4.01094 6.10507C2.02969 6.53007 0.479688 8.10507 0.0984375 10.0988C-0.0328125 10.7863 -0.0328125 25.8801 0.0984375 26.5676C0.423438 28.2676 1.64844 29.7363 3.23594 30.3363C4.15469 30.6801 3.94844 30.6738 12.3547 30.6738C18.8484 30.6738 20.2047 30.6613 20.5922 30.5863C22.6359 30.1926 24.2547 28.5488 24.6047 26.5051C24.6922 26.0176 24.6984 24.9426 24.6859 18.0738C24.6734 13.6301 24.6422 10.1551 24.6109 10.0926C24.5672 9.99257 23.8859 10.6426 20.1109 14.4051C14.9734 19.5301 15.3797 19.2051 14.1984 19.2051C13.6609 19.2051 13.4797 19.1738 13.1859 19.0613C12.4984 18.7863 11.8984 18.1863 11.6297 17.5051C11.5109 17.2113 11.4859 17.0238 11.4797 16.4801C11.4797 15.8426 11.4859 15.8113 11.7234 15.3238C11.9547 14.8363 12.0297 14.7613 16.3422 10.4801C20.1609 6.69257 20.7047 6.12382 20.5984 6.07382C20.5297 6.04257 17.2672 6.01132 12.5109 6.00507C5.02969 5.99257 4.51094 5.99882 4.01094 6.10507Z" fill="#2196F3"/>
</g>
<defs>
<clipPath id="clip0_793_10790">
<rect width="32" height="32" fill="white"/>
</clipPath>
</defs>
</svg>
