<svg width="34" height="34" viewBox="0 0 34 34" fill="none" xmlns="http://www.w3.org/2000/svg">
<path d="M32.8458 16.5697C32.7994 16.4648 31.6744 13.9692 29.1736 11.4684C25.8413 8.13609 21.6325 6.375 17 6.375C12.3675 6.375 8.15866 8.13609 4.82639 11.4684C2.32553 13.9692 1.1953 16.4688 1.15413 16.5697C1.09372 16.7056 1.0625 16.8526 1.0625 17.0013C1.0625 17.15 1.09372 17.2971 1.15413 17.433C1.20061 17.5379 2.32553 20.0321 4.82639 22.533C8.15866 25.8639 12.3675 27.625 17 27.625C21.6325 27.625 25.8413 25.8639 29.1736 22.533C31.6744 20.0321 32.7994 17.5379 32.8458 17.433C32.9063 17.2971 32.9375 17.15 32.9375 17.0013C32.9375 16.8526 32.9063 16.7056 32.8458 16.5697ZM17 22.3125C15.9493 22.3125 14.9222 22.0009 14.0485 21.4172C13.1749 20.8334 12.494 20.0037 12.0919 19.033C11.6898 18.0623 11.5846 16.9941 11.7896 15.9636C11.9945 14.9331 12.5005 13.9865 13.2435 13.2435C13.9864 12.5005 14.933 11.9946 15.9636 11.7896C16.9941 11.5846 18.0623 11.6898 19.033 12.0919C20.0037 12.494 20.8334 13.1749 21.4172 14.0485C22.0009 14.9222 22.3125 15.9493 22.3125 17C22.3125 18.409 21.7528 19.7602 20.7565 20.7565C19.7602 21.7528 18.409 22.3125 17 22.3125Z" fill="#2196F3"/>
</svg>
